<svg width="16" height="16" viewBox="0 0 16 16" fill="none" xmlns="http://www.w3.org/2000/svg">
<path d="M8 10.6667C9.47276 10.6667 10.6667 9.47276 10.6667 8C10.6667 6.52724 9.47276 5.33333 8 5.33333C6.52724 5.33333 5.33333 6.52724 5.33333 8C5.33333 9.47276 6.52724 10.6667 8 10.6667Z" fill="white"/>
<path d="M11.4155 0H4.66266C2.09016 0 0 2.08 0 4.64V11.28C0 13.92 2.09016 16 4.66266 16H11.3351C13.9076 16 15.9978 13.92 15.9978 11.36V4.64C16.0781 2.08 13.988 0 11.4155 0ZM8.03907 12C5.78813 12 4.01954 10.24 4.01954 8C4.01954 5.76 5.78813 4 8.03907 4C10.29 4 12.0586 5.76 12.0586 8C12.0586 10.24 10.29 12 8.03907 12ZM12.7017 4C12.3802 4 12.0586 3.68 12.0586 3.36C12.0586 3.04 12.3802 2.72 12.7017 2.72C13.0233 2.72 13.3449 3.04 13.3449 3.36C13.3449 3.68 13.1037 4 12.7017 4Z" fill="curentColor"/>
</svg>
