<svg width="17" height="16" viewBox="0 0 17 16" fill="none" xmlns="http://www.w3.org/2000/svg">
<path d="M14.2625 0C14.734 0 15.1862 0.187301 15.5196 0.520699C15.853 0.854097 16.0403 1.30628 16.0403 1.77778V14.2222C16.0403 14.6937 15.853 15.1459 15.5196 15.4793C15.1862 15.8127 14.734 16 14.2625 16H1.81806C1.34657 16 0.89438 15.8127 0.560982 15.4793C0.227584 15.1459 0.0402832 14.6937 0.0402832 14.2222V1.77778C0.0402832 1.30628 0.227584 0.854097 0.560982 0.520699C0.89438 0.187301 1.34657 0 1.81806 0H14.2625ZM13.8181 13.7778V9.06667C13.8181 8.29813 13.5128 7.56107 12.9693 7.01763C12.4259 6.47419 11.6888 6.16889 10.9203 6.16889C10.1647 6.16889 9.28473 6.63111 8.85806 7.32444V6.33778H6.37806V13.7778H8.85806V9.39556C8.85806 8.71111 9.40917 8.15111 10.0936 8.15111C10.4237 8.15111 10.7402 8.28222 10.9736 8.5156C11.207 8.74898 11.3381 9.06551 11.3381 9.39556V13.7778H13.8181ZM3.48917 4.94222C3.88523 4.94222 4.26506 4.78489 4.54512 4.50484C4.82517 4.22478 4.98251 3.84495 4.98251 3.44889C4.98251 2.62222 4.31584 1.94667 3.48917 1.94667C3.09076 1.94667 2.70866 2.10494 2.42694 2.38666C2.14522 2.66838 1.98695 3.05047 1.98695 3.44889C1.98695 4.27556 2.66251 4.94222 3.48917 4.94222ZM4.72473 13.7778V6.33778H2.26251V13.7778H4.72473Z" fill="curentColor"/>
</svg>
