<svg width="25" height="24" viewBox="0 0 25 24" fill="none" xmlns="http://www.w3.org/2000/svg">
<path d="M22.4222 2.79859H21.6589V2.12014C21.6589 0.932862 20.7261 0 19.5388 0C18.3515 0 17.4187 0.932862 17.4187 2.12014V2.79859H7.49639V2.12014C7.49639 0.932862 6.56353 0 5.37625 0C4.18897 0 3.25611 0.932862 3.25611 2.12014V2.79859H2.57766C1.39038 2.79859 0.45752 3.73145 0.45752 4.91873V21.8799C0.45752 23.0671 1.39038 24 2.57766 24H22.4222C23.6095 24 24.5423 23.0671 24.5423 21.8799V4.91873C24.4575 3.73145 23.5247 2.79859 22.4222 2.79859ZM18.8603 2.12014C18.8603 1.69611 19.1996 1.4417 19.5388 1.4417C19.878 1.4417 20.2172 1.78092 20.2172 2.12014V4.91873C20.2172 5.34276 19.878 5.59717 19.5388 5.59717C19.1996 5.59717 18.8603 5.25795 18.8603 4.91873V2.12014ZM4.6978 2.12014C4.6978 1.69611 5.03702 1.4417 5.37625 1.4417C5.71547 1.4417 6.05469 1.69611 6.05469 2.12014V4.91873C6.05469 5.34276 5.71547 5.59717 5.37625 5.59717C5.03702 5.59717 4.6978 5.34276 4.6978 4.91873V2.12014ZM23.1006 21.9647C23.1006 22.3887 22.7614 22.6431 22.4222 22.6431H2.57766C2.15363 22.6431 1.89922 22.3039 1.89922 21.9647V9.92226H23.1006V21.9647ZM23.1006 8.56537H1.89922V4.91873C1.89922 4.57951 2.15363 4.24028 2.57766 4.24028H3.25611V4.91873C3.25611 6.10601 4.18897 7.03887 5.37625 7.03887C6.56353 7.03887 7.49639 6.10601 7.49639 4.91873V4.24028H17.4187V4.91873C17.4187 6.10601 18.3515 7.03887 19.5388 7.03887C20.7261 7.03887 21.6589 6.10601 21.6589 4.91873V4.24028H22.3374C22.7614 4.24028 23.0158 4.57951 23.0158 4.91873V8.56537H23.1006Z" fill="#0047AB"/>
<path d="M8.25975 11.364H5.46116C5.03713 11.364 4.78271 11.7032 4.78271 12.0424V14.841C4.78271 15.265 5.12194 15.5194 5.46116 15.5194H8.25975C8.68377 15.5194 8.93819 15.1802 8.93819 14.841V12.0424C8.93819 11.7032 8.59897 11.364 8.25975 11.364ZM7.5813 14.1625H6.13961V12.7208H7.5813V14.1625Z" fill="#0047AB"/>
<path d="M8.25959 16.9611H5.461C5.03698 16.9611 4.69775 17.3003 4.69775 17.7244V20.523C4.69775 20.947 5.03698 21.2014 5.461 21.2014H8.25959C8.68362 21.2014 8.93804 20.8622 8.93804 20.523V17.7244C8.93804 17.3003 8.59881 16.9611 8.25959 16.9611ZM7.58115 19.8445H6.13945V18.4028H7.58115V19.8445Z" fill="#0047AB"/>
<path d="M13.8569 16.9611H11.0583C10.6343 16.9611 10.3799 17.3003 10.3799 17.6396V20.4382C10.3799 20.8622 10.7191 21.1166 11.0583 21.1166H13.8569C14.2809 21.1166 14.5354 20.7774 14.5354 20.4382V17.6396C14.6202 17.3003 14.2809 16.9611 13.8569 16.9611ZM13.1785 19.8445H11.7368V18.4028H13.1785V19.8445Z" fill="#0047AB"/>
<path d="M13.8569 11.364H11.0583C10.6343 11.364 10.3799 11.7032 10.3799 12.0424V14.841C10.3799 15.265 10.7191 15.5194 11.0583 15.5194H13.8569C14.2809 15.5194 14.5354 15.1802 14.5354 14.841V12.0424C14.6202 11.7032 14.2809 11.364 13.8569 11.364ZM13.1785 14.1625H11.7368V12.7208H13.1785V14.1625Z" fill="#0047AB"/>
<path d="M19.5388 11.364H16.7402C16.3162 11.364 16.0618 11.7032 16.0618 12.0424V14.841C16.0618 15.265 16.401 15.5194 16.7402 15.5194H19.5388C19.9628 15.5194 20.2172 15.1802 20.2172 14.841V12.0424C20.2172 11.7032 19.878 11.364 19.5388 11.364ZM18.7755 14.1625H17.4187V12.7208H18.8604V14.1625H18.7755Z" fill="#0047AB"/>
<path d="M19.5388 16.9611H16.7402C16.3162 16.9611 16.0618 17.3003 16.0618 17.6396V20.4382C16.0618 20.8622 16.401 21.1166 16.7402 21.1166H19.5388C19.9628 21.1166 20.2172 20.7774 20.2172 20.4382V17.6396C20.2172 17.3003 19.878 16.9611 19.5388 16.9611ZM18.7755 19.8445H17.4187V18.4028H18.8604V19.8445H18.7755Z" fill="#0047AB"/>
</svg>
