<svg width="35" height="24" viewBox="0 0 35 24" fill="none" xmlns="http://www.w3.org/2000/svg">
<path d="M31.1111 0H3.64583C1.70139 0 0 1.68 0 3.6V7.68C0 7.92 0.243056 8.16 0.486111 8.16H34.5139C34.7569 8.16 35 7.92 35 7.68V3.6C34.7569 1.68 33.0556 0 31.1111 0Z" fill="black"/>
<path d="M34.2708 10.32H0.243056C0.243056 10.32 0 10.56 0 10.8V20.4C0 22.32 1.70139 24 3.64583 24H31.1111C33.0556 24 34.7569 22.32 34.7569 20.4V10.8C34.7569 10.56 34.5139 10.32 34.2708 10.32Z" fill="currentColor"/>
</svg>
