<svg width="24" height="25" viewBox="0 0 24 25" fill="none" xmlns="http://www.w3.org/2000/svg">
<g clip-path="url(#clip0_290_3045)">
<path d="M12 0.406776C5.44 0.406776 0 5.84678 0 12.4068C0 18.9668 5.44 24.4068 12 24.4068C18.56 24.4068 24 18.9668 24 12.4068C24 5.84678 18.56 0.406776 12 0.406776ZM12 22.1668C6.56 22.1668 2.24 17.6868 2.24 12.4068C2.24 6.96678 6.72 2.64678 12 2.64678C17.44 2.64678 21.76 7.12678 21.76 12.4068C21.76 17.8468 17.44 22.1668 12 22.1668ZM17.28 15.1268C17.12 15.4468 16.64 15.7668 16.32 15.7668C16.16 15.7668 16 15.7668 15.84 15.6068L11.52 13.3668C11.2 13.2068 10.88 12.8868 10.88 12.4068V6.80678C10.88 6.16678 11.36 5.68678 12 5.68678C12.64 5.68678 13.12 6.16678 13.12 6.80678V11.7668L16.96 13.6868C17.44 13.8468 17.6 14.4868 17.28 15.1268Z" fill="currentColor"/>
</g>
<defs>
<clipPath id="clip0_290_3045">
<rect width="24" height="24" fill="white" transform="translate(0 0.406776)"/>
</clipPath>
</defs>
</svg>
