<svg width="24" height="25" viewBox="0 0 24 25" fill="none" xmlns="http://www.w3.org/2000/svg">
<path d="M12 24.4068C10.32 24.4068 8.76 24.0468 7.32 23.4468C5.88 22.8468 4.56 22.0068 3.48 20.9268C2.4 19.8468 1.56 18.5268 0.96 17.0868C0.36 15.6468 0 14.0868 0 12.4068C0 10.7268 0.36 9.16678 0.96 7.72678C1.56 6.28678 2.4 4.96678 3.48 3.88678C4.56 2.80678 5.88 1.96678 7.32 1.36678C8.76 0.766776 10.32 0.406776 12 0.406776C13.68 0.406776 15.24 0.766776 16.68 1.36678C18.12 1.96678 19.44 2.80678 20.52 3.88678C21.6 4.96678 22.44 6.28678 23.04 7.72678C23.64 9.16678 24 10.7268 24 12.4068V14.0868C24 15.2868 23.64 16.2468 22.8 17.0868C21.96 17.9268 21 18.2868 19.8 18.2868C19.08 18.2868 18.48 18.1668 17.88 17.8068C17.28 17.4468 16.8 17.0868 16.32 16.4868C15.72 17.0868 15.12 17.4468 14.4 17.8068C13.56 18.2868 12.84 18.4068 12 18.4068C10.32 18.4068 8.88 17.8068 7.8 16.6068C6.72 15.4068 6 14.0868 6 12.4068C6 10.7268 6.6 9.28678 7.8 8.20678C9 7.12678 10.32 6.40678 12 6.40678C13.68 6.40678 15.12 7.00678 16.2 8.20678C17.28 9.40678 18 10.7268 18 12.4068V14.0868C18 14.5668 18.12 15.0468 18.48 15.4068C18.84 15.7668 19.2 15.8868 19.8 15.8868C20.4 15.8868 20.76 15.7668 21.12 15.4068C21.48 15.0468 21.6 14.5668 21.6 14.0868V12.4068C21.6 9.76678 20.64 7.48678 18.84 5.56678C17.04 3.64678 14.64 2.80678 12 2.80678C9.36 2.80678 7.08 3.76678 5.16 5.56678C3.24 7.36678 2.4 9.76678 2.4 12.4068C2.4 15.0468 3.36 17.3268 5.16 19.2468C6.96 21.1668 9.36 22.0068 12 22.0068H18V24.4068H12ZM12 16.0068C12.96 16.0068 13.8 15.6468 14.52 14.9268C15.24 14.2068 15.6 13.3668 15.6 12.4068C15.6 11.4468 15.24 10.6068 14.52 9.88678C13.8 9.16678 12.96 8.80678 12 8.80678C11.04 8.80678 10.2 9.16678 9.48 9.88678C8.76 10.6068 8.4 11.4468 8.4 12.4068C8.4 13.3668 8.76 14.2068 9.48 14.9268C10.2 15.6468 11.04 16.0068 12 16.0068Z" fill="currentColor"/>
</svg>
