<svg width="24" height="24" viewBox="0 0 24 24" fill="none" xmlns="http://www.w3.org/2000/svg">
<mask id="mask0_422_3400" style="mask-type:luminance" maskUnits="userSpaceOnUse" x="1" y="1" width="23" height="23">
<path d="M12.0291 23.0583C18.1203 23.0583 23.0583 18.1203 23.0583 12.0291C23.0583 5.93791 18.1203 1 12.0291 1C5.93791 1 1 5.93791 1 12.0291C1 18.1203 5.93791 23.0583 12.0291 23.0583Z" fill="white"/>
</mask>
<g mask="url(#mask0_422_3400)">
<path d="M8.37864 0.0678711H1V24.0679H8.37864V0.0678711Z" fill="#0F2C76"/>
<path d="M15.6794 0.0678711H8.30078V24.0679H15.6794V0.0678711Z" fill="#EDCB49"/>
<path d="M23.0583 0.0678711H15.6797V24.0679H23.0583V0.0678711Z" fill="#B72C2E"/>
</g>
<path d="M12.0291 23.0583C18.1203 23.0583 23.0583 18.1203 23.0583 12.0291C23.0583 5.93791 18.1203 1 12.0291 1C5.93791 1 1 5.93791 1 12.0291C1 18.1203 5.93791 23.0583 12.0291 23.0583Z" stroke="white" stroke-width="1.4173" stroke-miterlimit="10"/>
</svg>
