<svg width="24" height="24" viewBox="0 0 24 24" fill="none" xmlns="http://www.w3.org/2000/svg">
<g clip-path="url(#clip0_422_3409)">
<path fill-rule="evenodd" clip-rule="evenodd" d="M12.0002 1.14233C17.992 1.14233 22.8579 5.99528 22.8579 12C22.8579 18.0047 18.0049 22.8576 12.0002 22.8576C6.00846 22.8576 1.14258 18.0047 1.14258 12C1.14258 5.99528 6.00846 1.14233 12.0002 1.14233Z" fill="white"/>
<path fill-rule="evenodd" clip-rule="evenodd" d="M17.6426 2.55294H12.0391V1C14.0838 1.01294 15.9991 1.56941 17.6426 2.55294Z" fill="#B5171D"/>
<path fill-rule="evenodd" clip-rule="evenodd" d="M12.0391 4.30005H19.8555C20.3732 4.83064 20.8391 5.40005 21.2402 6.02123H12.052V4.30005H12.0391Z" fill="#B01319"/>
<path fill-rule="evenodd" clip-rule="evenodd" d="M12.0391 7.72937H22.1332C22.3661 8.28584 22.5602 8.85525 22.6897 9.45055H12.0391V7.72937Z" fill="#B01319"/>
<path fill-rule="evenodd" clip-rule="evenodd" d="M12.0391 11.2106H22.9614C22.9744 11.4694 22.9873 11.7282 22.9873 12C22.9873 12.3106 22.9744 12.6212 22.9485 12.9317H12.0391V11.2106Z" fill="#B5171D"/>
<path fill-rule="evenodd" clip-rule="evenodd" d="M1.31055 14.6012H22.6894C22.547 15.1965 22.3529 15.7659 22.12 16.3224H1.87996C1.64702 15.7659 1.4529 15.1835 1.31055 14.6012Z" fill="#B5171D"/>
<path fill-rule="evenodd" clip-rule="evenodd" d="M2.78564 18.0177H21.2139C20.8127 18.6389 20.3468 19.2212 19.8162 19.7389H4.18329C3.66564 19.2083 3.19976 18.6389 2.78564 18.0177Z" fill="#B5171D"/>
<path fill-rule="evenodd" clip-rule="evenodd" d="M6.35742 21.447H17.6421C15.9986 22.4306 14.0574 23 11.9998 23C9.94213 23 8.01389 22.4306 6.35742 21.447Z" fill="#B5171D"/>
<path fill-rule="evenodd" clip-rule="evenodd" d="M12.2329 1V12.9318H1.03882C1.01294 12.6212 1 12.3106 1 12C1 5.93059 5.93059 1 12 1C12.0776 1 12.1553 1 12.2329 1Z" fill="#1E2082"/>
<path fill-rule="evenodd" clip-rule="evenodd" d="M8.36362 1.62122L8.45421 1.90592H8.94597L8.55773 2.19063L8.70009 2.64357L8.31185 2.3718L7.92362 2.64357L8.06597 2.19063L7.67773 1.90592L8.15656 1.89298L8.23421 1.66004C8.27303 1.6471 8.32479 1.63416 8.36362 1.62122Z" fill="white"/>
<path fill-rule="evenodd" clip-rule="evenodd" d="M10.8094 1.43994L10.9647 1.89288L11.4435 1.90582L11.0553 2.19053L11.1976 2.64347L10.8094 2.37171L10.4212 2.64347L10.5635 2.19053L10.1753 1.90582L10.6541 1.89288L10.8094 1.43994Z" fill="white"/>
<path fill-rule="evenodd" clip-rule="evenodd" d="M3.65285 4.84351L3.71755 5.06351L3.54932 4.94704C3.58814 4.92115 3.61402 4.88233 3.65285 4.84351Z" fill="white"/>
<path fill-rule="evenodd" clip-rule="evenodd" d="M5.81429 3.85999L5.96959 4.31293L6.44841 4.32587L6.06018 4.61057L6.21547 5.06351L5.81429 4.79175L5.42606 5.06351L5.56841 4.61057L5.18018 4.32587L5.659 4.31293L5.81429 3.85999Z" fill="white"/>
<path fill-rule="evenodd" clip-rule="evenodd" d="M8.31161 3.85999L8.4669 4.31293L8.94573 4.32587L8.55749 4.61057L8.69984 5.06351L8.31161 4.79175L7.91043 5.06351L8.05279 4.61057L7.66455 4.32587L8.15632 4.31293L8.31161 3.85999Z" fill="white"/>
<path fill-rule="evenodd" clip-rule="evenodd" d="M10.8094 3.85999L10.9647 4.31293L11.4435 4.32587L11.0553 4.61057L11.1976 5.06351L10.8094 4.79175L10.4212 5.06351L10.5635 4.61057L10.1753 4.32587L10.6541 4.31293L10.8094 3.85999Z" fill="white"/>
<path fill-rule="evenodd" clip-rule="evenodd" d="M3.32919 6.28003L3.48448 6.73297L3.96331 6.74591L3.57507 7.03062L3.71742 7.48356L3.32919 7.21179L2.92801 7.48356L3.07036 7.03062L2.68213 6.74591L3.17389 6.73297L3.32919 6.28003Z" fill="white"/>
<path fill-rule="evenodd" clip-rule="evenodd" d="M5.81429 6.28003L5.96959 6.73297L6.44841 6.74591L6.06018 7.03062L6.21547 7.48356L5.81429 7.21179L5.42606 7.48356L5.56841 7.03062L5.18018 6.74591L5.659 6.73297L5.81429 6.28003Z" fill="white"/>
<path fill-rule="evenodd" clip-rule="evenodd" d="M8.31161 6.28003L8.4669 6.73297L8.94573 6.74591L8.55749 7.03062L8.69984 7.48356L8.31161 7.21179L7.91043 7.48356L8.05279 7.03062L7.66455 6.74591L8.15632 6.73297L8.31161 6.28003Z" fill="white"/>
<path fill-rule="evenodd" clip-rule="evenodd" d="M10.8094 6.28003L10.9647 6.73297L11.4435 6.74591L11.0553 7.03062L11.1976 7.48356L10.8094 7.21179L10.4212 7.48356L10.5635 7.03062L10.1753 6.74591L10.6541 6.73297L10.8094 6.28003Z" fill="white"/>
<path fill-rule="evenodd" clip-rule="evenodd" d="M1.37527 9.14001H1.45291L1.34938 9.21766C1.36233 9.19178 1.37527 9.1659 1.37527 9.14001Z" fill="white"/>
<path fill-rule="evenodd" clip-rule="evenodd" d="M3.32919 8.67407L3.48448 9.12701L3.96331 9.13995L3.57507 9.42466L3.71742 9.8776L3.32919 9.60584L2.92801 9.8776L3.07036 9.42466L2.68213 9.13995L3.17389 9.12701L3.32919 8.67407Z" fill="white"/>
<path fill-rule="evenodd" clip-rule="evenodd" d="M5.81429 8.67407L5.96959 9.12701L6.44841 9.13995L6.06018 9.42466L6.21547 9.8776L5.81429 9.60584L5.42606 9.8776L5.56841 9.42466L5.18018 9.13995L5.659 9.12701L5.81429 8.67407Z" fill="white"/>
<path fill-rule="evenodd" clip-rule="evenodd" d="M8.31161 8.67407L8.4669 9.12701L8.94573 9.13995L8.55749 9.42466L8.69984 9.8776L8.31161 9.60584L7.91043 9.8776L8.05279 9.42466L7.66455 9.13995L8.15632 9.12701L8.31161 8.67407Z" fill="white"/>
<path fill-rule="evenodd" clip-rule="evenodd" d="M10.8094 8.67407L10.9647 9.12701L11.4435 9.13995L11.0553 9.42466L11.1976 9.8776L10.8094 9.60584L10.4212 9.8776L10.5635 9.42466L10.1753 9.13995L10.6541 9.12701L10.8094 8.67407Z" fill="white"/>
<path fill-rule="evenodd" clip-rule="evenodd" d="M1.01294 11.573H1.46588L1.07765 11.8577L1.22 12.3106L1 12.1812C1 12.1165 1 12.0648 1 12.0001C1 11.8577 1 11.7154 1.01294 11.573Z" fill="white"/>
<path fill-rule="evenodd" clip-rule="evenodd" d="M3.32919 11.12L3.48448 11.5729L3.96331 11.5859L3.57507 11.8706L3.71742 12.3235L3.32919 12.0518L2.92801 12.3235L3.07036 11.8706L2.68213 11.5859L3.17389 11.5729L3.32919 11.12Z" fill="white"/>
<path fill-rule="evenodd" clip-rule="evenodd" d="M5.81429 11.12L5.96959 11.5729L6.44841 11.5859L6.06018 11.8706L6.21547 12.3235L5.81429 12.0518L5.42606 12.3235L5.56841 11.8706L5.18018 11.5859L5.659 11.5729L5.81429 11.12Z" fill="white"/>
<path fill-rule="evenodd" clip-rule="evenodd" d="M8.31161 11.12L8.4669 11.5729L8.94573 11.5859L8.55749 11.8706L8.69984 12.3235L8.31161 12.0518L7.91043 12.3235L8.05279 11.8706L7.66455 11.5859L8.15632 11.5729L8.31161 11.12Z" fill="white"/>
<path fill-rule="evenodd" clip-rule="evenodd" d="M10.8094 11.12L10.9647 11.5729L11.4435 11.5859L11.0553 11.8706L11.1976 12.3235L10.8094 12.0518L10.4212 12.3235L10.5635 11.8706L10.1753 11.5859L10.6541 11.5729L10.8094 11.12Z" fill="white"/>
<path fill-rule="evenodd" clip-rule="evenodd" d="M4.89528 3.6012L4.97293 3.84708L4.77881 3.70473C4.81763 3.6659 4.85646 3.64002 4.89528 3.6012Z" fill="white"/>
<path fill-rule="evenodd" clip-rule="evenodd" d="M7.06918 2.64355L7.22447 3.0965H7.70329L7.31506 3.3812L7.45741 3.84708L7.06918 3.56238L6.68094 3.84708L6.82329 3.3812L6.43506 3.0965H6.91388L7.06918 2.64355Z" fill="white"/>
<path fill-rule="evenodd" clip-rule="evenodd" d="M9.56698 2.64355L9.72227 3.0965H10.2011L9.81286 3.3812L9.95522 3.84708L9.56698 3.56238L9.1658 3.84708L9.30816 3.3812L8.91992 3.0965H9.41169L9.56698 2.64355Z" fill="white"/>
<path fill-rule="evenodd" clip-rule="evenodd" d="M4.57162 5.06348L4.72691 5.51642H5.21868L4.83044 5.80112L4.97279 6.26701L4.57162 5.9823L4.18338 6.26701L4.32574 5.80112L3.9375 5.51642H4.41632L4.57162 5.06348Z" fill="white"/>
<path fill-rule="evenodd" clip-rule="evenodd" d="M7.06918 5.06348L7.22447 5.51642H7.70329L7.31506 5.80112L7.45741 6.26701L7.06918 5.9823L6.68094 6.26701L6.82329 5.80112L6.43506 5.51642H6.91388L7.06918 5.06348Z" fill="white"/>
<path fill-rule="evenodd" clip-rule="evenodd" d="M9.56698 5.06348L9.72227 5.51642H10.2011L9.81286 5.80112L9.95522 6.26701L9.56698 5.9823L9.1658 6.26701L9.30816 5.80112L8.91992 5.51642H9.41169L9.56698 5.06348Z" fill="white"/>
<path fill-rule="evenodd" clip-rule="evenodd" d="M2.07427 7.48352L2.22956 7.93646L2.70839 7.9494L2.32015 8.23411L2.46251 8.68705L2.07427 8.41529L1.68604 8.68705L1.82839 8.23411L1.69898 8.14352C1.72486 8.07881 1.75074 8.01411 1.77662 7.9494H1.91898L2.07427 7.48352Z" fill="white"/>
<path fill-rule="evenodd" clip-rule="evenodd" d="M4.57162 7.48352L4.72691 7.93646H5.21868L4.83044 8.22117L4.97279 8.68705L4.57162 8.40234L4.18338 8.68705L4.32574 8.22117L3.9375 7.93646H4.41632L4.57162 7.48352Z" fill="white"/>
<path fill-rule="evenodd" clip-rule="evenodd" d="M7.06918 7.48352L7.22447 7.93646H7.70329L7.31506 8.22117L7.45741 8.68705L7.06918 8.40234L6.68094 8.68705L6.82329 8.22117L6.43506 7.93646H6.91388L7.06918 7.48352Z" fill="white"/>
<path fill-rule="evenodd" clip-rule="evenodd" d="M9.56698 7.48352L9.72227 7.93646H10.2011L9.81286 8.22117L9.95522 8.68705L9.56698 8.40234L9.1658 8.68705L9.30816 8.22117L8.91992 7.93646H9.41169L9.56698 7.48352Z" fill="white"/>
<path fill-rule="evenodd" clip-rule="evenodd" d="M2.07406 9.87769L2.22935 10.3306H2.70818L2.31994 10.6153L2.47524 11.0812L2.07406 10.7965L1.68582 11.0812L1.82818 10.6153L1.43994 10.3306H1.91876L2.07406 9.87769Z" fill="white"/>
<path fill-rule="evenodd" clip-rule="evenodd" d="M4.57162 9.87769L4.72691 10.3306H5.21868L4.83044 10.6153L4.97279 11.0812L4.57162 10.7965L4.18338 11.0812L4.32574 10.6153L3.9375 10.3306H4.41632L4.57162 9.87769Z" fill="white"/>
<path fill-rule="evenodd" clip-rule="evenodd" d="M7.06918 9.87769L7.22447 10.3306H7.70329L7.31506 10.6153L7.45741 11.0812L7.06918 10.7965L6.68094 11.0812L6.82329 10.6153L6.43506 10.3306H6.91388L7.06918 9.87769Z" fill="white"/>
<path fill-rule="evenodd" clip-rule="evenodd" d="M9.56698 9.87769L9.72227 10.3306H10.2011L9.81286 10.6153L9.95522 11.0812L9.56698 10.7965L9.1658 11.0812L9.30816 10.6153L8.91992 10.3306H9.41169L9.56698 9.87769Z" fill="white"/>
</g>
<path d="M12.0291 23.0583C18.1203 23.0583 23.0583 18.1203 23.0583 12.0291C23.0583 5.93791 18.1203 1 12.0291 1C5.93791 1 1 5.93791 1 12.0291C1 18.1203 5.93791 23.0583 12.0291 23.0583Z" stroke="white" stroke-width="1.4173" stroke-miterlimit="10"/>
<defs>
<clipPath id="clip0_422_3409">
<rect width="22" height="22" fill="white" transform="translate(1 1)"/>
</clipPath>
</defs>
</svg>
