<svg width="22" height="25" viewBox="0 0 22 25" fill="none" xmlns="http://www.w3.org/2000/svg">
<path d="M10.9996 0.203392C5.39195 0.203392 0.830078 4.76526 0.830078 10.3729C0.830078 17.9484 10.0432 24.1782 10.4355 24.4394C10.6063 24.5536 10.8029 24.6102 10.9996 24.6102C11.1962 24.6102 11.3928 24.5536 11.5637 24.4394C11.9559 24.1782 21.1691 17.9484 21.1691 10.3729C21.1691 4.76526 16.6067 0.203392 10.9996 0.203392ZM10.9996 22.3429C9.07044 20.9118 2.86398 15.8777 2.86398 10.3729C2.86398 5.88698 6.51367 2.23729 10.9996 2.23729C15.4855 2.23729 19.1352 5.88698 19.1352 10.3729C19.1352 15.8777 12.9292 20.9118 10.9996 22.3429ZM10.9996 6.30509C8.75662 6.30509 6.93177 8.12993 6.93177 10.3729C6.93177 12.6163 8.75662 14.4407 10.9996 14.4407C13.243 14.4407 15.0674 12.6163 15.0674 10.3729C15.0674 8.12993 13.243 6.30509 10.9996 6.30509ZM10.9996 12.4068C9.87785 12.4068 8.96567 11.4946 8.96567 10.3729C8.96567 9.25116 9.87785 8.33898 10.9996 8.33898C12.1208 8.33898 13.0335 9.25116 13.0335 10.3729C13.0335 11.4946 12.1208 12.4068 10.9996 12.4068Z" fill="currentColor"/>
</svg>
