<svg width="18" height="24" viewBox="0 0 18 24" fill="none" xmlns="http://www.w3.org/2000/svg">
<path d="M9.04348 0C4 0 0 3.98587 0 8.90459C0 11.7032 1.3913 15.0106 4.26087 18.8269C6.34783 21.6254 8.34783 23.6608 8.43478 23.7456C8.6087 23.9152 8.78261 24 9.04348 24C9.21739 24 9.47826 23.9152 9.56522 23.7456C9.65217 23.6608 11.6522 21.7102 13.7391 18.9965C16.5217 15.1802 18 11.788 18 8.90459C18 3.98587 14 0 9.04348 0ZM9.04348 22.1343C7.21739 20.1837 1.65217 13.9081 1.65217 8.9894C1.65217 4.91873 4.95652 1.61131 9.04348 1.61131C13.1304 1.61131 16.4348 4.91873 16.4348 8.9894C16.4348 14.1625 10.8696 20.2686 9.04348 22.1343Z" fill="#0047AB"/>
<path d="M9.04342 4.2403C6.60864 4.2403 4.60864 6.10602 4.60864 8.48058C4.60864 10.8551 6.60864 12.8057 9.04342 12.8057C11.4782 12.8057 13.4782 10.8551 13.4782 8.48058C13.4782 6.10602 11.4782 4.2403 9.04342 4.2403ZM9.04342 11.2792C7.47821 11.2792 6.26082 10.0919 6.26082 8.56538C6.26082 7.03888 7.47821 5.8516 9.04342 5.8516C10.6086 5.8516 11.826 7.03888 11.826 8.56538C11.826 10.0919 10.5217 11.2792 9.04342 11.2792Z" fill="#0047AB"/>
</svg>
