<svg width="173" height="78" viewBox="0 0 173 78" fill="none" xmlns="http://www.w3.org/2000/svg">
<path d="M84.9966 77.599H83.7687L84.6589 75.0206H86.1016L84.9966 77.599Z" fill="white"/>
<path d="M8.34925 46.3813C8.04229 45.9822 7.64324 45.6753 7.18281 45.4604C6.72237 45.2455 6.23124 45.1534 5.70941 45.1534C5.0955 45.1534 4.54297 45.2762 4.02114 45.4911C3.53001 45.7059 3.10027 46.0436 2.73192 46.4426C2.36357 46.8417 2.08731 47.3021 1.90314 47.8546C1.71896 48.3765 1.59618 48.9597 1.59618 49.5736C1.59618 50.1568 1.68827 50.6787 1.87244 51.2005C2.05662 51.7223 2.33288 52.1521 2.67053 52.5511C3.00818 52.9501 3.43792 53.2571 3.95975 53.472C4.48158 53.6868 5.0341 53.8096 5.67872 53.8096C6.29263 53.8096 6.84515 53.6868 7.33629 53.4413C7.79672 53.1957 8.22646 52.8274 8.53342 52.3669L9.79195 53.2878C9.69986 53.4106 9.57708 53.5641 9.36221 53.7789C9.14734 53.9938 8.87107 54.2087 8.53342 54.3928C8.19577 54.6077 7.79672 54.7919 7.30559 54.9454C6.81446 55.0988 6.26193 55.1909 5.64802 55.1909C4.78854 55.1909 3.99045 55.0375 3.31514 54.6998C2.60914 54.3621 2.02592 53.9324 1.53479 53.4106C1.04366 52.8888 0.675307 52.2748 0.399045 51.5995C0.153479 50.9242 0 50.2489 0 49.5736C0 48.7448 0.153479 47.9774 0.429741 47.2714C0.706002 46.5654 1.10505 45.9515 1.59618 45.4297C2.08731 44.9079 2.70123 44.5088 3.40723 44.2326C4.11323 43.9563 4.88063 43.8028 5.74011 43.8028C6.44611 43.8028 7.18281 43.9256 7.85811 44.2019C8.56412 44.4781 9.11664 44.9079 9.57708 45.4604L8.34925 46.3813Z" fill="white"/>
<path d="M12.3089 51.7532C12.3089 52.0601 12.3703 52.3671 12.5238 52.6126C12.6773 52.8582 12.8307 53.1038 13.0763 53.2879C13.2912 53.4721 13.5674 53.6256 13.8744 53.7177C14.1813 53.8098 14.4883 53.8712 14.7953 53.8712C15.225 53.8712 15.5934 53.7791 15.931 53.5642C16.238 53.38 16.5449 53.1038 16.8212 52.7661L17.8648 53.5642C17.0974 54.5465 16.0231 55.0376 14.6111 55.0376C14.0279 55.0376 13.506 54.9455 13.0456 54.7613C12.5852 54.5772 12.1861 54.3009 11.8485 53.9633C11.5108 53.6256 11.2653 53.2266 11.1118 52.7661C10.9276 52.3057 10.8355 51.8146 10.8355 51.262C10.8355 50.7095 10.9276 50.2184 11.1118 49.7579C11.2959 49.2975 11.5722 48.8985 11.9099 48.5608C12.2475 48.2231 12.6466 47.9469 13.107 47.7627C13.5674 47.5785 14.0893 47.4865 14.6111 47.4865C15.2557 47.4865 15.8082 47.6092 16.2687 47.8241C16.7291 48.039 17.0974 48.3459 17.3737 48.7143C17.65 49.0826 17.8648 49.4817 17.9876 49.9421C18.1104 50.4025 18.1718 50.863 18.1718 51.3234V51.8146H12.3089V51.7532ZM16.6984 50.6481C16.6984 50.3412 16.637 50.0649 16.5449 49.8193C16.4528 49.5738 16.3301 49.3282 16.1459 49.144C15.9617 48.9599 15.7468 48.8064 15.5013 48.7143C15.225 48.6222 14.918 48.5608 14.5804 48.5608C14.2427 48.5608 13.9358 48.6222 13.6595 48.745C13.3833 48.8678 13.1377 49.0519 12.9535 49.2361C12.7693 49.451 12.6159 49.6658 12.4931 49.9114C12.3703 50.157 12.3396 50.4025 12.3396 50.6481H16.6984Z" fill="white"/>
<path d="M19.86 47.609H21.2414V48.714H21.2721C21.4562 48.315 21.7632 48.008 22.1929 47.7624C22.6227 47.5169 23.1138 47.3941 23.697 47.3941C24.0347 47.3941 24.3723 47.4555 24.71 47.5476C25.0476 47.6396 25.3239 47.8238 25.5695 48.0387C25.815 48.2536 25.9992 48.5605 26.1527 48.8982C26.3062 49.2358 26.3675 49.6656 26.3675 50.1567V54.8225H24.9862V50.5557C24.9862 50.2181 24.9248 49.9418 24.8328 49.6963C24.7407 49.4507 24.6179 49.2665 24.4644 49.113C24.3109 48.9596 24.1268 48.8675 23.9426 48.8061C23.7277 48.7447 23.5435 48.714 23.3287 48.714C23.0524 48.714 22.7761 48.7447 22.5306 48.8368C22.285 48.9289 22.0701 49.0823 21.886 49.2665C21.7018 49.4507 21.5483 49.727 21.4562 50.0339C21.3641 50.3409 21.3027 50.7092 21.3027 51.1083V54.8531H19.9214V47.609H19.86Z" fill="white"/>
<path d="M30.3889 48.8062V52.0906C30.3889 52.3055 30.3889 52.4897 30.4196 52.7045C30.4196 52.8887 30.481 53.0729 30.5423 53.2263C30.6037 53.3798 30.7265 53.5026 30.8493 53.5947C31.0028 53.6868 31.187 53.7482 31.4632 53.7482C31.6167 53.7482 31.8009 53.7482 31.985 53.7175C32.1692 53.6868 32.3227 53.6254 32.4762 53.564V54.8225C32.3227 54.9146 32.1078 54.976 31.8316 55.0067C31.5553 55.0374 31.3711 55.0681 31.2177 55.0681C30.6958 55.0681 30.2661 55.0067 29.9591 54.8532C29.6522 54.6997 29.4373 54.5156 29.3145 54.27C29.161 54.0244 29.0996 53.7789 29.0689 53.4719C29.0383 53.1957 29.0383 52.8887 29.0383 52.5817V48.8062H27.4421V47.609H29.0383V45.5831H30.4196V47.609H32.4148V48.8062H30.3889Z" fill="white"/>
<path d="M35.5765 47.6089V48.714H35.6072C35.6992 48.5298 35.822 48.3456 35.9755 48.1922C36.129 48.0387 36.3132 47.8852 36.4973 47.7931C36.6815 47.6703 36.8964 47.5782 37.1113 47.5168C37.3261 47.4555 37.5717 47.4248 37.7866 47.4248C38.0014 47.4248 38.2163 47.4555 38.4005 47.5168L38.3391 48.9902C38.2163 48.9595 38.1242 48.9289 38.0014 48.8982C37.8786 48.8675 37.7866 48.8675 37.6638 48.8675C36.9885 48.8675 36.4666 49.0516 36.0983 49.42C35.7299 49.7883 35.5458 50.3716 35.5458 51.1696V54.8224H34.1645V47.6089H35.5765Z" fill="white"/>
<path d="M46.412 54.8534H45.0307V53.7483H45C44.8158 54.1474 44.5088 54.4543 44.0791 54.6999C43.6494 54.9454 43.1582 55.0682 42.575 55.0682C42.2067 55.0682 41.869 55.0068 41.562 54.9147C41.2551 54.8227 40.9481 54.6385 40.7333 54.4236C40.4877 54.2087 40.3035 53.9018 40.15 53.5641C39.9966 53.2265 39.9352 52.7967 39.9352 52.3056V47.6399H41.3165V51.9066C41.3165 52.2442 41.3779 52.5205 41.47 52.766C41.562 53.0116 41.6848 53.1958 41.8383 53.3493C41.9918 53.5027 42.176 53.5948 42.3601 53.6562C42.575 53.7176 42.7592 53.7483 42.9741 53.7483C43.2503 53.7483 43.5266 53.7176 43.7721 53.6255C44.0177 53.5334 44.2326 53.38 44.4168 53.1958C44.6009 53.0116 44.7544 52.7353 44.8465 52.4284C44.9386 52.1214 45 51.7531 45 51.354V47.6092H46.3813V54.8534H46.412Z" fill="white"/>
<path d="M48.6219 43.3116H50.0032V54.8839H48.6219V43.3116Z" fill="white"/>
<path d="M56.8792 44.0482H58.3526V54.8838H56.8792V44.0482Z" fill="white"/>
<path d="M60.8082 47.609H62.1896V48.714H62.2203C62.4044 48.315 62.7114 48.008 63.1411 47.7624C63.5709 47.5169 64.062 47.3941 64.6452 47.3941C64.9829 47.3941 65.3205 47.4555 65.6582 47.5476C65.9958 47.6396 66.2721 47.8238 66.5177 48.0387C66.7632 48.2536 66.9474 48.5605 67.1009 48.8982C67.2544 49.2358 67.3158 49.6656 67.3158 50.1567V54.8225H65.9344V50.5557C65.9344 50.2181 65.873 49.9418 65.781 49.6963C65.6889 49.4507 65.5661 49.2665 65.4126 49.113C65.2591 48.9596 65.075 48.8675 64.8908 48.8061C64.6759 48.7447 64.4917 48.714 64.2769 48.714C64.0006 48.714 63.7243 48.7447 63.4788 48.8368C63.2332 48.9289 63.0183 49.0823 62.8342 49.2665C62.65 49.4507 62.4965 49.727 62.4044 50.0339C62.3123 50.3409 62.2509 50.7092 62.2509 51.1083V54.8531H60.8696V47.609H60.8082Z" fill="white"/>
<path d="M71.3371 48.8062V52.0906C71.3371 52.3055 71.3371 52.4897 71.3678 52.7045C71.3678 52.8887 71.4291 53.0729 71.4905 53.2263C71.5519 53.3798 71.6747 53.5026 71.7975 53.5947C71.951 53.6868 72.1352 53.7482 72.4114 53.7482C72.5649 53.7482 72.7491 53.7482 72.9332 53.7175C73.1174 53.6868 73.2709 53.6254 73.4244 53.564V54.8225C73.2709 54.9146 73.056 54.976 72.7798 55.0067C72.5035 55.0374 72.3193 55.0681 72.1658 55.0681C71.644 55.0681 71.2143 55.0067 70.9073 54.8532C70.6004 54.6997 70.3855 54.5156 70.2627 54.27C70.1092 54.0244 70.0478 53.7789 70.0171 53.4719C69.9865 53.1957 69.9865 52.8887 69.9865 52.5817V48.8062H68.3903V47.609H69.9865V45.5831H71.3678V47.609H73.363V48.8062H71.3371Z" fill="white"/>
<path d="M76.1869 51.7532C76.1869 52.0601 76.2483 52.3671 76.4018 52.6126C76.5553 52.8582 76.7087 53.1038 76.9543 53.2879C77.1692 53.4721 77.4454 53.6256 77.7524 53.7177C78.0594 53.8098 78.3663 53.8712 78.6733 53.8712C79.103 53.8712 79.4714 53.7791 79.809 53.5642C80.116 53.38 80.4229 53.1038 80.6992 52.7661L81.7428 53.5642C80.9754 54.5465 79.9011 55.0376 78.4891 55.0376C77.9059 55.0376 77.384 54.9455 76.9236 54.7613C76.4632 54.5772 76.0641 54.3009 75.7265 53.9633C75.3888 53.6256 75.1433 53.2266 74.9898 52.7661C74.8056 52.3057 74.7135 51.8146 74.7135 51.262C74.7135 50.7095 74.8056 50.2184 74.9898 49.7579C75.174 49.2975 75.4502 48.8985 75.7879 48.5608C76.1255 48.2231 76.5246 47.9469 76.985 47.7627C77.4454 47.5785 77.9673 47.4865 78.4891 47.4865C79.1337 47.4865 79.6862 47.6092 80.1467 47.8241C80.6071 48.039 80.9754 48.3459 81.2517 48.7143C81.528 49.0826 81.7429 49.4817 81.8656 49.9421C81.9884 50.4025 82.0498 50.863 82.0498 51.3234V51.8146H76.1869V51.7532ZM80.5764 50.6481C80.5764 50.3412 80.515 50.0649 80.4229 49.8193C80.3308 49.5738 80.2081 49.3282 80.0239 49.144C79.8397 48.9599 79.6248 48.8064 79.3793 48.7143C79.103 48.6222 78.7961 48.5608 78.4584 48.5608C78.1207 48.5608 77.8138 48.6222 77.5375 48.745C77.2613 48.8678 77.0157 49.0519 76.8315 49.2361C76.6474 49.451 76.4939 49.6658 76.3711 49.9114C76.2483 50.157 76.2176 50.4025 76.2176 50.6481H80.5764Z" fill="white"/>
<path d="M85.1194 47.6089V48.714H85.1501C85.2422 48.5298 85.3649 48.3456 85.5184 48.1922C85.6719 48.0387 85.8561 47.8852 86.0403 47.7931C86.2244 47.6703 86.4393 47.5782 86.6542 47.5168C86.869 47.4555 87.1146 47.4248 87.3295 47.4248C87.5443 47.4248 87.7592 47.4555 87.9434 47.5168L87.882 48.9902C87.7592 48.9595 87.6671 48.9289 87.5443 48.8982C87.4216 48.8675 87.3295 48.8675 87.2067 48.8675C86.5314 48.8675 86.0096 49.0516 85.6412 49.42C85.2729 49.7883 85.0887 50.3716 85.0887 51.1696V54.8224H83.7074V47.6089H85.1194Z" fill="white"/>
<path d="M89.4474 47.609H90.8287V48.714H90.8594C91.0436 48.315 91.3505 48.008 91.7803 47.7624C92.21 47.5169 92.7012 47.3941 93.2844 47.3941C93.622 47.3941 93.9597 47.4555 94.2973 47.5476C94.635 47.6396 94.9112 47.8238 95.1568 48.0387C95.4024 48.2536 95.5866 48.5605 95.74 48.8982C95.8935 49.2358 95.9549 49.6656 95.9549 50.1567V54.8225H94.5736V50.5557C94.5736 50.2181 94.5122 49.9418 94.4201 49.6963C94.328 49.4507 94.2053 49.2665 94.0518 49.113C93.8983 48.9596 93.7141 48.8675 93.5299 48.8061C93.3151 48.7447 93.1309 48.714 92.916 48.714C92.6398 48.714 92.3635 48.7447 92.1179 48.8368C91.8724 48.9289 91.6575 49.0823 91.4733 49.2665C91.2891 49.4507 91.1357 49.727 91.0436 50.0339C90.9515 50.3409 90.8901 50.7092 90.8901 51.1083V54.8531H89.5088V47.609H89.4474Z" fill="white"/>
<path d="M98.073 48.4991C98.4721 48.1308 98.9325 47.8852 99.4237 47.701C99.9455 47.5168 100.467 47.4248 100.958 47.4248C101.48 47.4248 101.941 47.4861 102.34 47.6089C102.739 47.7317 103.046 47.9159 103.291 48.1308C103.537 48.3456 103.721 48.6219 103.844 48.8982C103.967 49.1744 104.028 49.4814 104.028 49.819V53.5332C104.028 53.7788 104.028 54.0243 104.059 54.2392C104.059 54.4541 104.089 54.669 104.12 54.8531H102.892C102.862 54.4848 102.831 54.1164 102.831 53.7481H102.8C102.493 54.2085 102.125 54.5462 101.695 54.7303C101.265 54.9145 100.774 55.0066 100.222 55.0066C99.8841 55.0066 99.5464 54.9452 99.2395 54.8531C98.9325 54.761 98.6563 54.6383 98.4414 54.4541C98.1958 54.2699 98.0117 54.055 97.8889 53.7788C97.7661 53.5025 97.674 53.1956 97.674 52.8272C97.674 52.3668 97.7661 51.9677 97.9809 51.6608C98.1958 51.3538 98.4721 51.0776 98.8404 50.8934C99.2088 50.7092 99.6385 50.5557 100.13 50.4636C100.621 50.3715 101.143 50.3409 101.695 50.3409H102.708V50.0339C102.708 49.8497 102.677 49.6655 102.585 49.4814C102.524 49.2972 102.401 49.1437 102.248 48.9902C102.094 48.8368 101.91 48.714 101.695 48.6526C101.48 48.5605 101.235 48.5298 100.928 48.5298C100.651 48.5298 100.437 48.5605 100.222 48.5912C100.007 48.6526 99.8227 48.714 99.6692 48.7754C99.5157 48.8368 99.3623 48.9288 99.2088 49.0516C99.0553 49.1744 98.9325 49.2358 98.8097 49.3279L98.073 48.4991ZM102.002 51.3845C101.664 51.3845 101.327 51.4152 100.989 51.4459C100.651 51.4766 100.345 51.538 100.038 51.6608C99.7613 51.7529 99.5157 51.9063 99.3316 52.0905C99.1474 52.2747 99.0553 52.5203 99.0553 52.7965C99.0553 53.2263 99.2088 53.5025 99.485 53.6867C99.7613 53.8709 100.16 53.963 100.651 53.963C101.02 53.963 101.357 53.9016 101.634 53.7788C101.91 53.656 102.125 53.4718 102.278 53.2876C102.432 53.0728 102.555 52.8579 102.647 52.6123C102.708 52.3668 102.769 52.1212 102.769 51.8756V51.4152H102.002V51.3845Z" fill="white"/>
<path d="M107.988 48.8062V52.0906C107.988 52.3055 107.988 52.4897 108.018 52.7045C108.018 52.8887 108.08 53.0729 108.141 53.2263C108.203 53.3798 108.325 53.5026 108.448 53.5947C108.602 53.6868 108.786 53.7482 109.062 53.7482C109.216 53.7482 109.4 53.7482 109.584 53.7175C109.768 53.6868 109.922 53.6254 110.075 53.564V54.8225C109.922 54.9146 109.707 54.976 109.43 55.0067C109.154 55.0374 108.97 55.0681 108.817 55.0681C108.295 55.0681 107.865 55.0067 107.558 54.8532C107.251 54.6997 107.036 54.5156 106.913 54.27C106.76 54.0244 106.699 53.7789 106.668 53.4719C106.637 53.1957 106.637 52.8887 106.637 52.5817V48.8062H105.041V47.609H106.637V45.5831H108.018V47.609H110.014V48.8062H107.988ZM107.619 58.4446H106.392L107.374 55.5285H108.817L107.619 58.4446Z" fill="white"/>
<path d="M111.579 44.9998C111.579 44.7236 111.671 44.478 111.886 44.2938C112.101 44.1097 112.316 43.9869 112.592 43.9869C112.868 43.9869 113.114 44.079 113.298 44.2938C113.513 44.478 113.605 44.7236 113.605 44.9998C113.605 45.2761 113.513 45.5217 113.298 45.7058C113.083 45.89 112.868 46.0128 112.592 46.0128C112.316 46.0128 112.07 45.9207 111.886 45.7058C111.671 45.5217 111.579 45.2761 111.579 44.9998ZM111.886 47.609H113.267V54.8532H111.886V47.609Z" fill="white"/>
<path d="M115.14 51.231C115.14 50.7092 115.232 50.2181 115.447 49.7576C115.662 49.2972 115.938 48.8982 116.276 48.5605C116.613 48.2228 117.043 47.9466 117.503 47.7317C117.964 47.5475 118.486 47.4248 119.038 47.4248C119.591 47.4248 120.082 47.5168 120.573 47.7317C121.033 47.9159 121.463 48.1921 121.801 48.5605C122.138 48.8982 122.415 49.2972 122.63 49.7576C122.844 50.2181 122.937 50.7092 122.937 51.231C122.937 51.7529 122.844 52.244 122.63 52.7351C122.415 53.1956 122.138 53.5946 121.801 53.9323C121.463 54.2699 121.033 54.5462 120.573 54.7303C120.113 54.9145 119.591 55.0373 119.038 55.0373C118.486 55.0373 117.995 54.9452 117.503 54.7303C117.043 54.5462 116.613 54.2699 116.276 53.9323C115.938 53.5946 115.662 53.1956 115.447 52.7351C115.232 52.2747 115.14 51.7529 115.14 51.231ZM116.613 51.231C116.613 51.5994 116.675 51.937 116.797 52.244C116.92 52.5509 117.074 52.8272 117.289 53.0421C117.503 53.257 117.749 53.4411 118.056 53.5639C118.363 53.6867 118.701 53.7481 119.069 53.7481C119.437 53.7481 119.775 53.6867 120.082 53.5639C120.389 53.4411 120.634 53.257 120.849 53.0421C121.064 52.8272 121.218 52.5509 121.34 52.244C121.463 51.937 121.525 51.5994 121.525 51.231C121.525 50.8627 121.463 50.525 121.34 50.2181C121.218 49.9111 121.064 49.6349 120.849 49.42C120.634 49.2051 120.389 49.0209 120.082 48.8982C119.775 48.7754 119.437 48.714 119.069 48.714C118.701 48.714 118.363 48.7754 118.056 48.8982C117.749 49.0209 117.503 49.2051 117.289 49.42C117.074 49.6349 116.92 49.9111 116.797 50.2181C116.675 50.525 116.613 50.8627 116.613 51.231Z" fill="white"/>
<path d="M124.686 47.609H126.068V48.714H126.098C126.282 48.315 126.589 48.008 127.019 47.7624C127.449 47.5169 127.94 47.3941 128.523 47.3941C128.861 47.3941 129.199 47.4555 129.536 47.5476C129.874 47.6396 130.15 47.8238 130.396 48.0387C130.641 48.2536 130.825 48.5605 130.979 48.8982C131.132 49.2358 131.194 49.6656 131.194 50.1567V54.8225H129.812V50.5557C129.812 50.2181 129.751 49.9418 129.659 49.6963C129.567 49.4507 129.444 49.2665 129.291 49.113C129.137 48.9596 128.953 48.8675 128.769 48.8061C128.554 48.7447 128.37 48.714 128.155 48.714C127.879 48.714 127.602 48.7447 127.357 48.8368C127.111 48.9289 126.896 49.0823 126.712 49.2665C126.528 49.4507 126.375 49.727 126.282 50.0339C126.19 50.3409 126.129 50.7092 126.129 51.1083V54.8531H124.686V47.609Z" fill="white"/>
<path d="M133.312 48.4991C133.711 48.1308 134.171 47.8852 134.662 47.701C135.184 47.5168 135.706 47.4248 136.197 47.4248C136.719 47.4248 137.179 47.4861 137.578 47.6089C137.977 47.7317 138.284 47.9159 138.53 48.1308C138.775 48.3456 138.96 48.6219 139.082 48.8982C139.205 49.1744 139.267 49.4814 139.267 49.819V53.5332C139.267 53.7788 139.267 54.0243 139.297 54.2392C139.297 54.4541 139.328 54.669 139.359 54.8531H138.131C138.1 54.4848 138.069 54.1164 138.069 53.7481H138.039C137.732 54.2085 137.363 54.5462 136.934 54.7303C136.504 54.9145 136.013 55.0066 135.46 55.0066C135.123 55.0066 134.785 54.9452 134.478 54.8531C134.171 54.761 133.895 54.6383 133.68 54.4541C133.434 54.2699 133.25 54.055 133.127 53.7788C133.005 53.5025 132.912 53.1956 132.912 52.8272C132.912 52.3668 133.005 51.9677 133.219 51.6608C133.434 51.3538 133.711 51.0776 134.079 50.8934C134.447 50.7092 134.877 50.5557 135.368 50.4636C135.859 50.3715 136.381 50.3409 136.934 50.3409H137.947V50.0339C137.947 49.8497 137.916 49.6655 137.824 49.4814C137.762 49.2972 137.64 49.1437 137.486 48.9902C137.333 48.8368 137.149 48.714 136.934 48.6526C136.719 48.5605 136.473 48.5298 136.166 48.5298C135.89 48.5298 135.675 48.5605 135.46 48.5912C135.245 48.6526 135.061 48.714 134.908 48.7754C134.754 48.8368 134.601 48.9288 134.447 49.0516C134.294 49.1744 134.171 49.2358 134.048 49.3279L133.312 48.4991ZM137.241 51.3845C136.903 51.3845 136.565 51.4152 136.228 51.4459C135.89 51.4766 135.583 51.538 135.276 51.6608C135 51.7529 134.754 51.9063 134.57 52.0905C134.386 52.2747 134.294 52.5203 134.294 52.7965C134.294 53.2263 134.447 53.5025 134.724 53.6867C135 53.8709 135.399 53.963 135.89 53.963C136.258 53.963 136.596 53.9016 136.872 53.7788C137.149 53.656 137.363 53.4718 137.517 53.2876C137.67 53.0728 137.793 52.8579 137.885 52.6123C137.947 52.3668 138.008 52.1212 138.008 51.8756V51.4152H137.241V51.3845Z" fill="white"/>
<path d="M141.415 43.3116H142.796V54.8839H141.415V43.3116Z" fill="white"/>
<path d="M156.64 54.8532H155.259V53.8096H155.228C154.952 54.2086 154.584 54.4849 154.123 54.6997C153.663 54.9146 153.172 55.0067 152.681 55.0067C152.128 55.0067 151.606 54.9146 151.146 54.7304C150.685 54.5463 150.286 54.27 149.979 53.9323C149.642 53.5947 149.396 53.1957 149.243 52.7352C149.059 52.2748 148.967 51.7836 148.967 51.2311C148.967 50.6786 149.059 50.1875 149.243 49.727C149.427 49.2666 149.673 48.8675 149.979 48.5299C150.317 48.1922 150.685 47.916 151.146 47.7318C151.606 47.5476 152.128 47.4555 152.681 47.4555C153.203 47.4555 153.694 47.5783 154.154 47.7932C154.615 48.0081 154.983 48.315 155.228 48.6834H155.259V43.3423H156.64V54.8532ZM152.865 53.7482C153.233 53.7482 153.571 53.6868 153.878 53.564C154.185 53.4412 154.43 53.257 154.645 53.0422C154.86 52.8273 155.014 52.551 155.136 52.2441C155.259 51.9371 155.321 51.5995 155.321 51.2311C155.321 50.8628 155.259 50.5251 155.136 50.2182C155.014 49.9112 154.86 49.6349 154.645 49.4201C154.43 49.2052 154.185 49.021 153.878 48.8982C153.571 48.7755 153.233 48.7141 152.865 48.7141C152.497 48.7141 152.159 48.7755 151.852 48.8982C151.545 49.021 151.299 49.2052 151.085 49.4201C150.87 49.6349 150.716 49.9112 150.593 50.2182C150.471 50.5251 150.409 50.8628 150.409 51.2311C150.409 51.5995 150.471 51.9371 150.593 52.2441C150.716 52.551 150.87 52.8273 151.085 53.0422C151.299 53.257 151.545 53.4412 151.852 53.564C152.159 53.6868 152.466 53.7482 152.865 53.7482Z" fill="white"/>
<path d="M159.802 51.7532C159.802 52.0601 159.864 52.3671 160.017 52.6126C160.171 52.8582 160.324 53.1038 160.57 53.2879C160.785 53.4721 161.061 53.6256 161.368 53.7177C161.675 53.8098 161.982 53.8712 162.289 53.8712C162.718 53.8712 163.087 53.7791 163.424 53.5642C163.731 53.38 164.038 53.1038 164.315 52.7661L165.358 53.5642C164.591 54.5465 163.516 55.0376 162.104 55.0376C161.521 55.0376 160.999 54.9455 160.539 54.7613C160.079 54.5772 159.679 54.3009 159.342 53.9633C159.004 53.6256 158.759 53.2266 158.605 52.7661C158.421 52.3057 158.329 51.8146 158.329 51.262C158.329 50.7095 158.421 50.2184 158.605 49.7579C158.789 49.2975 159.066 48.8985 159.403 48.5608C159.741 48.2231 160.14 47.9469 160.6 47.7627C161.061 47.5785 161.583 47.4865 162.104 47.4865C162.749 47.4865 163.302 47.6092 163.762 47.8241C164.222 48.039 164.591 48.3459 164.867 48.7143C165.143 49.0826 165.358 49.4817 165.481 49.9421C165.604 50.4025 165.665 50.863 165.665 51.3234V51.8146H159.802V51.7532ZM164.192 50.6481C164.192 50.3412 164.13 50.0649 164.038 49.8193C163.946 49.5738 163.823 49.3282 163.639 49.144C163.455 48.9599 163.24 48.8064 162.995 48.7143C162.718 48.6222 162.411 48.5608 162.074 48.5608C161.736 48.5608 161.429 48.6222 161.153 48.745C160.877 48.8678 160.631 49.0519 160.447 49.2361C160.263 49.451 160.109 49.6658 159.986 49.9114C159.864 50.157 159.833 50.4025 159.833 50.6481H164.192Z" fill="white"/>
<path d="M8.34921 65.9039C8.04225 65.5048 7.64321 65.1979 7.18277 64.983C6.72233 64.7681 6.2312 64.676 5.70937 64.676C5.09546 64.676 4.54293 64.7988 4.02111 65.0137C3.52998 65.2286 3.10023 65.5662 2.73189 65.9653C2.36354 66.3643 2.08727 66.8247 1.9031 67.3773C1.71893 67.8991 1.59614 68.4823 1.59614 69.0962C1.59614 69.6794 1.68823 70.2013 1.8724 70.7231C2.05658 71.2449 2.33284 71.6747 2.67049 72.0737C3.00815 72.4728 3.43789 72.7797 3.95972 72.9946C4.45085 73.2094 5.03407 73.3322 5.67868 73.3322C6.29259 73.3322 6.84512 73.2095 7.33625 72.9639C7.79669 72.7183 8.22643 72.35 8.53338 71.8895L9.79191 72.8104C9.69982 72.9332 9.57704 73.0867 9.36217 73.3015C9.1473 73.5164 8.87104 73.7313 8.53338 73.9155C8.19573 74.1303 7.79669 74.3145 7.30555 74.468C6.81442 74.6215 6.2619 74.7135 5.64798 74.7135C4.7885 74.7135 3.99041 74.5601 3.31511 74.2224C2.6091 73.8848 2.02588 73.455 1.53475 72.9332C1.04362 72.4114 0.67527 71.7974 0.399008 71.1221C0.184138 70.4468 0.0613547 69.7715 0.0613547 69.0655C0.0613547 68.2367 0.214833 67.4693 0.491095 66.7633C0.767357 66.0573 1.1664 65.4434 1.65753 64.9216C2.14867 64.3998 2.76258 64.0007 3.46858 63.7245C4.17459 63.4482 4.94198 63.2947 5.80146 63.2947C6.50746 63.2947 7.24416 63.4175 7.91947 63.6938C8.62547 63.97 9.178 64.3998 9.63843 64.9523L8.34921 65.9039Z" fill="white"/>
<path d="M10.9275 70.7843C10.9275 70.2625 11.0196 69.7713 11.2345 69.3109C11.4494 68.8505 11.7256 68.4514 12.0633 68.1138C12.4009 67.7761 12.8307 67.4999 13.2911 67.285C13.7516 67.1008 14.2734 66.978 14.8259 66.978C15.3784 66.978 15.8696 67.0701 16.3607 67.285C16.8211 67.4692 17.2509 67.7454 17.5885 68.1138C17.9262 68.4514 18.2024 68.8505 18.4173 69.3109C18.6322 69.7713 18.7243 70.2625 18.7243 70.7843C18.7243 71.3061 18.6322 71.7973 18.4173 72.2884C18.2024 72.7488 17.9262 73.1479 17.5885 73.4855C17.2509 73.8232 16.8211 74.0994 16.3607 74.2836C15.9003 74.4678 15.3784 74.5906 14.8259 74.5906C14.2734 74.5906 13.7822 74.4985 13.2911 74.2836C12.8307 74.0994 12.4009 73.8232 12.0633 73.4855C11.7256 73.1479 11.4494 72.7488 11.2345 72.2884C11.0196 71.7973 10.9275 71.3061 10.9275 70.7843ZM12.4009 70.7843C12.4009 71.1527 12.4623 71.4903 12.5851 71.7973C12.7079 72.1042 12.8614 72.3805 13.0762 72.5954C13.2911 72.8102 13.5367 72.9944 13.8436 73.1172C14.1506 73.24 14.4883 73.3014 14.8566 73.3014C15.2249 73.3014 15.5626 73.24 15.8696 73.1172C16.1765 72.9944 16.4221 72.8102 16.637 72.5954C16.8518 72.3805 17.0053 72.1042 17.1281 71.7973C17.2509 71.4903 17.3123 71.1527 17.3123 70.7843C17.3123 70.416 17.2509 70.0783 17.1281 69.7713C17.0053 69.4644 16.8518 69.1881 16.637 68.9733C16.4221 68.7584 16.1765 68.5742 15.8696 68.4514C15.5626 68.3286 15.2249 68.2673 14.8566 68.2673C14.4883 68.2673 14.1506 68.3286 13.8436 68.4514C13.5367 68.5742 13.2911 68.7584 13.0762 68.9733C12.8614 69.1881 12.7079 69.4644 12.5851 69.7713C12.4623 70.0783 12.4009 70.416 12.4009 70.7843Z" fill="white"/>
<path d="M20.5663 62.8342H21.9476V74.4065H20.5663V62.8342Z" fill="white"/>
<path d="M24.1882 68.0524C24.5872 67.684 25.0476 67.4385 25.5388 67.2543C26.0606 67.0701 26.5824 66.978 27.0736 66.978C27.5954 66.978 28.0558 67.0394 28.4549 67.1622C28.8539 67.285 29.1609 67.4692 29.4064 67.684C29.652 67.8989 29.8362 68.1752 29.959 68.4514C30.0817 68.7277 30.1431 69.0346 30.1431 69.3723V73.0865C30.1431 73.3321 30.1431 73.5776 30.1738 73.7925C30.1738 74.0074 30.2045 74.2222 30.2352 74.4064H29.0074C28.9767 74.0381 28.946 73.6697 28.946 73.3014H28.9153C28.6083 73.7618 28.24 74.0994 27.8103 74.2836C27.3805 74.4678 26.8894 74.5599 26.3369 74.5599C25.9992 74.5599 25.6615 74.4985 25.3546 74.4064C25.0476 74.3143 24.7714 74.1915 24.5565 74.0074C24.3109 73.8232 24.1268 73.6083 24.004 73.332C23.8812 73.0558 23.7891 72.7488 23.7891 72.3805C23.7891 71.9201 23.8812 71.521 24.0961 71.214C24.3109 70.9071 24.5872 70.6308 24.9555 70.4466C25.3239 70.2625 25.7536 70.109 26.2448 70.0169C26.7359 69.9248 27.2577 69.8941 27.8103 69.8941H28.8232V69.5872C28.8232 69.403 28.7925 69.2188 28.7004 69.0346C28.639 68.8505 28.5163 68.697 28.3628 68.5435C28.2093 68.39 28.0251 68.2673 27.8103 68.2059C27.5954 68.1138 27.3498 68.0831 27.0429 68.0831C26.7666 68.0831 26.5517 68.1138 26.3369 68.1445C26.122 68.2059 25.9378 68.2673 25.7843 68.3286C25.6309 68.39 25.4774 68.4821 25.3239 68.6049C25.1704 68.7277 25.0476 68.7891 24.9249 68.8812L24.1882 68.0524ZM28.1172 70.9071C27.7796 70.9071 27.4419 70.9378 27.1042 70.9685C26.7666 70.9992 26.4596 71.0606 26.1527 71.1833C25.8764 71.2754 25.6309 71.4289 25.4467 71.6131C25.2625 71.7973 25.1704 72.0428 25.1704 72.3191C25.1704 72.7488 25.3239 73.0251 25.6002 73.2093C25.8764 73.3934 26.2755 73.4855 26.7666 73.4855C27.1349 73.4855 27.4726 73.4241 27.7489 73.3014C28.0251 73.1786 28.24 72.9944 28.3935 72.8102C28.5469 72.5954 28.6697 72.3805 28.7618 72.1349C28.8232 71.8894 28.8846 71.6438 28.8846 71.3982V70.9071H28.1172Z" fill="white"/>
<path d="M32.1998 62.8342H33.5811V68.1753H33.6118C33.8573 67.8069 34.2257 67.5 34.6861 67.2851C35.1466 67.0702 35.6377 66.9475 36.1595 66.9475C36.712 66.9475 37.2339 67.0396 37.6943 67.2237C38.1547 67.4079 38.5538 67.6842 38.8607 68.0218C39.1984 68.3595 39.444 68.7585 39.5974 69.2189C39.7816 69.6794 39.8737 70.1705 39.8737 70.723C39.8737 71.2756 39.7816 71.7667 39.5974 72.2271C39.4133 72.6876 39.1677 73.0866 38.8607 73.4243C38.5231 73.7619 38.1547 74.0382 37.6943 74.2224C37.2339 74.4065 36.712 74.4986 36.1595 74.4986C35.6684 74.4986 35.1772 74.3758 34.7168 74.1917C34.2564 73.9768 33.888 73.6698 33.6118 73.3015H33.5811V74.3451H32.1998V62.8342ZM36.006 73.3015C36.3744 73.3015 36.712 73.2401 37.019 73.1173C37.326 72.9945 37.5715 72.8103 37.7864 72.5955C38.0013 72.3806 38.1547 72.1043 38.2775 71.7974C38.4003 71.4904 38.4617 71.1528 38.4617 70.7844C38.4617 70.4161 38.4003 70.0784 38.2775 69.7715C38.1547 69.4645 38.0013 69.1882 37.7864 68.9734C37.5715 68.7585 37.326 68.5743 37.019 68.4516C36.712 68.3288 36.3744 68.2674 36.006 68.2674C35.6377 68.2674 35.3 68.3288 34.9931 68.4516C34.6861 68.5743 34.4406 68.7585 34.2257 68.9734C34.0108 69.1882 33.8573 69.4645 33.7345 69.7715C33.6118 70.0784 33.5504 70.4161 33.5504 70.7844C33.5504 71.1528 33.6118 71.4904 33.7345 71.7974C33.8573 72.1043 34.0108 72.3806 34.2257 72.5955C34.4406 72.8103 34.6861 72.9945 34.9931 73.1173C35.3 73.2401 35.6377 73.3015 36.006 73.3015Z" fill="white"/>
<path d="M41.2856 70.7843C41.2856 70.2625 41.3777 69.7713 41.5926 69.3109C41.8075 68.8505 42.0837 68.4514 42.4214 68.1138C42.759 67.7761 43.1888 67.4999 43.6492 67.285C44.1097 67.1008 44.6315 66.978 45.184 66.978C45.7365 66.978 46.2277 67.0701 46.7188 67.285C47.1792 67.4692 47.609 67.7454 47.9466 68.1138C48.2843 68.4514 48.5605 68.8505 48.7754 69.3109C48.9903 69.7713 49.0824 70.2625 49.0824 70.7843C49.0824 71.3061 48.9903 71.7973 48.7754 72.2884C48.5605 72.7488 48.2843 73.1479 47.9466 73.4855C47.609 73.8232 47.1792 74.0994 46.7188 74.2836C46.2584 74.4678 45.7365 74.5906 45.184 74.5906C44.6315 74.5906 44.1404 74.4985 43.6492 74.2836C43.1888 74.0994 42.759 73.8232 42.4214 73.4855C42.0837 73.1479 41.8075 72.7488 41.5926 72.2884C41.3777 71.7973 41.2856 71.3061 41.2856 70.7843ZM42.759 70.7843C42.759 71.1527 42.8204 71.4903 42.9432 71.7973C43.066 72.1042 43.2195 72.3805 43.4343 72.5954C43.6492 72.8102 43.8948 72.9944 44.2017 73.1172C44.5087 73.24 44.8464 73.3014 45.2147 73.3014C45.5831 73.3014 45.9207 73.24 46.2277 73.1172C46.5346 72.9944 46.7802 72.8102 46.9951 72.5954C47.2099 72.3805 47.3634 72.1042 47.4862 71.7973C47.609 71.4903 47.6704 71.1527 47.6704 70.7843C47.6704 70.416 47.609 70.0783 47.4862 69.7713C47.3634 69.4644 47.2099 69.1881 46.9951 68.9733C46.7802 68.7584 46.5346 68.5742 46.2277 68.4514C45.9207 68.3286 45.5831 68.2673 45.2147 68.2673C44.8464 68.2673 44.5087 68.3286 44.2017 68.4514C43.8948 68.5742 43.6492 68.7584 43.4343 68.9733C43.2195 69.1881 43.066 69.4644 42.9432 69.7713C42.8204 70.0783 42.759 70.416 42.759 70.7843Z" fill="white"/>
<path d="M52.2134 67.1622V68.2673H52.2441C52.3361 68.0831 52.4589 67.8989 52.6124 67.7454C52.7659 67.5919 52.9501 67.4385 53.1342 67.3464C53.3184 67.2236 53.5333 67.1315 53.7481 67.0701C53.963 67.0087 54.2086 66.978 54.4235 66.978C54.6383 66.978 54.8532 67.0087 55.0374 67.0701L54.976 68.5435C54.8532 68.5128 54.7611 68.4821 54.6383 68.4514C54.5155 68.4207 54.4235 68.4207 54.3007 68.4207C53.6254 68.4207 53.1035 68.6049 52.7352 68.9733C52.3668 69.3416 52.1827 69.9248 52.1827 70.7229V74.3757H50.8014V67.1622H52.2134Z" fill="white"/>
<path d="M56.5723 68.0524C56.9714 67.684 57.4318 67.4385 57.9229 67.2543C58.4448 67.0701 58.9666 66.978 59.4577 66.978C59.9795 66.978 60.44 67.0394 60.839 67.1622C61.2381 67.285 61.545 67.4692 61.7906 67.684C62.0362 67.8989 62.2203 68.1752 62.3431 68.4514C62.4659 68.7277 62.5273 69.0346 62.5273 69.3723V73.0865C62.5273 73.3321 62.5273 73.5776 62.558 73.7925C62.558 74.0074 62.5887 74.2222 62.6194 74.4064H61.3915C61.3608 74.0381 61.3302 73.6697 61.3302 73.3014H61.2995C60.9925 73.7618 60.6241 74.0994 60.1944 74.2836C59.7647 74.4678 59.2735 74.5599 58.721 74.5599C58.3834 74.5599 58.0457 74.4985 57.7387 74.4064C57.4318 74.3143 57.1555 74.1915 56.9407 74.0074C56.6951 73.8232 56.5109 73.6083 56.3881 73.332C56.2654 73.0558 56.1733 72.7488 56.1733 72.3805C56.1733 71.9201 56.2654 71.521 56.4802 71.214C56.6951 70.9071 56.9714 70.6308 57.3397 70.4466C57.7081 70.2625 58.1378 70.109 58.6289 70.0169C59.1201 69.9248 59.6419 69.8941 60.1944 69.8941H61.2074V69.5872C61.2074 69.403 61.1767 69.2188 61.0846 69.0346C61.0232 68.8505 60.9004 68.697 60.7469 68.5435C60.5935 68.39 60.4093 68.2673 60.1944 68.2059C59.9795 68.1138 59.734 68.0831 59.427 68.0831C59.1508 68.0831 58.9359 68.1138 58.721 68.1445C58.5061 68.2059 58.322 68.2673 58.1685 68.3286C58.015 68.39 57.8615 68.4821 57.7081 68.6049C57.5546 68.7277 57.4318 68.7891 57.309 68.8812L56.5723 68.0524ZM60.5014 70.9071C60.1637 70.9071 59.8261 70.9378 59.4884 70.9685C59.1508 70.9992 58.8438 71.0606 58.5368 71.1833C58.2299 71.3061 58.015 71.4289 57.8308 71.6131C57.6467 71.7973 57.5546 72.0428 57.5546 72.3191C57.5546 72.7488 57.7081 73.0251 57.9843 73.2093C58.2606 73.3934 58.6596 73.4855 59.1508 73.4855C59.5191 73.4855 59.8568 73.4241 60.133 73.3014C60.4093 73.1786 60.6241 72.9944 60.7776 72.8102C60.9311 72.5954 61.0539 72.3805 61.146 72.1349C61.2074 71.8894 61.2688 71.6438 61.2688 71.3982V70.9071H60.5014Z" fill="white"/>
<path d="M65.9346 67.1622V68.2673H65.9653C66.0574 68.0831 66.1801 67.8989 66.3336 67.7454C66.4871 67.5919 66.6713 67.4385 66.8554 67.3464C67.0396 67.2236 67.2545 67.1315 67.4694 67.0701C67.6842 67.0087 67.9298 66.978 68.1447 66.978C68.3595 66.978 68.5744 67.0087 68.7586 67.0701L68.6972 68.5435C68.5744 68.5128 68.4823 68.4821 68.3595 68.4514C68.2368 68.4207 68.1447 68.4207 68.0219 68.4207C67.3466 68.4207 66.8247 68.6049 66.4564 68.9733C66.0881 69.3416 65.9039 69.9248 65.9039 70.7229V74.3757H64.5226V67.1622H65.9346Z" fill="white"/>
<path d="M71.0608 71.2754C71.0608 71.5824 71.1221 71.8893 71.2756 72.1349C71.4291 72.3805 71.5826 72.626 71.8282 72.8102C72.043 72.9944 72.3193 73.1479 72.6262 73.2399C72.9332 73.332 73.2402 73.3934 73.5471 73.3934C73.9769 73.3934 74.3452 73.3013 74.6829 73.0865C74.9898 72.9023 75.2968 72.626 75.573 72.2884L76.6167 73.0865C75.8493 74.0687 74.7749 74.5599 73.3629 74.5599C72.7797 74.5599 72.2579 74.4678 71.7975 74.2836C71.337 74.0994 70.938 73.8232 70.6003 73.4855C70.2627 73.1479 70.0171 72.7488 69.8636 72.2884C69.6795 71.8279 69.5874 71.3368 69.5874 70.7843C69.5874 70.2318 69.6795 69.7406 69.8636 69.2802C70.0478 68.8198 70.3241 68.4207 70.6617 68.0831C70.9994 67.7454 71.3984 67.4691 71.8588 67.285C72.3193 67.1008 72.8411 67.0087 73.3629 67.0087C74.0076 67.0087 74.5601 67.1315 75.0205 67.3464C75.4809 67.5612 75.8493 67.8682 76.1256 68.2365C76.4018 68.6049 76.6167 69.0039 76.7395 69.4644C76.8623 69.9248 76.9236 70.3852 76.9236 70.8457V71.3368H71.0608V71.2754ZM75.4503 70.1704C75.4503 69.8634 75.3889 69.5872 75.2968 69.3416C75.2047 69.096 75.0819 68.8504 74.8977 68.6663C74.7136 68.4821 74.4987 68.3286 74.2531 68.2365C73.9769 68.1444 73.6699 68.0831 73.3322 68.0831C72.9946 68.0831 72.6876 68.1444 72.4114 68.2672C72.1351 68.39 71.8895 68.5742 71.7054 68.7584C71.5212 68.9732 71.3677 69.1881 71.2449 69.4337C71.1222 69.6792 71.0915 69.9248 71.0915 70.1704H75.4503Z" fill="white"/>
<path d="M86.8075 68.9733C86.654 68.7584 86.4392 68.6049 86.1936 68.4514C85.948 68.3287 85.6411 68.2366 85.3034 68.2366C84.9658 68.2366 84.6895 68.298 84.4439 68.4514C84.1984 68.6049 84.0756 68.7891 84.0756 69.0654C84.0756 69.2802 84.137 69.4644 84.2905 69.5872C84.4439 69.71 84.5974 69.8327 84.7816 69.8941C84.9658 69.9862 85.1806 70.0476 85.3955 70.0783C85.6104 70.109 85.7945 70.1397 85.948 70.1704C86.255 70.2318 86.5312 70.3239 86.7768 70.416C87.0531 70.5081 87.2679 70.6615 87.4521 70.815C87.6363 70.9685 87.7898 71.1834 87.9126 71.3982C88.0353 71.6438 88.066 71.9201 88.066 72.2577C88.066 72.6568 87.9739 73.0251 87.7898 73.3014C87.6056 73.5776 87.3907 73.8232 87.1145 74.0074C86.8382 74.1916 86.5312 74.3143 86.1629 74.4064C85.7945 74.4985 85.4569 74.5292 85.0885 74.5292C84.4746 74.5292 83.9528 74.4371 83.4924 74.2529C83.0319 74.0688 82.6329 73.7311 82.2645 73.24L83.3082 72.3805C83.5231 72.5954 83.7993 72.8102 84.0756 72.9637C84.3518 73.1479 84.6895 73.2093 85.0885 73.2093C85.2727 73.2093 85.4569 73.1786 85.6104 73.1479C85.7945 73.1172 85.948 73.0558 86.1015 72.9944C86.255 72.933 86.3471 72.8102 86.4391 72.7181C86.5312 72.5954 86.5619 72.4726 86.5619 72.3191C86.5619 72.1042 86.5005 71.9508 86.3778 71.828C86.255 71.7052 86.1015 71.5824 85.9173 71.521C85.7332 71.4289 85.549 71.3675 85.3341 71.3368C85.1192 71.3061 84.9658 71.2448 84.8123 71.2141C84.5053 71.1527 84.229 71.0606 83.9528 70.9685C83.6765 70.8764 83.4617 70.7536 83.2468 70.6001C83.0319 70.4467 82.8784 70.2625 82.7557 70.0169C82.6329 69.7714 82.5715 69.4951 82.5715 69.1574C82.5715 68.7891 82.6636 68.4514 82.8171 68.1752C82.9705 67.8989 83.1854 67.6534 83.4617 67.4692C83.7379 67.285 84.0142 67.1622 84.3518 67.0701C84.6895 66.978 85.0271 66.9473 85.3648 66.9473C85.8559 66.9473 86.3471 67.0394 86.7768 67.2236C87.2372 67.4078 87.6056 67.7147 87.8512 68.1445L86.8075 68.9733Z" fill="white"/>
<path d="M89.5394 64.5531C89.5394 64.2768 89.6315 64.0313 89.8464 63.8471C90.0613 63.6629 90.2761 63.5401 90.5524 63.5401C90.8287 63.5401 91.0742 63.6322 91.2584 63.8471C91.4733 64.0313 91.5654 64.2768 91.5654 64.5531C91.5654 64.8294 91.4733 65.0749 91.2584 65.2591C91.0435 65.4433 90.8287 65.5661 90.5524 65.5661C90.2761 65.5661 90.0306 65.474 89.8464 65.2591C89.6622 65.0749 89.5394 64.8294 89.5394 64.5531ZM89.8771 67.1622H91.2584V74.4064H89.8771V67.1622Z" fill="white"/>
<path d="M97.8887 63.5708H101.695C102.462 63.5708 103.138 63.6629 103.721 63.8164C104.304 64.0006 104.795 64.2154 105.225 64.5224C105.655 64.7986 106.023 65.1363 106.299 65.5353C106.576 65.9037 106.821 66.3027 106.975 66.7018C107.128 67.1008 107.251 67.4999 107.343 67.8989C107.404 68.298 107.466 68.6663 107.466 69.004C107.466 69.71 107.343 70.3546 107.067 71.0299C106.821 71.6745 106.422 72.2577 105.931 72.7488C105.44 73.24 104.795 73.6697 104.059 73.9767C103.322 74.2836 102.462 74.4371 101.48 74.4371H97.9194V63.5708H97.8887ZM101.235 73.0251C101.848 73.0251 102.462 72.933 103.015 72.7795C103.567 72.5954 104.059 72.3498 104.488 72.0122C104.918 71.6745 105.256 71.2448 105.501 70.7536C105.747 70.2625 105.87 69.6486 105.87 68.9733C105.87 68.6356 105.808 68.2366 105.685 67.7454C105.563 67.285 105.348 66.8553 105.041 66.4255C104.734 65.9958 104.304 65.6581 103.721 65.3512C103.168 65.0749 102.432 64.9214 101.542 64.9214H99.3007V73.0251H101.235Z" fill="white"/>
<path d="M110.29 71.2754C110.29 71.5824 110.351 71.8893 110.505 72.1349C110.658 72.3805 110.812 72.626 111.057 72.8102C111.272 72.9944 111.548 73.1479 111.855 73.2399C112.162 73.332 112.469 73.3934 112.776 73.3934C113.206 73.3934 113.574 73.3013 113.912 73.0865C114.219 72.9023 114.526 72.626 114.802 72.2884L115.846 73.0865C115.078 74.0687 114.004 74.5599 112.592 74.5599C112.009 74.5599 111.487 74.4678 111.026 74.2836C110.566 74.0994 110.167 73.8232 109.829 73.4855C109.492 73.1479 109.246 72.7488 109.093 72.2884C108.908 71.8279 108.816 71.3368 108.816 70.7843C108.816 70.2318 108.908 69.7406 109.093 69.2802C109.277 68.8198 109.553 68.4207 109.891 68.0831C110.228 67.7454 110.627 67.4691 111.088 67.285C111.548 67.1008 112.07 67.0087 112.592 67.0087C113.236 67.0087 113.789 67.1315 114.249 67.3464C114.71 67.5612 115.078 67.8682 115.354 68.2365C115.631 68.6049 115.846 69.0039 115.968 69.4644C116.091 69.9248 116.153 70.3852 116.153 70.8457V71.3368H110.29V71.2754ZM114.679 70.1704C114.679 69.8634 114.618 69.5872 114.526 69.3416C114.434 69.096 114.311 68.8504 114.127 68.6663C113.942 68.4821 113.728 68.3286 113.482 68.2365C113.206 68.1444 112.899 68.0831 112.561 68.0831C112.224 68.0831 111.917 68.1444 111.64 68.2672C111.364 68.39 111.118 68.5742 110.934 68.7584C110.75 68.9732 110.597 69.1881 110.474 69.4337C110.351 69.6792 110.32 69.9248 110.32 70.1704H114.679Z" fill="white"/>
<path d="M117.319 73.1481L121.494 68.3289H117.473V67.1318H123.182V68.3596L119.008 73.1788H123.428V74.376H117.319V73.1481Z" fill="white"/>
<path d="M124.103 67.1624H125.699L127.909 72.7184L130.027 67.1624H131.501L128.615 74.4066H127.081L124.103 67.1624Z" fill="white"/>
<path d="M132.36 70.7843C132.36 70.2625 132.452 69.7713 132.667 69.3109C132.882 68.8505 133.158 68.4514 133.496 68.1138C133.833 67.7761 134.263 67.4999 134.724 67.285C135.184 67.1008 135.706 66.978 136.258 66.978C136.811 66.978 137.302 67.0701 137.793 67.285C138.254 67.4692 138.683 67.7454 139.021 68.1138C139.359 68.4514 139.635 68.8505 139.85 69.3109C140.065 69.7713 140.157 70.2625 140.157 70.7843C140.157 71.3061 140.065 71.7973 139.85 72.2884C139.635 72.7488 139.359 73.1479 139.021 73.4855C138.683 73.8232 138.254 74.0994 137.793 74.2836C137.333 74.4678 136.811 74.5906 136.258 74.5906C135.706 74.5906 135.215 74.4985 134.724 74.2836C134.263 74.0994 133.833 73.8232 133.496 73.4855C133.158 73.1479 132.882 72.7488 132.667 72.2884C132.452 71.7973 132.36 71.3061 132.36 70.7843ZM133.864 70.7843C133.864 71.1527 133.925 71.4903 134.048 71.7973C134.171 72.1042 134.324 72.3805 134.539 72.5954C134.754 72.8102 135 72.9944 135.307 73.1172C135.614 73.24 135.951 73.3014 136.32 73.3014C136.688 73.3014 137.026 73.24 137.333 73.1172C137.64 72.9944 137.885 72.8102 138.1 72.5954C138.315 72.3805 138.468 72.1042 138.591 71.7973C138.714 71.4903 138.775 71.1527 138.775 70.7843C138.775 70.416 138.714 70.0783 138.591 69.7713C138.468 69.4644 138.315 69.1881 138.1 68.9733C137.885 68.7584 137.64 68.5742 137.333 68.4514C137.026 68.3286 136.688 68.2673 136.32 68.2673C135.951 68.2673 135.614 68.3286 135.307 68.4514C135 68.5742 134.754 68.7584 134.539 68.9733C134.324 69.1881 134.171 69.4644 134.048 69.7713C133.895 70.0783 133.864 70.416 133.864 70.7843Z" fill="white"/>
<path d="M141.999 62.8342H143.38V74.4065H141.999V62.8342Z" fill="white"/>
<path d="M147.554 68.3594V71.6439C147.554 71.8587 147.554 72.0429 147.585 72.2578C147.585 72.442 147.647 72.6261 147.708 72.7796C147.769 72.9331 147.892 73.0559 148.015 73.148C148.168 73.2401 148.353 73.3015 148.629 73.3015C148.782 73.3015 148.966 73.3014 149.151 73.2708C149.335 73.2401 149.488 73.1787 149.642 73.1173V74.3758C149.488 74.4679 149.273 74.5293 148.997 74.56C148.721 74.5907 148.537 74.6214 148.383 74.6214C147.861 74.6214 147.432 74.56 147.125 74.4065C146.818 74.253 146.603 74.0688 146.48 73.8233C146.327 73.5777 146.265 73.3321 146.235 73.0252C146.204 72.7489 146.204 72.442 146.204 72.135V68.3594H144.608V67.1623H146.204V65.1364H147.585V67.1623H149.58V68.3594H147.554Z" fill="white"/>
<path d="M151.361 68.0524C151.76 67.684 152.22 67.4385 152.711 67.2543C153.233 67.0701 153.755 66.978 154.246 66.978C154.768 66.978 155.228 67.0394 155.627 67.1622C156.026 67.285 156.333 67.4692 156.579 67.684C156.824 67.8989 157.009 68.1752 157.131 68.4514C157.254 68.7277 157.316 69.0346 157.316 69.3723V73.0865C157.316 73.3321 157.316 73.5776 157.346 73.7925C157.346 74.0074 157.377 74.2222 157.408 74.4064H156.18C156.149 74.0381 156.118 73.6697 156.118 73.3014H156.088C155.781 73.7618 155.412 74.0994 154.983 74.2836C154.553 74.4678 154.062 74.5599 153.509 74.5599C153.172 74.5599 152.834 74.4985 152.527 74.4064C152.22 74.3143 151.944 74.1915 151.729 74.0074C151.483 73.8232 151.299 73.6083 151.176 73.332C151.054 73.0558 150.962 72.7488 150.962 72.3805C150.962 71.9201 151.054 71.521 151.269 71.214C151.483 70.9071 151.76 70.6308 152.128 70.4466C152.496 70.2625 152.926 70.109 153.417 70.0169C153.908 69.9248 154.43 69.8941 154.983 69.8941H155.996V69.5872C155.996 69.403 155.965 69.2188 155.873 69.0346C155.811 68.8505 155.689 68.697 155.535 68.5435C155.382 68.39 155.198 68.2673 154.983 68.2059C154.768 68.1138 154.522 68.0831 154.215 68.0831C153.939 68.0831 153.724 68.1138 153.509 68.1445C153.294 68.2059 153.11 68.2673 152.957 68.3286C152.803 68.39 152.65 68.4821 152.496 68.6049C152.374 68.697 152.22 68.7891 152.097 68.8812L151.361 68.0524ZM155.29 70.9071C154.952 70.9071 154.614 70.9378 154.277 70.9685C153.939 70.9992 153.632 71.0606 153.325 71.1833C153.018 71.3061 152.803 71.4289 152.619 71.6131C152.435 71.7973 152.343 72.0428 152.343 72.3191C152.343 72.7488 152.496 73.0251 152.773 73.2093C153.049 73.3934 153.448 73.4855 153.939 73.4855C154.307 73.4855 154.645 73.4241 154.921 73.3014C155.198 73.1786 155.412 72.9944 155.566 72.8102C155.719 72.5954 155.842 72.3805 155.934 72.1349C155.996 71.8894 156.057 71.6438 156.057 71.3982V70.9071H155.29Z" fill="white"/>
<path d="M159.372 67.1622H160.754V68.2673H160.784C160.876 68.0831 160.999 67.8989 161.153 67.7454C161.306 67.5919 161.49 67.4385 161.674 67.3464C161.859 67.2236 162.073 67.1315 162.288 67.0701C162.503 67.0087 162.749 66.978 162.964 66.978C163.178 66.978 163.393 67.0087 163.578 67.0701L163.516 68.5435C163.393 68.5128 163.301 68.4821 163.178 68.4514C163.056 68.4207 162.964 68.4207 162.841 68.4207C162.166 68.4207 161.644 68.6049 161.275 68.9733C160.907 69.3416 160.723 69.9248 160.723 70.7229V74.3757H159.372V67.1622Z" fill="white"/>
<path d="M165.849 71.2754C165.849 71.5824 165.91 71.8893 166.064 72.1349C166.217 72.3805 166.371 72.626 166.616 72.8102C166.831 72.9944 167.108 73.1479 167.415 73.2399C167.721 73.332 168.028 73.3934 168.335 73.3934C168.765 73.3934 169.134 73.3013 169.471 73.0865C169.778 72.9023 170.085 72.626 170.361 72.2884L171.405 73.0865C170.638 74.0687 169.563 74.5599 168.151 74.5599C167.568 74.5599 167.046 74.4678 166.586 74.2836C166.125 74.0994 165.726 73.8232 165.389 73.4855C165.051 73.1479 164.805 72.7488 164.652 72.2884C164.468 71.8279 164.376 71.3368 164.376 70.7843C164.376 70.2318 164.468 69.7406 164.652 69.2802C164.836 68.8198 165.112 68.4207 165.45 68.0831C165.788 67.7454 166.187 67.4691 166.647 67.285C167.108 67.1008 167.629 67.0087 168.151 67.0087C168.796 67.0087 169.348 67.1315 169.809 67.3464C170.269 67.5612 170.638 67.8682 170.914 68.2365C171.19 68.6049 171.405 69.0039 171.528 69.4644C171.651 69.9248 171.712 70.3852 171.712 70.8457V71.3368H165.849V71.2754ZM170.239 70.1704C170.239 69.8634 170.177 69.5872 170.085 69.3416C169.993 69.096 169.87 68.8504 169.686 68.6663C169.502 68.4821 169.287 68.3286 169.041 68.2365C168.765 68.1444 168.458 68.0831 168.121 68.0831C167.783 68.0831 167.476 68.1444 167.2 68.2672C166.923 68.39 166.678 68.5742 166.494 68.7584C166.309 68.9732 166.156 69.1881 166.033 69.4337C165.91 69.6792 165.88 69.9248 165.88 70.1704H170.239Z" fill="white"/>
<path d="M23.6972 11.6952C23.6972 13.5062 23.3595 15.041 22.6842 16.2995C22.0089 17.5581 21.088 18.5403 19.9523 19.3077C18.8165 20.0751 17.4966 20.6276 15.9925 20.9653C14.4884 21.3029 12.9536 21.4871 11.3268 21.4871H7.58189V33.2436H0.0614301V2.11809H11.5109C13.1992 2.11809 14.7954 2.27156 16.2995 2.60922C17.8036 2.94687 19.0621 3.49939 20.1672 4.23609C21.2722 4.97279 22.1317 5.95506 22.7763 7.18289C23.3902 8.41072 23.6972 9.91481 23.6972 11.6952ZM16.1767 11.7566C16.1767 11.0199 16.0232 10.4366 15.747 9.9455C15.44 9.48507 15.0717 9.11672 14.5498 8.84046C14.0587 8.56419 13.4755 8.41072 12.8616 8.31863C12.217 8.22654 11.5723 8.19585 10.897 8.19585H7.58189V15.5628H10.7436C11.4496 15.5628 12.1249 15.5014 12.7695 15.3787C13.4141 15.2559 13.9973 15.041 14.5191 14.7647C15.041 14.4578 15.44 14.0894 15.7163 13.5983C16.0232 13.1072 16.1767 12.4933 16.1767 11.7566Z" fill="white"/>
<path d="M42.2682 33.2742V21.3949C42.2682 20.781 42.2375 20.1978 42.1455 19.6453C42.0534 19.0928 41.8999 18.6016 41.6543 18.1719C41.4088 17.7421 41.0711 17.4045 40.6721 17.1589C40.273 16.9134 39.7205 16.7906 39.0759 16.7906C37.8174 16.7906 36.8351 17.251 36.1598 18.1412C35.4845 19.0314 35.1468 20.1364 35.1468 21.4563V33.3049H27.9333V0H35.1468V14.12H35.2389C35.73 13.2299 36.5281 12.4625 37.6025 11.7565C38.6768 11.0812 39.9968 10.7128 41.5315 10.7128C43.0356 10.7128 44.2942 10.9891 45.3071 11.5109C46.3201 12.0327 47.1489 12.708 47.7628 13.5675C48.4074 14.3963 48.8371 15.3786 49.1134 16.4529C49.3897 17.5273 49.5431 18.6323 49.5431 19.7067V33.2742H42.2682Z" fill="white"/>
<path d="M78.2436 22.2238C78.2436 24.0041 77.906 25.631 77.2613 27.0737C76.6167 28.5164 75.7266 29.7442 74.6215 30.7572C73.5165 31.7701 72.2272 32.5682 70.7538 33.1208C69.2804 33.6733 67.715 33.9495 66.0574 33.9495C64.3998 33.9495 62.865 33.6733 61.3609 33.1208C59.8875 32.5682 58.5983 31.7701 57.4933 30.7572C56.3882 29.7442 55.5287 28.5164 54.8841 27.0737C54.2395 25.631 53.9019 24.0041 53.9019 22.2238C53.9019 20.4434 54.2395 18.8165 54.8841 17.3738C55.5287 15.9311 56.3882 14.7033 57.4933 13.721C58.5983 12.7081 59.8875 11.9714 61.3609 11.4189C62.8343 10.897 64.3998 10.6208 66.0574 10.6208C67.715 10.6208 69.3111 10.897 70.7538 11.4189C72.2272 11.9407 73.5165 12.7081 74.6215 13.721C75.7266 14.7033 76.6167 15.9311 77.2613 17.3738C77.906 18.8165 78.2436 20.4434 78.2436 22.2238ZM71.2757 22.2238C71.2757 21.5178 71.1529 20.8425 70.938 20.1671C70.6925 19.4918 70.3548 18.9086 69.9251 18.3868C69.4953 17.865 68.9428 17.4659 68.2982 17.1283C67.6536 16.7906 66.9169 16.6371 66.0574 16.6371C65.1979 16.6371 64.4612 16.7906 63.8166 17.1283C63.172 17.4659 62.6502 17.865 62.2204 18.3868C61.7907 18.9086 61.4837 19.4918 61.2382 20.1671C61.0233 20.8425 60.9005 21.5178 60.9005 22.2238C60.9005 22.9298 61.0233 23.6051 61.2382 24.2804C61.453 24.9557 61.7907 25.5696 62.2204 26.1221C62.6502 26.6746 63.2027 27.1044 63.8473 27.4113C64.4919 27.749 65.2286 27.9025 66.0881 27.9025C66.9476 27.9025 67.6843 27.749 68.3289 27.4113C68.9735 27.0737 69.526 26.644 69.9557 26.1221C70.3855 25.5696 70.7232 24.9864 70.938 24.2804C71.1836 23.6358 71.2757 22.9298 71.2757 22.2238Z" fill="white"/>
<path d="M104.55 22.5921C104.55 22.899 104.55 23.1753 104.55 23.4823C104.55 23.7892 104.519 24.0655 104.519 24.311H88.6186C88.68 24.925 88.8642 25.4775 89.1711 25.9686C89.4781 26.4597 89.8771 26.8895 90.3683 27.2578C90.8594 27.6262 91.3812 27.9024 91.9952 28.1173C92.6091 28.3322 93.223 28.4243 93.8676 28.4243C95.0033 28.4243 95.9856 28.2094 96.7837 27.7797C97.5818 27.3499 98.2264 26.7974 98.7175 26.1221L103.721 29.2838C102.708 30.7878 101.327 31.9236 99.6384 32.7524C97.9501 33.5505 95.9856 33.9495 93.7755 33.9495C92.1179 33.9495 90.5831 33.7039 89.1097 33.1821C87.6364 32.6603 86.3471 31.9236 85.2728 30.9413C84.1677 29.9591 83.3083 28.7619 82.6636 27.3192C82.019 25.9072 81.7121 24.2496 81.7121 22.4079C81.7121 20.6275 82.019 19.0007 82.6329 17.558C83.2469 16.1153 84.0757 14.8874 85.15 13.8745C86.1937 12.8615 87.4522 12.0634 88.8949 11.5109C90.3376 10.9584 91.9031 10.6821 93.5606 10.6821C95.1875 10.6821 96.6609 10.9584 98.0115 11.5109C99.3621 12.0634 100.529 12.8308 101.48 13.8745C102.462 14.8874 103.199 16.146 103.752 17.6194C104.304 19.0314 104.55 20.7196 104.55 22.5921ZM97.9194 19.7988C97.9194 18.663 97.5511 17.6808 96.8451 16.852C96.1391 16.0232 95.034 15.6241 93.622 15.6241C92.916 15.6241 92.2714 15.7469 91.6882 15.9618C91.105 16.1767 90.5831 16.4836 90.1534 16.852C89.7237 17.2203 89.3553 17.6808 89.1097 18.2026C88.8335 18.7244 88.7107 19.2462 88.68 19.7988H97.9194Z" fill="white"/>
<path d="M123.458 21.3028C123.458 20.6889 123.397 20.1057 123.305 19.5532C123.213 19.0006 123.029 18.5095 122.783 18.0798C122.538 17.65 122.231 17.3124 121.801 17.0668C121.371 16.8212 120.849 16.6985 120.205 16.6985C119.56 16.6985 119.008 16.8212 118.516 17.0668C118.025 17.3124 117.626 17.65 117.319 18.1105C116.982 18.5402 116.767 19.062 116.583 19.6146C116.429 20.1978 116.337 20.781 116.337 21.3949V33.2742H109.062V11.3574H116.061V14.3963H116.153C116.429 13.9358 116.767 13.4754 117.196 13.015C117.626 12.5545 118.117 12.1862 118.701 11.8485C119.284 11.5109 119.898 11.2653 120.573 11.0504C121.248 10.8356 121.954 10.7435 122.722 10.7435C124.195 10.7435 125.423 11.0197 126.467 11.5416C127.48 12.0634 128.308 12.7387 128.953 13.5982C129.598 14.427 130.027 15.4092 130.304 16.4836C130.58 17.5579 130.733 18.663 130.733 19.7373V33.3049H123.458V21.3028Z" fill="white"/>
<path d="M143.994 4.3589C143.994 4.91142 143.871 5.43325 143.656 5.92438C143.441 6.41551 143.134 6.81456 142.766 7.18291C142.398 7.52056 141.968 7.82752 141.446 8.01169C140.924 8.22656 140.402 8.31865 139.85 8.31865C138.683 8.31865 137.701 7.9196 136.903 7.15221C136.105 6.38482 135.706 5.43325 135.706 4.3589C135.706 3.83707 135.798 3.31524 136.013 2.8548C136.228 2.36367 136.504 1.96463 136.903 1.59628C137.302 1.22793 137.732 0.951666 138.223 0.736796C138.714 0.521926 139.267 0.399143 139.85 0.399143C140.402 0.399143 140.955 0.49123 141.446 0.7061C141.968 0.920971 142.398 1.19723 142.766 1.53489C143.134 1.87254 143.441 2.30228 143.656 2.79341C143.902 3.28454 143.994 3.80637 143.994 4.3589ZM136.258 33.2743V11.3575H143.472V33.2743H136.258Z" fill="white"/>
<path d="M164.161 33.2741L159.464 26.5518L154.615 33.2741H146.265L155.014 21.7939L147.094 11.3574H155.505L159.587 17.2203L163.731 11.3574H171.866L163.977 21.7939L172.633 33.2741H164.161Z" fill="white"/>
</svg>
