<svg width="183" height="64" viewBox="0 0 183 64" fill="none" xmlns="http://www.w3.org/2000/svg">
<path fill-rule="evenodd" clip-rule="evenodd" d="M32.1988 32.7529C31.8974 32.7529 31.5959 32.7529 31.2945 32.7529H30.8423C30.4655 32.7529 30.0133 32.7529 29.6365 32.6777H29.4104C29.0336 32.6777 28.6567 32.6024 28.2799 32.6024C27.7524 32.6024 27.1495 32.5271 26.4712 32.4518C26.019 32.3765 25.5669 32.3765 25.0393 32.3012H24.964C24.8132 32.3012 24.135 32.2259 23.9842 32.1506C23.9089 32.1506 23.8335 32.1506 23.7582 32.1506C20.7436 31.6988 17.503 30.9459 14.6392 30.0424C14.8653 29.5153 15.0914 28.9882 15.3929 28.4612C15.4682 28.4612 15.4682 28.4612 15.5436 28.5365C15.6943 28.6118 15.9204 28.6871 16.0711 28.6871H16.1465C19.6886 29.7412 23.5321 30.4941 27.5263 30.7953C28.5814 30.8706 29.7118 30.9459 30.8423 30.9459C30.993 30.9459 31.0684 30.8706 31.1437 30.7953C31.2191 30.72 31.2945 30.5694 31.2945 30.4941V17.92C31.2945 17.6941 31.0684 17.4682 30.8423 17.4682C26.0944 17.3176 21.4219 16.5647 17.2769 15.2094C17.2016 15.2094 17.2016 15.2094 17.1262 15.2094C16.9001 15.2094 16.7494 15.36 16.674 15.5106C16.674 15.6612 16.674 15.8118 16.5987 15.9624C15.9958 16.0376 15.3929 16.1129 14.79 16.1882C14.9407 15.7365 15.0914 15.36 15.2421 14.9082C15.3175 14.7576 15.3175 14.6824 15.2421 14.5318C15.1668 14.3812 15.0914 14.3059 15.0161 14.3059C13.2827 13.6282 11.5494 12.8 9.96675 11.8212C9.89138 11.7459 9.81602 11.7459 9.74066 11.7459C9.58993 11.7459 9.51457 11.8212 9.36384 11.8965C8.08267 13.3271 6.95223 14.8329 6.04787 16.4894C5.44497 16.7153 4.84207 16.9412 4.61598 17.0165C4.1638 17.2424 3.78699 17.3929 3.41017 17.6941C3.71162 17.0918 4.08844 16.4141 4.38989 15.8118C5.36961 14.1553 6.50005 12.5741 7.78122 11.0682L8.91166 9.93882C14.8653 3.68941 23.0045 0.150588 31.7466 0H31.8974C31.9727 0 32.1234 0 32.1988 0C32.2742 0 32.3495 0 32.5003 0H32.651C41.3177 0.150588 49.683 3.76471 55.6367 10.0894L56.6918 11.2188C58.4251 13.2518 59.857 15.4353 61.0628 17.7694C60.686 17.5435 60.3092 17.3176 59.857 17.1671C59.857 17.1671 59.028 16.7906 58.3497 16.4894C57.37 14.9082 56.3149 13.4024 55.0338 12.0471C54.9584 11.9718 54.8077 11.8965 54.657 11.8965C54.5816 11.8965 54.5062 11.8965 54.4309 11.9718C52.9236 12.8753 51.1903 13.7035 49.3815 14.4565C49.2308 14.5318 49.1555 14.6071 49.1555 14.6824C49.0801 14.8329 49.0801 14.9082 49.1555 15.0588C49.3062 15.4353 49.4569 15.8871 49.6076 16.3388C49.0047 16.1882 48.4018 16.1129 47.7989 16.1129C47.7236 15.9624 47.6482 15.8118 47.6482 15.6612C47.5728 15.5106 47.4221 15.36 47.196 15.36C47.1207 15.36 47.1207 15.36 47.0453 15.36C42.9003 16.7153 38.2278 17.4682 33.48 17.6188C33.2539 17.6188 33.0278 17.8447 33.0278 18.0706V30.6447C33.0278 30.7953 33.1032 30.8706 33.1785 30.9459C33.2539 31.0212 33.4046 31.0965 33.48 31.0965C34.6104 31.0965 35.7409 31.0212 36.7959 30.9459C40.5641 30.6447 44.2569 29.9671 47.6482 28.9882C47.7236 28.9882 47.7989 28.9882 47.7989 28.9129C48.1004 28.8376 48.4772 28.6871 48.854 28.6118C49.1555 29.1388 49.3815 29.6659 49.6076 30.1929C46.6685 31.0965 43.3525 31.9247 40.4134 32.3012C40.4134 32.3012 40.338 32.3012 40.2626 32.3012L39.2076 32.4518C38.7554 32.5271 38.3032 32.5271 37.851 32.6024H37.7757C37.0974 32.6776 36.5699 32.6776 36.0423 32.7529C35.6655 32.7529 35.2887 32.8282 34.9119 32.8282H34.6858C34.309 32.8282 33.8568 32.8282 33.4046 32.9035H33.3292C33.0278 32.7529 32.5756 32.7529 32.1988 32.7529ZM33.48 1.73176C33.3293 1.73176 33.2539 1.80706 33.1785 1.88235C33.1032 1.95765 33.0278 2.10824 33.0278 2.25882V15.36C33.0278 15.5106 33.1032 15.5859 33.1785 15.6612C33.2539 15.7365 33.4046 15.8118 33.48 15.8118C37.9264 15.7365 42.3728 14.9835 46.2917 13.7035C46.4424 13.6282 46.5178 13.5529 46.5931 13.4776C46.6685 13.3271 46.6685 13.1765 46.5931 13.1012C43.4279 6.47529 38.68 2.33412 33.48 1.73176C33.5553 1.73176 33.5553 1.73176 33.48 1.73176ZM30.9176 1.73176C25.793 2.33412 21.0451 6.47529 17.8045 13.0259C17.7291 13.1765 17.7291 13.2518 17.8045 13.4024C17.8799 13.5529 17.9552 13.6282 18.1059 13.6282C22.0248 14.9082 26.4712 15.5859 30.9176 15.7365C31.0684 15.7365 31.1437 15.6612 31.2191 15.5859C31.2944 15.5106 31.3698 15.36 31.3698 15.2847V2.18353C31.3698 2.03294 31.2944 1.95765 31.2191 1.80706C31.1437 1.80706 30.993 1.73176 30.9176 1.73176ZM42.5989 3.53882C42.4482 3.53882 42.2974 3.61412 42.2221 3.76471C42.0714 3.99059 42.1467 4.21647 42.2974 4.36706C44.5583 6.47529 46.5931 9.26118 48.1757 12.6494C48.2511 12.8 48.4018 12.9506 48.6279 12.9506C48.7033 12.9506 48.7033 12.9506 48.7786 12.9506C50.3613 12.3482 51.8685 11.6706 53.1497 10.9176C53.3004 10.8424 53.3758 10.6918 53.3758 10.5412C53.3758 10.3906 53.3758 10.24 53.2251 10.1647C52.0946 9.11059 50.9642 8.13176 49.683 7.30353C49.683 7.30353 49.6076 7.30353 49.6076 7.22824C49.3062 7.00235 48.854 6.77647 48.4772 6.47529C48.4018 6.47529 48.4018 6.4 48.4018 6.4C48.3265 6.4 48.3265 6.32471 48.2511 6.32471C47.9497 6.09882 47.5728 5.94824 47.2714 5.72235L46.8192 5.42118C46.5178 5.27059 46.1409 5.04471 45.8395 4.89412C45.7641 4.81882 45.6134 4.81882 45.538 4.74353L45.4627 4.66824C45.1612 4.51765 44.8598 4.36706 44.483 4.21647C44.3322 4.14118 44.1815 4.06588 44.0308 3.99059C43.8047 3.91529 43.5786 3.76471 43.2772 3.68941L43.0511 3.61412C42.9757 3.61412 42.9003 3.53882 42.825 3.53882C42.7496 3.53882 42.7496 3.46353 42.6743 3.46353C42.6743 3.53882 42.5989 3.53882 42.5989 3.53882ZM13.3581 8.20706C12.6044 8.80941 11.9262 9.41176 11.1726 10.0894C11.0972 10.1647 11.0218 10.3153 11.0218 10.4659C11.0218 10.6165 11.0972 10.7671 11.2479 10.8424C12.6044 11.5953 14.1117 12.3482 15.619 12.8753C15.6943 12.8753 15.6943 12.8753 15.7697 12.8753C15.9204 12.8753 16.1465 12.8 16.2219 12.5741C17.8799 9.18588 19.8393 6.4 22.1755 4.21647C22.3263 4.06588 22.4016 3.84 22.2509 3.61412C22.1755 3.46353 22.0248 3.38824 21.8741 3.38824C21.7987 3.38824 21.7987 3.38824 21.7234 3.38824C21.4973 3.46353 21.3465 3.53882 21.1205 3.61412C20.8944 3.68941 20.7436 3.76471 20.5176 3.84L19.7639 4.14118L19.5378 4.21647C19.3871 4.29176 19.3117 4.36706 19.161 4.36706C18.9349 4.51765 18.6335 4.59294 18.4074 4.74353C18.2567 4.81882 18.0306 4.89412 17.8799 5.04471C17.6538 5.19529 17.3523 5.34588 17.1262 5.42118C16.9755 5.49647 16.8248 5.57176 16.674 5.72235C16.448 5.87294 16.1465 6.02353 15.9204 6.17412C15.8451 6.24941 15.7697 6.32471 15.619 6.32471L15.3929 6.47529C15.1668 6.62588 14.8653 6.85177 14.6392 7.00235C14.5639 7.07765 14.4885 7.15294 14.4132 7.22824L14.3378 7.30353C13.961 7.68 13.7349 7.90588 13.3581 8.20706C13.3581 8.13176 13.3581 8.13176 13.3581 8.20706Z" fill="white"/>
<path fill-rule="evenodd" clip-rule="evenodd" d="M5.97251 19.5765C2.43045 24.9224 1.82755 31.3224 5.36961 37.6471C-0.734789 31.6988 -0.960877 22.8894 5.97251 19.5765Z" fill="white"/>
<path fill-rule="evenodd" clip-rule="evenodd" d="M29.1843 63.9247C22.8538 63.3224 16.9001 60.9882 12.0015 56.9976C18.9349 59.4824 23.2306 58.7294 29.1843 63.9247Z" fill="white"/>
<path fill-rule="evenodd" clip-rule="evenodd" d="M20.6683 54.3624C20.5929 54.3624 20.5929 54.2871 20.5176 54.2871C20.5176 54.2871 20.4422 54.2871 20.4422 54.2118C20.4422 54.2118 20.4422 54.2118 20.3668 54.2118C20.2161 54.0612 19.99 53.9859 19.8393 53.8353C19.7639 53.76 19.6886 53.76 19.6132 53.6847C19.4625 53.5341 19.2364 53.4588 19.0857 53.3835C18.8596 53.2329 18.6335 53.0824 18.4074 52.9318C18.0306 52.7059 17.7291 52.48 17.3523 52.3294C16.9755 52.1035 16.5987 51.8776 16.2219 51.7271C14.4885 50.8235 12.6798 49.92 10.7957 48.9412C9.06239 48.1129 7.47977 47.0588 6.04787 45.8541C3.25945 43.52 1.30001 40.5835 0.471018 37.3459C0.0942036 35.9153 -0.0565222 34.4094 0.0188407 32.9035C0.923196 34.56 1.82755 36.3671 3.18408 37.9482C3.33481 38.1741 3.5609 38.3247 3.71162 38.5506C6.42469 41.6376 10.1928 44.3482 14.1871 46.8329C14.79 47.2094 15.3929 47.5859 15.9958 47.9624C16.5233 48.2635 17.1262 48.64 17.6538 49.0165C20.6683 51.0494 23.3813 53.3082 25.4915 55.5671C27.1495 57.3741 28.2799 59.2565 29.1089 61.0635C29.335 61.5906 29.5611 62.1176 29.7118 62.6447C26.9988 60.2353 23.4567 58.7294 19.7639 57.4494C17.9552 56.7718 16.0711 56.1694 14.1871 55.5671C13.6595 55.4165 13.0566 55.1906 12.4537 54.8894C8.76094 53.4588 5.74642 50.8235 3.86235 47.36C3.71162 46.9835 3.48553 46.6824 3.33481 46.3059C4.84207 47.36 6.42469 48.3388 8.00731 49.1671C8.91166 49.6188 9.81602 50.0706 10.7957 50.5224C12.9059 51.4259 14.9407 52.3294 16.9001 53.2329C18.4074 53.9106 19.9146 54.6635 21.2712 55.3412C21.9494 55.7176 22.6277 56.0941 23.2306 56.4706C22.6277 55.7176 21.7234 55.04 20.6683 54.3624Z" fill="white"/>
<path fill-rule="evenodd" clip-rule="evenodd" d="M4.99279 27.9341C6.1986 23.1906 10.645 19.0494 17.6538 18.5976C12.303 20.9318 9.74066 24.5459 8.53485 27.7835C5.97251 34.7106 8.98703 39.4541 11.3986 42.9176C5.82178 38.0988 3.78699 32.6776 4.99279 27.9341Z" fill="white"/>
<path fill-rule="evenodd" clip-rule="evenodd" d="M25.0393 48.64C27.5263 51.4259 29.2597 55.2659 29.7872 58.88C28.4307 55.7176 26.0944 52.6306 22.7784 50.1459C20.4422 48.3388 17.5784 46.4565 15.1668 44.3482C11.9262 41.5624 9.28848 38.3247 9.43921 34.0329C9.58993 30.6447 11.3233 27.0306 15.8451 24.6212C12.6044 28.3106 11.474 32.0753 12.3784 35.3129C13.8856 40.2071 21.2712 44.3482 25.0393 48.64Z" fill="white"/>
<path fill-rule="evenodd" clip-rule="evenodd" d="M32.1234 64C31.4452 54.9647 28.9582 49.6941 26.019 47.1341C27.8278 46.2306 29.335 45.7788 29.335 42.6165C29.335 40.7341 27.9785 38.4 25.4161 38.4C26.1698 37.9482 26.848 37.7976 27.8278 37.7976C26.848 36.8188 25.3408 36.5929 23.1553 36.5929C25.2654 35.7647 28.7321 34.8612 30.9176 35.4635C31.7466 35.6894 32.651 36.0659 33.48 36.5929C33.7814 36.7435 34.0829 36.9694 34.3843 37.12C36.5699 38.6259 38.7554 40.0565 41.2424 41.0353C39.7351 42.24 37.4742 41.5624 34.2336 39.68C34.2336 44.9506 36.0423 46.08 38.4539 46.9835C35.8162 49.3929 32.9524 53.4588 32.5003 63.8494L32.1234 64Z" fill="white"/>
<path fill-rule="evenodd" clip-rule="evenodd" d="M35.2133 63.9247C41.5438 63.3224 47.4975 60.9882 52.3961 56.9976C45.4627 59.4824 41.167 58.7294 35.2133 63.9247Z" fill="white"/>
<path fill-rule="evenodd" clip-rule="evenodd" d="M58.4251 19.5765C61.9672 24.9224 63.0222 30.8706 59.4048 37.12C65.5092 31.2471 65.3585 22.8894 58.4251 19.5765Z" fill="white"/>
<path fill-rule="evenodd" clip-rule="evenodd" d="M43.7293 54.3624C43.8047 54.3624 43.8047 54.2871 43.8801 54.2871C43.8801 54.2871 43.9554 54.2871 43.9554 54.2118C43.9554 54.2118 43.9554 54.2118 44.0308 54.2118C44.1815 54.0612 44.4076 53.9859 44.5583 53.8353C44.6337 53.76 44.709 53.76 44.7844 53.6847C44.9351 53.5341 45.1612 53.4588 45.312 53.3835C45.538 53.2329 45.7641 53.0824 45.9902 52.9318C46.367 52.7059 46.6685 52.48 47.0453 52.3294C47.4221 52.1035 47.7989 51.8776 48.1757 51.7271C49.9091 50.8235 51.7178 49.92 53.6019 48.9412C55.3352 48.1129 56.9178 47.0588 58.3497 45.8541C61.1382 43.52 63.0976 40.5835 63.9266 37.3459C64.3034 35.9153 64.4541 34.4094 64.3788 32.9035C63.4744 34.56 62.5701 36.3671 61.2135 37.9482C61.0628 38.1741 60.8367 38.3247 60.686 38.5506C57.9729 41.6376 54.2048 44.3482 50.2105 46.8329C49.6076 47.2094 49.0047 47.5859 48.4018 47.9624C47.8743 48.2635 47.2714 48.64 46.7439 49.0165C43.7293 51.0494 41.0163 53.3082 38.9061 55.5671C37.2481 57.3741 36.1177 59.2565 35.2887 61.0635C35.0626 61.5906 34.8365 62.1176 34.6858 62.6447C37.3235 60.2353 40.8655 58.7294 44.5583 57.3741C46.367 56.6965 48.2511 56.0941 50.1352 55.4918C50.6627 55.3412 51.2656 55.1153 51.8685 54.8141C55.5613 53.3835 58.5758 50.7482 60.4599 47.2847C60.6106 46.9082 60.8367 46.6071 60.9874 46.2306C59.4802 47.2847 57.8976 48.2635 56.3149 49.0918C55.4106 49.5435 54.5062 49.9953 53.5265 50.4471C51.4164 51.3506 49.3815 52.2541 47.4221 53.1576C45.9149 53.8353 44.4076 54.5882 43.0511 55.2659C42.3728 55.6424 41.6945 56.0188 41.0916 56.3953C41.7699 55.7176 42.7496 55.04 43.7293 54.3624Z" fill="white"/>
<path fill-rule="evenodd" clip-rule="evenodd" d="M59.4048 27.9341C58.199 23.1906 53.7526 19.0494 46.7439 18.5976C52.0946 20.9318 54.657 24.5459 55.8628 27.7835C58.4251 34.7106 55.4106 39.5294 52.999 42.9176C58.5758 38.0988 60.6106 32.6776 59.4048 27.9341Z" fill="white"/>
<path fill-rule="evenodd" clip-rule="evenodd" d="M39.3583 48.64C36.8713 51.4259 35.138 55.2659 34.6104 58.88C35.9669 55.7176 38.3032 52.6306 41.6192 50.1459C43.9554 48.3388 46.8192 46.4565 49.2308 44.3482C52.4714 41.5624 55.1091 38.3247 54.9584 34.0329C54.8077 30.6447 53.0743 27.0306 48.5526 24.6212C51.7932 28.3106 52.9236 32.0753 52.0193 35.3129C50.5874 40.2071 43.1264 44.3482 39.3583 48.64Z" fill="white"/>
<path d="M127.382 57.5247H126.553L127.156 55.8682H128.06L127.382 57.5247Z" fill="white"/>
<path d="M78.7731 37.7224C78.547 37.4965 78.3209 37.2706 78.0195 37.12C77.718 36.9694 77.4165 36.8941 77.1151 36.8941C76.7383 36.8941 76.3615 36.9694 76.06 37.12C75.7586 37.2706 75.4571 37.4965 75.231 37.7224C75.0049 37.9482 74.8542 38.2494 74.7035 38.6259C74.5528 39.0024 74.5528 39.3035 74.5528 39.68C74.5528 40.0565 74.6281 40.3576 74.7035 40.7341C74.7789 41.1106 75.0049 41.3365 75.231 41.5624C75.4571 41.7882 75.7586 42.0141 76.06 42.1647C76.3615 42.3153 76.7383 42.3906 77.1151 42.3906C77.4919 42.3906 77.8687 42.3153 78.1702 42.1647C78.4716 42.0141 78.6977 41.7882 78.9238 41.4871L79.7528 42.0894C79.6774 42.1647 79.6021 42.24 79.4514 42.3906C79.3006 42.5412 79.1499 42.6918 78.9238 42.7671C78.6977 42.9176 78.4716 42.9929 78.1702 43.1435C77.8687 43.2188 77.4919 43.2941 77.1151 43.2941C76.5876 43.2941 76.06 43.2188 75.6078 42.9929C75.1557 42.7671 74.7788 42.5412 74.4774 42.1647C74.1759 41.8635 73.9499 41.4871 73.7991 41.0353C73.6484 40.5835 73.573 40.2071 73.573 39.7553C73.573 39.2282 73.6484 38.7012 73.8745 38.3247C74.0252 37.8729 74.3267 37.4965 74.6281 37.1953C74.9296 36.8941 75.3064 36.5929 75.7586 36.4424C76.2107 36.2918 76.6629 36.1412 77.2658 36.1412C77.718 36.1412 78.1702 36.2165 78.6224 36.3671C79.0745 36.5177 79.4514 36.8188 79.6774 37.1953L78.7731 37.7224Z" fill="white"/>
<path d="M81.2601 41.1106C81.2601 41.3365 81.3354 41.4871 81.4108 41.6376C81.4862 41.7882 81.6369 41.9388 81.7876 42.0894C81.9383 42.24 82.0891 42.3153 82.3151 42.3906C82.5412 42.4659 82.692 42.4659 82.918 42.4659C83.2195 42.4659 83.4456 42.3906 83.5963 42.24C83.8224 42.0894 83.9731 41.9388 84.1239 41.7129L84.8021 42.24C84.2746 42.8424 83.5963 43.1435 82.7673 43.1435C82.3905 43.1435 82.0891 43.0682 81.7876 42.9929C81.4862 42.8424 81.2601 42.6918 81.034 42.4659C80.8079 42.24 80.6572 42.0141 80.5818 41.7129C80.5064 41.4118 80.4311 41.1106 80.4311 40.7341C80.4311 40.3576 80.5064 40.0565 80.5818 39.7553C80.7325 39.4541 80.8832 39.2282 81.1093 39.0024C81.3354 38.7765 81.5615 38.6259 81.863 38.4753C82.1644 38.3247 82.4659 38.3247 82.8427 38.3247C83.2195 38.3247 83.5963 38.4 83.8978 38.5506C84.1992 38.7012 84.4253 38.8518 84.576 39.0776C84.7268 39.3035 84.8775 39.5294 84.9528 39.8306C85.0282 40.1318 85.1036 40.4329 85.1036 40.7341V41.0353H81.2601V41.1106ZM84.0485 40.4329C84.0485 40.2071 83.9731 40.0565 83.9731 39.9059C83.8978 39.7553 83.8224 39.6047 83.747 39.4541C83.6717 39.3035 83.521 39.2282 83.2949 39.1529C83.0688 39.0776 82.918 39.0776 82.692 39.0776C82.4659 39.0776 82.3151 39.1529 82.0891 39.2282C81.9383 39.3035 81.7876 39.3788 81.6369 39.5294C81.4862 39.68 81.4108 39.8306 81.3354 39.9812C81.2601 40.1318 81.2601 40.2824 81.2601 40.4329H84.0485Z" fill="white"/>
<path d="M86.0079 38.5506H86.9123V39.2282C86.9876 39.0024 87.2137 38.7765 87.5152 38.6259C87.8166 38.4753 88.1181 38.4 88.4949 38.4C88.721 38.4 88.9471 38.4 89.1732 38.4753C89.3993 38.5506 89.55 38.6259 89.7007 38.7765C89.8514 38.9271 90.0022 39.0777 90.0775 39.3035C90.1529 39.5294 90.2282 39.7553 90.2282 40.0565V42.9929H89.3239V40.2824C89.3239 40.0565 89.3239 39.9059 89.2485 39.7553C89.1732 39.6047 89.0978 39.4541 89.0224 39.3788C88.9471 39.3035 88.7964 39.2282 88.721 39.1529C88.5703 39.0776 88.4949 39.0776 88.3442 39.0776C88.1935 39.0776 87.9674 39.0776 87.8166 39.1529C87.6659 39.2282 87.5152 39.3035 87.4398 39.4541C87.2891 39.6047 87.2137 39.7553 87.1384 39.9059C87.063 40.1318 87.063 40.3577 87.063 40.5835V42.9176H86.0079V38.5506Z" fill="white"/>
<path d="M92.7152 39.3035V41.4118C92.7152 41.5624 92.7152 41.6376 92.7152 41.7882C92.7152 41.9388 92.7152 42.0141 92.7906 42.1647C92.866 42.24 92.866 42.3153 93.0167 42.3906C93.092 42.4659 93.2428 42.4659 93.3935 42.4659C93.4689 42.4659 93.6196 42.4659 93.6949 42.4659C93.7703 42.4659 93.921 42.3906 93.9964 42.3906V43.2188C93.921 43.2941 93.7703 43.2941 93.6196 43.3694C93.4689 43.3694 93.3181 43.3694 93.2428 43.3694C92.866 43.3694 92.6399 43.2941 92.4891 43.2188C92.3384 43.1435 92.1877 42.9929 92.1123 42.8424C92.037 42.6918 91.9616 42.5412 91.9616 42.3153C91.9616 42.1647 91.9616 41.9388 91.9616 41.7882V39.3788H90.9065V38.6259H91.9616V37.3459H92.866V38.6259H94.1471V39.3035H92.7152Z" fill="white"/>
<path d="M96.0312 38.5506V39.2282C96.1066 39.0776 96.1819 39.0024 96.2573 38.9271C96.3326 38.8518 96.4834 38.7765 96.5587 38.7012C96.7095 38.6259 96.7848 38.5506 96.9355 38.5506C97.0863 38.4753 97.237 38.4753 97.3877 38.4753C97.5385 38.4753 97.6892 38.4753 97.7645 38.5506L97.6892 39.4541C97.6138 39.4541 97.5385 39.4541 97.4631 39.3788C97.3877 39.3788 97.3124 39.3788 97.237 39.3788C96.7848 39.3788 96.4834 39.5294 96.2573 39.7553C96.0312 39.9812 95.8805 40.3577 95.8805 40.8847V43.2188H94.9761V38.5506H96.0312Z" fill="white"/>
<path d="M102.889 43.1435H101.985V42.4659C101.91 42.6918 101.683 42.9177 101.382 43.0682C101.081 43.2188 100.779 43.2941 100.402 43.2941C100.176 43.2941 99.9501 43.2941 99.724 43.2188C99.4979 43.1435 99.3472 43.0682 99.1964 42.9176C99.0457 42.7671 98.895 42.6165 98.8196 42.3906C98.7443 42.1647 98.6689 41.9388 98.6689 41.6376V38.7012H99.5732V41.4118C99.5732 41.6376 99.5733 41.7882 99.6486 41.9388C99.724 42.0894 99.7993 42.24 99.8747 42.3153C99.9501 42.3906 100.101 42.4659 100.176 42.5412C100.327 42.6165 100.402 42.6165 100.553 42.6165C100.704 42.6165 100.93 42.6165 101.081 42.5412C101.231 42.4659 101.382 42.3906 101.457 42.24C101.608 42.0894 101.683 41.9388 101.759 41.7882C101.834 41.5624 101.834 41.3365 101.834 41.1106V38.7765H102.738V43.1435H102.889Z" fill="white"/>
<path d="M104.246 35.7647H105.15V43.0682H104.246V35.7647Z" fill="white"/>
<path d="M109.521 36.2918H110.426V43.1435H109.521V36.2918Z" fill="white"/>
<path d="M112.008 38.5506H112.912V39.2282C112.988 39.0024 113.214 38.7765 113.515 38.6259C113.817 38.4753 114.118 38.4 114.495 38.4C114.721 38.4 114.947 38.4 115.173 38.4753C115.399 38.5506 115.55 38.6259 115.701 38.7765C115.852 38.9271 116.002 39.0777 116.078 39.3035C116.153 39.5294 116.228 39.7553 116.228 40.0565V42.9929H115.324V40.2824C115.324 40.0565 115.324 39.9059 115.249 39.7553C115.173 39.6047 115.098 39.4541 115.023 39.3788C114.947 39.3035 114.797 39.2282 114.721 39.1529C114.57 39.0776 114.495 39.0776 114.344 39.0776C114.194 39.0776 113.968 39.0776 113.817 39.1529C113.666 39.2282 113.515 39.3035 113.44 39.4541C113.289 39.6047 113.214 39.7553 113.139 39.9059C113.063 40.1318 113.063 40.3577 113.063 40.5835V42.9176H112.159V38.5506H112.008Z" fill="white"/>
<path d="M118.64 39.3035V41.4118C118.64 41.5624 118.64 41.6376 118.64 41.7882C118.64 41.9388 118.64 42.0141 118.715 42.1647C118.791 42.24 118.791 42.3153 118.942 42.3906C119.017 42.4659 119.168 42.4659 119.318 42.4659C119.394 42.4659 119.544 42.4659 119.62 42.4659C119.695 42.4659 119.846 42.3906 119.921 42.3906V43.2188C119.846 43.2941 119.695 43.2941 119.544 43.3694C119.394 43.3694 119.243 43.3694 119.168 43.3694C118.791 43.3694 118.565 43.2941 118.414 43.2188C118.263 43.1435 118.113 42.9929 118.037 42.8424C117.962 42.6918 117.886 42.5412 117.886 42.3153C117.886 42.1647 117.886 41.9388 117.886 41.7882V39.3788H116.831V38.6259H117.886V37.3459H118.791V38.6259H120.072V39.3035H118.64Z" fill="white"/>
<path d="M121.73 41.1106C121.73 41.3365 121.805 41.4871 121.881 41.6376C121.956 41.7882 122.107 41.9388 122.257 42.0894C122.408 42.24 122.559 42.3153 122.785 42.3906C123.011 42.4659 123.162 42.4659 123.388 42.4659C123.689 42.4659 123.915 42.3906 124.066 42.24C124.292 42.0894 124.443 41.9388 124.594 41.7129L125.272 42.24C124.744 42.8424 124.066 43.1435 123.237 43.1435C122.86 43.1435 122.559 43.0682 122.257 42.9929C121.956 42.9176 121.73 42.6918 121.504 42.4659C121.278 42.24 121.127 42.0141 121.052 41.7129C120.976 41.4118 120.901 41.1106 120.901 40.7341C120.901 40.3576 120.976 40.0565 121.052 39.7553C121.202 39.4541 121.353 39.2282 121.579 39.0024C121.805 38.7765 122.031 38.6259 122.333 38.4753C122.634 38.3247 122.936 38.3247 123.313 38.3247C123.689 38.3247 124.066 38.4 124.368 38.5506C124.669 38.7012 124.895 38.8518 125.046 39.0776C125.197 39.3035 125.347 39.5294 125.423 39.8306C125.498 40.1318 125.573 40.4329 125.573 40.7341V41.0353H121.73V41.1106ZM124.518 40.4329C124.518 40.2071 124.443 40.0565 124.443 39.9059C124.368 39.7553 124.292 39.6047 124.217 39.4541C124.142 39.3035 123.991 39.2282 123.765 39.1529C123.539 39.0776 123.388 39.0776 123.162 39.0776C122.936 39.0776 122.785 39.1529 122.559 39.2282C122.408 39.3035 122.257 39.3788 122.107 39.5294C121.956 39.68 121.881 39.8306 121.805 39.9812C121.73 40.1318 121.73 40.2824 121.73 40.4329H124.518Z" fill="white"/>
<path d="M127.458 38.5506V39.2282C127.533 39.0776 127.608 39.0024 127.684 38.9271C127.759 38.8518 127.91 38.7765 127.985 38.7012C128.136 38.6259 128.211 38.5506 128.362 38.5506C128.513 38.4753 128.663 38.4753 128.814 38.4753C128.965 38.4753 129.116 38.4753 129.191 38.5506L129.116 39.4541C129.04 39.4541 128.965 39.4541 128.889 39.3788C128.814 39.3788 128.739 39.3788 128.663 39.3788C128.211 39.3788 127.91 39.5294 127.684 39.7553C127.458 39.9812 127.307 40.3577 127.307 40.8847V43.2188H126.402V38.5506H127.458Z" fill="white"/>
<path d="M130.171 38.5506H131.075V39.2282C131.15 39.0024 131.376 38.7765 131.678 38.6259C131.979 38.4753 132.281 38.4 132.658 38.4C132.884 38.4 133.11 38.4 133.336 38.4753C133.562 38.5506 133.713 38.6259 133.863 38.7765C134.014 38.9271 134.165 39.0777 134.24 39.3035C134.316 39.5294 134.391 39.7553 134.391 40.0565V42.9929H133.487V40.2824C133.487 40.0565 133.487 39.9059 133.411 39.7553C133.336 39.6047 133.26 39.4541 133.185 39.3788C133.11 39.3035 132.959 39.2282 132.884 39.1529C132.733 39.0776 132.658 39.0776 132.507 39.0776C132.356 39.0776 132.13 39.0776 131.979 39.1529C131.829 39.2282 131.678 39.3035 131.602 39.4541C131.452 39.6047 131.376 39.7553 131.301 39.9059C131.226 40.1318 131.226 40.3577 131.226 40.5835V42.9176H130.321V38.5506H130.171Z" fill="white"/>
<path d="M135.672 39.0776C135.898 38.8518 136.2 38.7012 136.501 38.5506C136.803 38.4753 137.179 38.4 137.481 38.4C137.858 38.4 138.084 38.4753 138.385 38.5506C138.611 38.6259 138.837 38.7765 138.988 38.9271C139.139 39.0777 139.29 39.2282 139.365 39.3788C139.44 39.5294 139.44 39.7553 139.44 39.9812V42.3153C139.44 42.4659 139.44 42.6165 139.44 42.7671C139.44 42.9176 139.44 43.0682 139.44 43.1435H138.687C138.687 42.9176 138.687 42.6918 138.687 42.4659C138.461 42.7671 138.234 42.9929 138.008 43.0682C137.707 43.2188 137.405 43.2188 137.104 43.2188C136.878 43.2188 136.652 43.2188 136.501 43.1435C136.275 43.0682 136.124 42.9929 135.974 42.9176C135.823 42.7671 135.747 42.6918 135.597 42.4659C135.521 42.3153 135.446 42.0894 135.446 41.8635C135.446 41.5624 135.521 41.3365 135.672 41.1106C135.823 40.8847 135.974 40.7341 136.2 40.6588C136.426 40.5082 136.727 40.4329 137.029 40.3576C137.33 40.2824 137.707 40.2824 138.008 40.2824H138.687V40.0565C138.687 39.9059 138.687 39.8306 138.611 39.68C138.536 39.5294 138.461 39.4541 138.385 39.3788C138.31 39.3035 138.159 39.2282 138.008 39.1529C137.858 39.0776 137.707 39.0776 137.481 39.0776C137.33 39.0776 137.179 39.0776 137.029 39.1529C136.878 39.1529 136.803 39.2282 136.652 39.3035C136.501 39.3788 136.426 39.3788 136.35 39.4541C136.275 39.5294 136.2 39.6047 136.124 39.6047L135.672 39.0776ZM138.159 40.8847C137.933 40.8847 137.707 40.8847 137.481 40.8847C137.255 40.8847 137.029 40.96 136.878 41.0353C136.727 41.1106 136.576 41.1859 136.426 41.3365C136.275 41.4871 136.275 41.6376 136.275 41.7882C136.275 42.0894 136.35 42.24 136.576 42.3906C136.727 42.5412 137.029 42.5412 137.33 42.5412C137.556 42.5412 137.782 42.4659 137.933 42.3906C138.084 42.3153 138.234 42.24 138.31 42.0894C138.385 41.9388 138.461 41.7882 138.536 41.6376C138.611 41.4871 138.611 41.3365 138.611 41.1859V40.8847H138.159Z" fill="white"/>
<path d="M141.927 39.3035V41.4118C141.927 41.5624 141.927 41.6376 141.927 41.7882C141.927 41.9388 141.927 42.0141 142.003 42.1647C142.078 42.24 142.078 42.3153 142.229 42.3906C142.304 42.4659 142.455 42.4659 142.605 42.4659C142.681 42.4659 142.832 42.4659 142.907 42.4659C142.982 42.4659 143.133 42.3906 143.208 42.3906V43.2188C143.133 43.2941 142.982 43.2941 142.832 43.3694C142.681 43.3694 142.53 43.3694 142.455 43.3694C142.078 43.3694 141.852 43.2941 141.701 43.2188C141.55 43.1435 141.4 42.9929 141.324 42.8424C141.249 42.6918 141.174 42.5412 141.174 42.3153C141.174 42.1647 141.174 41.9388 141.174 41.7882V39.3788H140.118V38.6259H141.174V37.3459H142.078V38.6259H143.359V39.3035H141.927ZM141.701 45.4024H140.947L141.55 43.5953H142.455L141.701 45.4024Z" fill="white"/>
<path d="M144.188 36.8941C144.188 36.7435 144.263 36.5929 144.414 36.4424C144.565 36.2918 144.716 36.2165 144.866 36.2165C145.017 36.2165 145.168 36.2918 145.319 36.4424C145.469 36.5929 145.545 36.7435 145.545 36.8941C145.545 37.0447 145.469 37.1953 145.319 37.3459C145.168 37.4965 145.017 37.5718 144.866 37.5718C144.716 37.5718 144.565 37.4965 144.414 37.3459C144.263 37.1953 144.188 37.0447 144.188 36.8941ZM144.414 38.5506H145.319V43.1435H144.414V38.5506Z" fill="white"/>
<path d="M146.449 40.8094C146.449 40.5082 146.524 40.1318 146.675 39.9059C146.826 39.6047 146.977 39.3788 147.203 39.1529C147.429 38.9271 147.655 38.7765 147.956 38.6259C148.258 38.4753 148.559 38.4 148.936 38.4C149.313 38.4 149.614 38.4753 149.916 38.6259C150.217 38.7765 150.443 38.9271 150.669 39.1529C150.895 39.3788 151.046 39.6047 151.197 39.9059C151.348 40.2071 151.423 40.5082 151.423 40.8094C151.423 41.1106 151.348 41.4871 151.197 41.7882C151.046 42.0894 150.895 42.3153 150.669 42.5412C150.443 42.7671 150.217 42.9177 149.916 43.0682C149.614 43.2188 149.313 43.2941 148.936 43.2941C148.559 43.2941 148.258 43.2188 147.956 43.0682C147.655 42.9177 147.429 42.7671 147.203 42.5412C146.977 42.3153 146.826 42.0894 146.675 41.7882C146.524 41.4871 146.449 41.1859 146.449 40.8094ZM147.429 40.8094C147.429 41.0353 147.429 41.2612 147.504 41.4871C147.579 41.7129 147.655 41.8635 147.806 42.0141C147.956 42.1647 148.107 42.24 148.258 42.3153C148.484 42.3906 148.635 42.4659 148.861 42.4659C149.087 42.4659 149.313 42.3906 149.464 42.3153C149.69 42.24 149.84 42.0894 149.916 42.0141C150.066 41.8635 150.142 41.7129 150.217 41.4871C150.292 41.2612 150.292 41.1106 150.292 40.8094C150.292 40.5835 150.292 40.3577 150.217 40.1318C150.142 39.9059 150.066 39.7553 149.916 39.6047C149.765 39.4541 149.614 39.3788 149.464 39.3035C149.237 39.2282 149.087 39.1529 148.861 39.1529C148.635 39.1529 148.408 39.2282 148.258 39.3035C148.032 39.3788 147.881 39.5294 147.806 39.6047C147.655 39.7553 147.579 39.9059 147.504 40.1318C147.429 40.3577 147.429 40.5835 147.429 40.8094Z" fill="white"/>
<path d="M152.553 38.5506H153.458V39.2282C153.533 39.0024 153.759 38.7765 154.061 38.6259C154.362 38.4753 154.664 38.4 155.04 38.4C155.266 38.4 155.493 38.4 155.719 38.4753C155.945 38.5506 156.095 38.6259 156.246 38.7765C156.397 38.9271 156.548 39.0777 156.623 39.3035C156.698 39.5294 156.774 39.7553 156.774 40.0565V42.9929H155.869V40.2824C155.869 40.0565 155.869 39.9059 155.794 39.7553C155.719 39.6047 155.643 39.4541 155.568 39.3788C155.493 39.3035 155.342 39.2282 155.266 39.1529C155.116 39.0776 155.04 39.0776 154.89 39.0776C154.739 39.0776 154.513 39.0776 154.362 39.1529C154.211 39.2282 154.061 39.3035 153.985 39.4541C153.835 39.6047 153.759 39.7553 153.684 39.9059C153.608 40.1318 153.608 40.3577 153.608 40.5835V42.9176H152.704V38.5506H152.553Z" fill="white"/>
<path d="M157.98 39.0776C158.206 38.8518 158.507 38.7012 158.809 38.5506C159.11 38.4753 159.487 38.4 159.788 38.4C160.165 38.4 160.391 38.4753 160.693 38.5506C160.919 38.6259 161.145 38.7765 161.295 38.9271C161.446 39.0777 161.597 39.2282 161.672 39.3788C161.748 39.5294 161.748 39.7553 161.748 39.9812V42.3153C161.748 42.4659 161.748 42.6165 161.748 42.7671C161.748 42.9176 161.748 43.0682 161.748 43.1435H160.994C160.994 42.9176 160.994 42.6918 160.994 42.4659C160.768 42.7671 160.542 42.9929 160.316 43.0682C160.014 43.2188 159.713 43.2188 159.411 43.2188C159.185 43.2188 158.959 43.2188 158.809 43.1435C158.582 43.0682 158.432 42.9929 158.281 42.9176C158.13 42.7671 158.055 42.6918 157.904 42.4659C157.829 42.3153 157.753 42.0894 157.753 41.8635C157.753 41.5624 157.829 41.3365 157.98 41.1106C158.13 40.8847 158.281 40.7341 158.507 40.6588C158.733 40.5082 159.035 40.4329 159.336 40.3576C159.637 40.2824 160.014 40.2824 160.316 40.2824H160.994V40.0565C160.994 39.9059 160.994 39.8306 160.919 39.68C160.843 39.5294 160.768 39.4541 160.693 39.3788C160.617 39.3035 160.466 39.2282 160.316 39.1529C160.165 39.0776 160.014 39.0776 159.788 39.0776C159.637 39.0776 159.487 39.0776 159.336 39.1529C159.185 39.1529 159.11 39.2282 158.959 39.3035C158.809 39.3788 158.733 39.3788 158.658 39.4541C158.582 39.5294 158.507 39.6047 158.432 39.6047L157.98 39.0776ZM160.466 40.8847C160.24 40.8847 160.014 40.8847 159.788 40.8847C159.562 40.8847 159.336 40.96 159.185 41.0353C159.035 41.1106 158.884 41.1859 158.733 41.3365C158.582 41.4871 158.582 41.6376 158.582 41.7882C158.582 42.0894 158.658 42.24 158.884 42.3906C159.035 42.5412 159.336 42.5412 159.637 42.5412C159.864 42.5412 160.09 42.4659 160.24 42.3906C160.391 42.3153 160.542 42.24 160.617 42.0894C160.693 41.9388 160.768 41.7882 160.843 41.6376C160.919 41.4871 160.919 41.3365 160.919 41.1859V40.8847H160.466Z" fill="white"/>
<path d="M163.104 35.7647H164.009V43.0682H163.104V35.7647Z" fill="white"/>
<path d="M172.826 43.1435H171.922V42.4659C171.771 42.6918 171.545 42.9177 171.243 43.0682C170.942 43.2188 170.64 43.2941 170.339 43.2941C169.962 43.2941 169.661 43.2188 169.359 43.1435C169.058 42.9929 168.832 42.8424 168.606 42.6165C168.38 42.3906 168.229 42.1647 168.154 41.8635C168.078 41.5624 168.003 41.2612 168.003 40.8847C168.003 40.5082 168.078 40.2071 168.154 39.9059C168.229 39.6047 168.455 39.3788 168.606 39.1529C168.832 38.9271 169.058 38.7765 169.359 38.6259C169.661 38.4753 169.962 38.4753 170.339 38.4753C170.64 38.4753 171.017 38.5506 171.243 38.7012C171.545 38.8518 171.771 39.0024 171.922 39.3035V35.9153H172.826V43.1435ZM170.414 42.3906C170.64 42.3906 170.867 42.3153 171.017 42.24C171.243 42.1647 171.394 42.0141 171.469 41.9388C171.62 41.7882 171.696 41.6376 171.771 41.4118C171.846 41.1859 171.846 41.0353 171.846 40.7341C171.846 40.5082 171.846 40.2824 171.771 40.0565C171.696 39.8306 171.62 39.68 171.469 39.5294C171.319 39.3788 171.168 39.3035 171.017 39.2282C170.791 39.1529 170.64 39.0776 170.414 39.0776C170.188 39.0776 169.962 39.1529 169.811 39.2282C169.585 39.3035 169.435 39.4541 169.359 39.5294C169.209 39.68 169.133 39.8306 169.058 40.0565C168.982 40.2824 168.982 40.4329 168.982 40.7341C168.982 40.96 168.982 41.1859 169.058 41.4118C169.133 41.6376 169.209 41.7882 169.359 41.9388C169.51 42.0894 169.661 42.1647 169.811 42.24C169.962 42.3906 170.188 42.3906 170.414 42.3906Z" fill="white"/>
<path d="M174.785 41.1106C174.785 41.3365 174.861 41.4871 174.936 41.6376C175.012 41.7882 175.162 41.9388 175.313 42.0894C175.464 42.24 175.614 42.3153 175.841 42.3906C176.067 42.4659 176.217 42.4659 176.443 42.4659C176.745 42.4659 176.971 42.3906 177.122 42.24C177.348 42.0894 177.499 41.9388 177.649 41.7129L178.327 42.24C177.8 42.8424 177.122 43.1435 176.293 43.1435C175.916 43.1435 175.614 43.0682 175.313 42.9929C175.012 42.8424 174.785 42.6918 174.559 42.4659C174.333 42.24 174.183 42.0141 174.107 41.7129C174.032 41.4118 173.956 41.1106 173.956 40.7341C173.956 40.3576 174.032 40.0565 174.107 39.7553C174.258 39.4541 174.409 39.2282 174.635 39.0024C174.861 38.7765 175.087 38.6259 175.388 38.4753C175.69 38.3247 175.991 38.3247 176.368 38.3247C176.745 38.3247 177.122 38.4 177.423 38.5506C177.725 38.7012 177.951 38.8518 178.101 39.0776C178.252 39.3035 178.403 39.5294 178.478 39.8306C178.554 40.1318 178.629 40.4329 178.629 40.7341V41.0353H174.785V41.1106ZM177.574 40.4329C177.574 40.2071 177.499 40.0565 177.499 39.9059C177.423 39.7553 177.348 39.6047 177.272 39.4541C177.197 39.3035 177.046 39.2282 176.82 39.1529C176.594 39.0776 176.443 39.0776 176.217 39.0776C175.991 39.0776 175.841 39.1529 175.614 39.2282C175.464 39.3035 175.313 39.3788 175.162 39.5294C175.012 39.68 174.936 39.8306 174.861 39.9812C174.785 40.1318 174.785 40.2824 174.785 40.4329H177.574Z" fill="white"/>
<path d="M78.7731 50.1459C78.547 49.92 78.3209 49.6941 78.0195 49.5435C77.718 49.3929 77.4165 49.3176 77.1151 49.3176C76.7383 49.3176 76.3615 49.3929 76.06 49.5435C75.7586 49.6941 75.4571 49.92 75.231 50.1459C75.0049 50.3718 74.8542 50.6729 74.7035 51.0494C74.5528 51.4259 74.5528 51.7271 74.5528 52.1035C74.5528 52.48 74.6281 52.7812 74.7035 53.1576C74.7789 53.5341 75.0049 53.76 75.231 53.9859C75.4571 54.2118 75.7586 54.4376 76.06 54.5882C76.3615 54.7388 76.7383 54.8141 77.1151 54.8141C77.4919 54.8141 77.8687 54.7388 78.1702 54.5882C78.4716 54.4376 78.6977 54.2118 78.9238 53.9106L79.7528 54.5129C79.6774 54.5882 79.6021 54.6635 79.4514 54.8141C79.3006 54.9647 79.1499 55.1153 78.9238 55.1906C78.6977 55.3412 78.4716 55.4165 78.1702 55.5671C77.8687 55.6424 77.4919 55.7176 77.1151 55.7176C76.5876 55.7176 76.06 55.6424 75.6078 55.4165C75.1557 55.1906 74.7788 54.9647 74.4774 54.5882C74.1759 54.2871 73.9499 53.9106 73.7991 53.4588C73.6484 53.0071 73.573 52.6306 73.573 52.1788C73.573 51.6518 73.6484 51.1247 73.8745 50.7482C74.0252 50.2965 74.3267 49.92 74.6281 49.6188C74.9296 49.3176 75.3064 49.0165 75.7586 48.8659C76.2107 48.7153 76.6629 48.5647 77.2658 48.5647C77.718 48.5647 78.1702 48.64 78.6224 48.7906C79.0745 48.9412 79.4514 49.2424 79.6774 49.6188L78.7731 50.1459Z" fill="white"/>
<path d="M80.3557 53.2329C80.3557 52.9318 80.4311 52.5553 80.5818 52.3294C80.7325 52.0282 80.8832 51.8024 81.1093 51.5765C81.3354 51.3506 81.5615 51.2 81.863 51.0494C82.1644 50.8988 82.4659 50.8235 82.8427 50.8235C83.2195 50.8235 83.521 50.8988 83.8224 51.0494C84.1239 51.2 84.3499 51.3506 84.576 51.5765C84.8021 51.8024 84.9529 52.0282 85.1036 52.3294C85.2543 52.6306 85.3297 52.9318 85.3297 53.2329C85.3297 53.5341 85.2543 53.9106 85.1036 54.2118C84.9529 54.5129 84.8021 54.7388 84.576 54.9647C84.3499 55.1906 84.1239 55.3412 83.8224 55.4918C83.521 55.6424 83.2195 55.7176 82.8427 55.7176C82.4659 55.7176 82.1644 55.6424 81.863 55.4918C81.5615 55.3412 81.3354 55.1906 81.1093 54.9647C80.8832 54.7388 80.7325 54.5129 80.5818 54.2118C80.4311 53.8353 80.3557 53.5341 80.3557 53.2329ZM81.3354 53.2329C81.3354 53.4588 81.3354 53.6847 81.4108 53.9106C81.4862 54.1365 81.5615 54.2871 81.7122 54.4376C81.863 54.5882 82.0137 54.6635 82.1644 54.7388C82.3905 54.8141 82.5412 54.8894 82.7673 54.8894C82.9934 54.8894 83.2195 54.8141 83.3702 54.7388C83.5963 54.6635 83.747 54.5129 83.8224 54.4376C83.9731 54.2871 84.0485 54.1365 84.1239 53.9106C84.1992 53.6847 84.1992 53.5341 84.1992 53.2329C84.1992 53.0071 84.1992 52.7812 84.1239 52.5553C84.0485 52.3294 83.9731 52.1788 83.8224 52.0282C83.6717 51.8776 83.521 51.8024 83.3702 51.7271C83.1441 51.6518 82.9934 51.5765 82.7673 51.5765C82.5412 51.5765 82.3151 51.6518 82.1644 51.7271C81.9383 51.8024 81.7876 51.9529 81.7122 52.0282C81.5615 52.1788 81.4862 52.3294 81.4108 52.5553C81.3354 52.7812 81.3354 53.0071 81.3354 53.2329Z" fill="white"/>
<path d="M86.4601 48.1882H87.3645V55.4918H86.4601V48.1882Z" fill="white"/>
<path d="M88.7963 51.5012C89.0224 51.2753 89.3239 51.1247 89.6254 50.9741C89.9268 50.8988 90.3036 50.8235 90.6051 50.8235C90.9819 50.8235 91.208 50.8988 91.5094 50.9741C91.7355 51.0494 91.9616 51.2 92.1123 51.3506C92.263 51.5012 92.4138 51.6518 92.4891 51.8024C92.5645 51.9529 92.5645 52.1788 92.5645 52.4047V54.7388C92.5645 54.8894 92.5645 55.04 92.5645 55.1906C92.5645 55.3412 92.5645 55.4918 92.5645 55.5671H91.8109C91.8109 55.3412 91.8109 55.1153 91.8109 54.8894C91.5848 55.1906 91.3587 55.4165 91.1326 55.4918C90.8312 55.6424 90.5297 55.6424 90.2282 55.6424C90.0022 55.6424 89.7761 55.6424 89.6254 55.5671C89.3993 55.4918 89.2485 55.4165 89.0978 55.3412C88.9471 55.1906 88.8717 55.1153 88.721 54.8894C88.6456 54.7388 88.5703 54.5129 88.5703 54.2871C88.5703 53.9859 88.6456 53.76 88.7963 53.5341C88.9471 53.3082 89.0978 53.1576 89.3239 53.0824C89.55 52.9318 89.8514 52.8565 90.1529 52.7812C90.4543 52.7059 90.8312 52.7059 91.1326 52.7059H91.8109V52.48C91.8109 52.3294 91.8109 52.2541 91.7355 52.1035C91.6601 51.9529 91.5848 51.8777 91.5094 51.8024C91.4341 51.7271 91.2833 51.6518 91.1326 51.5765C90.9819 51.5012 90.8312 51.5012 90.6051 51.5012C90.4543 51.5012 90.3036 51.5012 90.1529 51.5765C90.0022 51.5765 89.9268 51.6518 89.7761 51.7271C89.6253 51.8024 89.55 51.8024 89.4746 51.8776C89.3993 51.9529 89.3239 52.0282 89.2485 52.0282L88.7963 51.5012ZM91.2833 53.3082C91.0572 53.3082 90.8312 53.3082 90.6051 53.3082C90.379 53.3082 90.1529 53.3835 90.0022 53.4588C89.8514 53.5341 89.7007 53.6094 89.55 53.76C89.3993 53.9106 89.3993 54.0612 89.3993 54.2118C89.3993 54.5129 89.4746 54.6635 89.7007 54.8141C89.8514 54.9647 90.1529 54.9647 90.4543 54.9647C90.6804 54.9647 90.9065 54.8894 91.0572 54.8141C91.208 54.7388 91.3587 54.6635 91.4341 54.5129C91.5094 54.3624 91.5848 54.2118 91.6601 54.0612C91.7355 53.9106 91.7355 53.76 91.7355 53.6094V53.3082H91.2833Z" fill="white"/>
<path d="M93.8457 48.1882H94.75V51.5765C94.9007 51.3506 95.1268 51.1247 95.4283 50.9741C95.7297 50.8235 96.0312 50.7482 96.3326 50.7482C96.7095 50.7482 97.0109 50.8235 97.3124 50.8988C97.6138 51.0494 97.8399 51.2 98.066 51.4259C98.2921 51.6518 98.4428 51.8777 98.5182 52.1788C98.5935 52.48 98.6689 52.7812 98.6689 53.1576C98.6689 53.5341 98.5935 53.8353 98.5182 54.1365C98.4428 54.4376 98.2167 54.6635 98.066 54.8894C97.8399 55.1153 97.6138 55.2659 97.3124 55.4165C97.0109 55.5671 96.7095 55.5671 96.3326 55.5671C96.0312 55.5671 95.7297 55.4918 95.4283 55.3412C95.1268 55.1906 94.9007 55.04 94.75 54.7388V55.4165H93.8457V48.1882ZM96.2573 54.8141C96.4834 54.8141 96.7095 54.7388 96.8602 54.6635C97.0863 54.5882 97.237 54.4376 97.3124 54.3624C97.4631 54.2118 97.5384 54.0612 97.6138 53.8353C97.6892 53.6094 97.6892 53.4588 97.6892 53.1576C97.6892 52.9318 97.6892 52.7059 97.6138 52.48C97.5384 52.2541 97.4631 52.1035 97.3124 51.9529C97.1616 51.8024 97.0109 51.7271 96.8602 51.6518C96.6341 51.5765 96.4834 51.5012 96.2573 51.5012C96.0312 51.5012 95.8051 51.5765 95.6544 51.6518C95.4283 51.7271 95.2776 51.8776 95.2022 51.9529C95.0515 52.1035 94.9761 52.2541 94.9007 52.48C94.8254 52.7059 94.8254 52.8565 94.8254 53.1576C94.8254 53.3835 94.8254 53.6094 94.9007 53.8353C94.9761 54.0612 95.0515 54.2118 95.2022 54.3624C95.3529 54.5129 95.5037 54.5882 95.6544 54.6635C95.8051 54.7388 96.0312 54.8141 96.2573 54.8141Z" fill="white"/>
<path d="M99.6486 53.2329C99.6486 52.9318 99.724 52.5553 99.8747 52.3294C100.025 52.0282 100.176 51.8024 100.402 51.5765C100.628 51.3506 100.854 51.2 101.156 51.0494C101.457 50.8988 101.759 50.8235 102.136 50.8235C102.512 50.8235 102.814 50.8988 103.115 51.0494C103.417 51.2 103.643 51.3506 103.869 51.5765C104.095 51.8024 104.246 52.0282 104.396 52.3294C104.547 52.6306 104.623 52.9318 104.623 53.2329C104.623 53.5341 104.547 53.9106 104.396 54.2118C104.246 54.5129 104.095 54.7388 103.869 54.9647C103.643 55.1906 103.417 55.3412 103.115 55.4918C102.814 55.6424 102.512 55.7176 102.136 55.7176C101.759 55.7176 101.457 55.6424 101.156 55.4918C100.854 55.3412 100.628 55.1906 100.402 54.9647C100.176 54.7388 100.025 54.5129 99.8747 54.2118C99.724 53.8353 99.6486 53.5341 99.6486 53.2329ZM100.553 53.2329C100.553 53.4588 100.553 53.6847 100.628 53.9106C100.704 54.1365 100.779 54.2871 100.93 54.4376C101.081 54.5882 101.231 54.6635 101.382 54.7388C101.608 54.8141 101.759 54.8894 101.985 54.8894C102.211 54.8894 102.437 54.8141 102.588 54.7388C102.814 54.6635 102.965 54.5129 103.04 54.4376C103.191 54.2871 103.266 54.1365 103.341 53.9106C103.417 53.6847 103.417 53.5341 103.417 53.2329C103.417 53.0071 103.417 52.7812 103.341 52.5553C103.266 52.3294 103.191 52.1788 103.04 52.0282C102.889 51.8776 102.738 51.8024 102.588 51.7271C102.362 51.6518 102.211 51.5765 101.985 51.5765C101.759 51.5765 101.533 51.6518 101.382 51.7271C101.156 51.8024 101.005 51.9529 100.93 52.0282C100.779 52.1788 100.704 52.3294 100.628 52.5553C100.628 52.7812 100.553 53.0071 100.553 53.2329Z" fill="white"/>
<path d="M106.582 50.8988V51.5765C106.657 51.4259 106.733 51.3506 106.808 51.2753C106.883 51.2 107.034 51.1247 107.11 51.0494C107.26 50.9741 107.336 50.8988 107.486 50.8988C107.637 50.8235 107.788 50.8235 107.939 50.8235C108.089 50.8235 108.24 50.8235 108.315 50.8988L108.24 51.8024C108.165 51.8024 108.089 51.8024 108.014 51.7271C107.939 51.7271 107.863 51.7271 107.788 51.7271C107.336 51.7271 107.034 51.8776 106.808 52.1035C106.582 52.3294 106.431 52.7059 106.431 53.2329V55.5671H105.527V50.8988H106.582Z" fill="white"/>
<path d="M109.295 51.5012C109.521 51.2753 109.823 51.1247 110.124 50.9741C110.426 50.8988 110.802 50.8235 111.104 50.8235C111.481 50.8235 111.707 50.8988 112.008 50.9741C112.234 51.0494 112.46 51.2 112.611 51.3506C112.762 51.5012 112.912 51.6518 112.988 51.8024C113.063 51.9529 113.063 52.1788 113.063 52.4047V54.7388C113.063 54.8894 113.063 55.04 113.063 55.1906C113.063 55.3412 113.063 55.4918 113.063 55.5671H112.31C112.31 55.3412 112.31 55.1153 112.31 54.8894C112.083 55.1906 111.857 55.4165 111.631 55.4918C111.33 55.6424 111.028 55.6424 110.727 55.6424C110.501 55.6424 110.275 55.6424 110.124 55.5671C109.973 55.4918 109.747 55.4165 109.597 55.3412C109.446 55.1906 109.37 55.1153 109.22 54.8894C109.144 54.7388 109.069 54.5129 109.069 54.2871C109.069 53.9859 109.144 53.76 109.295 53.5341C109.446 53.3082 109.597 53.1576 109.823 53.0824C110.049 52.9318 110.35 52.8565 110.652 52.7812C110.953 52.7059 111.33 52.7059 111.631 52.7059H112.31V52.48C112.31 52.3294 112.31 52.2541 112.234 52.1035C112.159 51.9529 112.083 51.8777 112.008 51.8024C111.933 51.7271 111.782 51.6518 111.631 51.5765C111.481 51.5012 111.33 51.5012 111.104 51.5012C110.953 51.5012 110.802 51.5012 110.652 51.5765C110.501 51.5765 110.426 51.6518 110.275 51.7271C110.124 51.8024 110.049 51.8024 109.973 51.8776C109.898 51.9529 109.823 52.0282 109.747 52.0282L109.295 51.5012ZM111.782 53.3082C111.556 53.3082 111.33 53.3082 111.104 53.3082C110.878 53.3082 110.652 53.3835 110.501 53.4588C110.35 53.5341 110.199 53.6094 110.049 53.76C109.898 53.9106 109.898 54.0612 109.898 54.2118C109.898 54.5129 109.973 54.6635 110.199 54.8141C110.35 54.9647 110.652 54.9647 110.953 54.9647C111.179 54.9647 111.405 54.8894 111.556 54.8141C111.707 54.7388 111.857 54.6635 111.933 54.5129C112.008 54.3624 112.083 54.2118 112.159 54.0612C112.234 53.9106 112.234 53.76 112.234 53.6094V53.3082H111.782Z" fill="white"/>
<path d="M115.324 50.8988V51.5765C115.399 51.4259 115.475 51.3506 115.55 51.2753C115.626 51.2 115.776 51.1247 115.852 51.0494C116.002 50.9741 116.078 50.8988 116.228 50.8988C116.379 50.8235 116.53 50.8235 116.681 50.8235C116.831 50.8235 116.982 50.8235 117.057 50.8988L116.982 51.8024C116.907 51.8024 116.831 51.8024 116.756 51.7271C116.681 51.7271 116.605 51.7271 116.53 51.7271C116.078 51.7271 115.776 51.8776 115.55 52.1035C115.324 52.3294 115.173 52.7059 115.173 53.2329V55.5671H114.269V50.8988H115.324Z" fill="white"/>
<path d="M118.489 53.5341C118.489 53.76 118.565 53.9106 118.64 54.0612C118.715 54.2118 118.866 54.3624 119.017 54.5129C119.168 54.6635 119.318 54.7388 119.544 54.8141C119.771 54.8894 119.921 54.8894 120.147 54.8894C120.449 54.8894 120.675 54.8141 120.826 54.6635C121.052 54.5129 121.202 54.3624 121.353 54.1365L122.031 54.6635C121.504 55.2659 120.826 55.5671 119.997 55.5671C119.62 55.5671 119.318 55.4918 119.017 55.4165C118.715 55.2659 118.489 55.1153 118.263 54.8894C118.037 54.6635 117.886 54.4376 117.811 54.1365C117.736 53.8353 117.66 53.5341 117.66 53.1576C117.66 52.7812 117.736 52.48 117.811 52.1788C117.886 51.8777 118.113 51.6518 118.339 51.4259C118.565 51.2 118.791 51.0494 119.092 50.8988C119.394 50.7482 119.695 50.7482 120.072 50.7482C120.449 50.7482 120.826 50.8235 121.127 50.9741C121.428 51.1247 121.655 51.2753 121.805 51.5012C121.956 51.7271 122.107 51.9529 122.182 52.2541C122.257 52.5553 122.333 52.8565 122.333 53.1576V53.4588H118.489V53.5341ZM121.278 52.8565C121.278 52.6306 121.202 52.48 121.202 52.3294C121.127 52.1788 121.052 52.0282 120.976 51.8776C120.901 51.7271 120.75 51.6518 120.524 51.5765C120.298 51.5012 120.147 51.5012 119.921 51.5012C119.695 51.5012 119.544 51.5765 119.318 51.6518C119.168 51.7271 119.017 51.8024 118.866 51.9529C118.715 52.1035 118.64 52.2541 118.565 52.4047C118.489 52.5553 118.489 52.7059 118.489 52.8565H121.278Z" fill="white"/>
<path d="M128.513 52.0282C128.437 51.8776 128.287 51.8024 128.136 51.7271C127.985 51.6518 127.759 51.5765 127.608 51.5765C127.382 51.5765 127.231 51.6518 127.081 51.7271C126.93 51.8024 126.855 51.9529 126.855 52.1035C126.855 52.2541 126.93 52.3294 127.005 52.4047C127.081 52.48 127.231 52.5553 127.307 52.6306C127.458 52.7059 127.533 52.7059 127.684 52.7812C127.834 52.7812 127.91 52.8565 128.06 52.8565C128.287 52.9318 128.437 52.9318 128.588 53.0071C128.739 53.0824 128.889 53.1576 129.04 53.2329C129.191 53.3082 129.266 53.4588 129.342 53.6094C129.417 53.76 129.417 53.9106 129.417 54.1365C129.417 54.3624 129.342 54.5882 129.266 54.8141C129.191 54.9647 129.04 55.1153 128.814 55.2659C128.663 55.4165 128.437 55.4918 128.211 55.4918C127.985 55.5671 127.759 55.5671 127.533 55.5671C127.156 55.5671 126.779 55.4918 126.553 55.4165C126.252 55.2659 126.026 55.1153 125.8 54.8141L126.478 54.2871C126.629 54.4376 126.779 54.5882 126.93 54.6635C127.081 54.7388 127.307 54.8141 127.608 54.8141C127.684 54.8141 127.834 54.8141 127.91 54.8141C128.06 54.8141 128.136 54.7388 128.211 54.7388C128.287 54.6635 128.362 54.6635 128.437 54.5882C128.513 54.5129 128.513 54.4376 128.513 54.3624C128.513 54.2118 128.437 54.1365 128.362 54.0612C128.287 53.9859 128.211 53.9106 128.06 53.8353C127.91 53.76 127.834 53.76 127.684 53.6847C127.533 53.6847 127.458 53.6094 127.382 53.6094C127.156 53.5341 127.005 53.5341 126.855 53.4588C126.704 53.3835 126.553 53.3082 126.402 53.2329C126.252 53.1576 126.176 53.0071 126.101 52.8565C126.026 52.7059 125.95 52.5553 125.95 52.3294C125.95 52.1035 126.026 51.8776 126.101 51.7271C126.176 51.5765 126.327 51.4259 126.478 51.2753C126.629 51.1247 126.855 51.0494 127.081 51.0494C127.307 50.9741 127.533 50.9741 127.759 50.9741C128.06 50.9741 128.362 51.0494 128.663 51.1247C128.965 51.2753 129.191 51.4259 129.342 51.7271L128.513 52.0282Z" fill="white"/>
<path d="M130.246 49.2424C130.246 49.0918 130.321 48.9412 130.472 48.7906C130.623 48.64 130.773 48.5647 130.924 48.5647C131.075 48.5647 131.226 48.64 131.376 48.7906C131.527 48.9412 131.602 49.0918 131.602 49.2424C131.602 49.3929 131.527 49.5435 131.376 49.6941C131.226 49.8447 131.075 49.92 130.924 49.92C130.773 49.92 130.623 49.8447 130.472 49.6941C130.321 49.6188 130.246 49.4682 130.246 49.2424ZM130.472 50.8988H131.376V55.4918H130.472V50.8988Z" fill="white"/>
<path d="M135.521 48.64H137.933C138.461 48.64 138.837 48.7153 139.214 48.7906C139.591 48.8659 139.892 49.0165 140.194 49.2424C140.495 49.3929 140.721 49.6188 140.872 49.8447C141.023 50.0706 141.174 50.2965 141.324 50.5976C141.4 50.8235 141.475 51.1247 141.55 51.3506C141.626 51.5765 141.626 51.8024 141.626 52.0282C141.626 52.48 141.55 52.8565 141.4 53.3082C141.249 53.6847 141.023 54.0612 140.646 54.4376C140.345 54.7388 139.892 55.04 139.44 55.1906C138.988 55.4165 138.385 55.4918 137.782 55.4918H135.521V48.64ZM136.501 54.6635H137.707C138.084 54.6635 138.461 54.5882 138.837 54.5129C139.214 54.4376 139.516 54.2118 139.742 54.0612C140.043 53.8353 140.194 53.6094 140.345 53.2329C140.495 52.9318 140.571 52.5553 140.571 52.1035C140.571 51.8776 140.571 51.6518 140.495 51.3506C140.42 51.0494 140.269 50.7482 140.118 50.5224C139.892 50.2212 139.666 50.0706 139.29 49.8447C138.913 49.6941 138.461 49.5435 137.933 49.5435H136.501V54.6635Z" fill="white"/>
<path d="M143.359 53.5341C143.359 53.76 143.434 53.9106 143.51 54.0612C143.585 54.2118 143.736 54.3624 143.887 54.5129C144.037 54.6635 144.188 54.7388 144.414 54.8141C144.64 54.8894 144.791 54.8894 145.017 54.8894C145.319 54.8894 145.545 54.8141 145.695 54.6635C145.921 54.5129 146.072 54.3624 146.223 54.1365L146.901 54.6635C146.374 55.2659 145.695 55.5671 144.866 55.5671C144.49 55.5671 144.188 55.4918 143.887 55.4165C143.585 55.2659 143.359 55.1153 143.133 54.8894C142.907 54.6635 142.756 54.4376 142.681 54.1365C142.605 53.8353 142.53 53.5341 142.53 53.1576C142.53 52.7812 142.605 52.48 142.681 52.1788C142.756 51.8777 142.982 51.6518 143.208 51.4259C143.434 51.2 143.661 51.0494 143.962 50.8988C144.263 50.7482 144.565 50.7482 144.942 50.7482C145.319 50.7482 145.695 50.8235 145.997 50.9741C146.298 51.1247 146.524 51.2753 146.675 51.5012C146.826 51.7271 146.977 51.9529 147.052 52.2541C147.127 52.5553 147.203 52.8565 147.203 53.1576V53.4588H143.359V53.5341ZM146.148 52.8565C146.148 52.6306 146.072 52.48 146.072 52.3294C145.997 52.1788 145.921 52.0282 145.846 51.8776C145.771 51.7271 145.62 51.6518 145.394 51.5765C145.168 51.5012 145.017 51.5012 144.791 51.5012C144.565 51.5012 144.414 51.5765 144.188 51.6518C144.037 51.7271 143.887 51.8024 143.736 51.9529C143.585 52.1035 143.51 52.2541 143.434 52.4047C143.359 52.5553 143.359 52.7059 143.359 52.8565H146.148Z" fill="white"/>
<path d="M147.881 54.7388L150.519 51.6518H147.956V50.8988H151.574V51.6518L148.936 54.7388H151.724V55.4918H147.881V54.7388Z" fill="white"/>
<path d="M152.177 50.8988H153.232L154.588 54.4376L155.945 50.8988H156.849L155.04 55.4918H154.061L152.177 50.8988Z" fill="white"/>
<path d="M157.377 53.2329C157.377 52.9318 157.452 52.5553 157.603 52.3294C157.753 52.0282 157.904 51.8024 158.13 51.5765C158.356 51.3506 158.582 51.2 158.884 51.0494C159.185 50.8988 159.487 50.8235 159.864 50.8235C160.24 50.8235 160.542 50.8988 160.843 51.0494C161.145 51.2 161.371 51.3506 161.597 51.5765C161.823 51.8024 161.974 52.0282 162.124 52.3294C162.275 52.6306 162.351 52.9318 162.351 53.2329C162.351 53.5341 162.275 53.9106 162.124 54.2118C161.974 54.5129 161.823 54.7388 161.597 54.9647C161.371 55.1906 161.145 55.3412 160.843 55.4918C160.542 55.6424 160.24 55.7176 159.864 55.7176C159.487 55.7176 159.185 55.6424 158.884 55.4918C158.582 55.3412 158.356 55.1906 158.13 54.9647C157.904 54.7388 157.753 54.5129 157.603 54.2118C157.452 53.8353 157.377 53.5341 157.377 53.2329ZM158.356 53.2329C158.356 53.4588 158.356 53.6847 158.432 53.9106C158.507 54.1365 158.582 54.2871 158.733 54.4376C158.884 54.5882 159.035 54.6635 159.185 54.7388C159.411 54.8141 159.562 54.8894 159.788 54.8894C160.014 54.8894 160.24 54.8141 160.391 54.7388C160.617 54.6635 160.768 54.5129 160.843 54.4376C160.994 54.2871 161.069 54.1365 161.145 53.9106C161.22 53.6847 161.22 53.5341 161.22 53.2329C161.22 53.0071 161.22 52.7812 161.145 52.5553C161.069 52.3294 160.994 52.1788 160.843 52.0282C160.693 51.8776 160.542 51.8024 160.391 51.7271C160.165 51.6518 160.014 51.5765 159.788 51.5765C159.562 51.5765 159.336 51.6518 159.185 51.7271C158.959 51.8024 158.809 51.9529 158.733 52.0282C158.582 52.1788 158.507 52.3294 158.432 52.5553C158.356 52.7812 158.356 53.0071 158.356 53.2329Z" fill="white"/>
<path d="M163.481 48.1882H164.385V55.4918H163.481V48.1882Z" fill="white"/>
<path d="M167.023 51.6518V53.76C167.023 53.9106 167.023 53.9859 167.023 54.1365C167.023 54.2871 167.023 54.3624 167.098 54.5129C167.174 54.5882 167.174 54.6635 167.325 54.7388C167.4 54.8141 167.551 54.8141 167.701 54.8141C167.777 54.8141 167.927 54.8141 168.003 54.8141C168.078 54.8141 168.229 54.7388 168.304 54.7388V55.5671C168.229 55.6424 168.078 55.6424 167.927 55.7176C167.777 55.7176 167.626 55.7176 167.551 55.7176C167.174 55.7176 166.948 55.6424 166.797 55.5671C166.646 55.4918 166.496 55.3412 166.42 55.1906C166.345 55.04 166.269 54.8894 166.269 54.6635C166.269 54.5129 166.269 54.2871 166.269 54.1365V51.7271H165.139V50.9741H166.194V49.6941H167.098V50.9741H168.38V51.6518H167.023Z" fill="white"/>
<path d="M169.435 51.5012C169.661 51.2753 169.962 51.1247 170.264 50.9741C170.565 50.8988 170.942 50.8235 171.243 50.8235C171.62 50.8235 171.846 50.8988 172.148 50.9741C172.374 51.0494 172.6 51.2 172.751 51.3506C172.901 51.5012 173.052 51.6518 173.127 51.8024C173.203 51.9529 173.203 52.1788 173.203 52.4047V54.7388C173.203 54.8894 173.203 55.04 173.203 55.1906C173.203 55.3412 173.203 55.4918 173.203 55.5671H172.449C172.449 55.3412 172.449 55.1153 172.449 54.8894C172.223 55.1906 171.997 55.4165 171.771 55.4918C171.469 55.6424 171.168 55.6424 170.867 55.6424C170.64 55.6424 170.414 55.6424 170.264 55.5671C170.113 55.4918 169.887 55.4165 169.736 55.3412C169.585 55.1906 169.51 55.1153 169.359 54.8894C169.284 54.7388 169.209 54.5129 169.209 54.2871C169.209 53.9859 169.284 53.76 169.435 53.5341C169.585 53.3082 169.736 53.1576 169.962 53.0824C170.188 52.9318 170.49 52.8565 170.791 52.7812C171.093 52.7059 171.469 52.7059 171.771 52.7059H172.449V52.48C172.449 52.3294 172.449 52.2541 172.374 52.1035C172.298 51.9529 172.223 51.8777 172.148 51.8024C172.072 51.7271 171.922 51.6518 171.771 51.5765C171.62 51.5012 171.469 51.5012 171.243 51.5012C171.093 51.5012 170.942 51.5012 170.791 51.5765C170.64 51.5765 170.565 51.6518 170.414 51.7271C170.264 51.8024 170.188 51.8024 170.113 51.8776C170.038 51.9529 169.962 52.0282 169.887 52.0282L169.435 51.5012ZM171.922 53.3082C171.696 53.3082 171.469 53.3082 171.243 53.3082C171.017 53.3082 170.791 53.3835 170.64 53.4588C170.49 53.5341 170.339 53.6094 170.188 53.76C170.038 53.9106 170.038 54.0612 170.038 54.2118C170.038 54.5129 170.113 54.6635 170.339 54.8141C170.49 54.9647 170.791 54.9647 171.093 54.9647C171.319 54.9647 171.545 54.8894 171.696 54.8141C171.846 54.7388 171.997 54.6635 172.072 54.5129C172.148 54.3624 172.223 54.2118 172.298 54.0612C172.374 53.9106 172.374 53.76 172.374 53.6094V53.3082H171.922Z" fill="white"/>
<path d="M175.388 50.8988V51.5765C175.464 51.4259 175.539 51.3506 175.614 51.2753C175.69 51.2 175.841 51.1247 175.916 51.0494C176.067 50.9741 176.142 50.8988 176.293 50.8988C176.443 50.8235 176.594 50.8235 176.745 50.8235C176.896 50.8235 177.046 50.8235 177.122 50.8988L177.046 51.8024C176.971 51.8024 176.896 51.8024 176.82 51.7271C176.745 51.7271 176.67 51.7271 176.594 51.7271C176.142 51.7271 175.841 51.8776 175.614 52.1035C175.388 52.3294 175.238 52.7059 175.238 53.2329V55.5671H174.333V50.8988H175.388Z" fill="white"/>
<path d="M178.629 53.5341C178.629 53.76 178.704 53.9106 178.78 54.0612C178.855 54.2118 179.006 54.3624 179.156 54.5129C179.307 54.6635 179.458 54.7388 179.684 54.8141C179.91 54.8894 180.061 54.8894 180.287 54.8894C180.588 54.8894 180.814 54.8141 180.965 54.6635C181.191 54.5129 181.342 54.3624 181.493 54.1365L182.171 54.6635C181.643 55.2659 180.965 55.5671 180.136 55.5671C179.759 55.5671 179.458 55.4918 179.156 55.4165C178.855 55.2659 178.629 55.1153 178.403 54.8894C178.177 54.6635 178.026 54.4376 177.951 54.1365C177.875 53.8353 177.8 53.5341 177.8 53.1576C177.8 52.7812 177.875 52.48 177.951 52.1788C178.026 51.8777 178.252 51.6518 178.478 51.4259C178.704 51.2 178.93 51.0494 179.232 50.8988C179.533 50.7482 179.835 50.7482 180.212 50.7482C180.588 50.7482 180.965 50.8235 181.267 50.9741C181.568 51.1247 181.794 51.2753 181.945 51.5012C182.096 51.7271 182.246 51.9529 182.322 52.2541C182.397 52.5553 182.472 52.8565 182.472 53.1576V53.4588H178.629V53.5341ZM181.417 52.8565C181.417 52.6306 181.342 52.48 181.342 52.3294C181.267 52.1788 181.191 52.0282 181.116 51.8776C181.041 51.7271 180.89 51.6518 180.664 51.5765C180.438 51.5012 180.287 51.5012 180.061 51.5012C179.835 51.5012 179.684 51.5765 179.458 51.6518C179.307 51.7271 179.156 51.8024 179.006 51.9529C178.855 52.1035 178.78 52.2541 178.704 52.4047C178.629 52.5553 178.629 52.7059 178.629 52.8565H181.417Z" fill="white"/>
<path d="M88.4949 15.7365C88.4949 16.8659 88.2688 17.8447 87.8166 18.6729C87.3645 19.5012 86.8369 20.1035 86.0833 20.5553C85.3297 21.0071 84.5007 21.3835 83.5963 21.6094C82.6166 21.8353 81.6369 21.9106 80.6572 21.9106H78.3209V29.3647H73.573V9.71294H80.8079C81.863 9.71294 82.918 9.78824 83.8224 10.0141C84.7268 10.24 85.5557 10.5412 86.3094 11.0682C86.9876 11.52 87.5905 12.1976 87.9674 12.9506C88.2688 13.7035 88.4949 14.6071 88.4949 15.7365ZM83.6717 15.8118C83.6717 15.36 83.5963 14.9835 83.3702 14.6824C83.2195 14.3812 82.918 14.1553 82.6166 14.0047C82.3151 13.8541 81.9383 13.7035 81.5615 13.7035C81.1847 13.6282 80.7325 13.6282 80.3557 13.6282H78.2455V18.2965H80.2803C80.7325 18.2965 81.1847 18.2965 81.5615 18.2212C81.9383 18.1459 82.3151 17.9953 82.692 17.8447C82.9934 17.6941 83.2949 17.3929 83.4456 17.0918C83.5963 16.64 83.6717 16.2635 83.6717 15.8118Z" fill="white"/>
<path d="M100.252 29.44V21.9106C100.252 21.5341 100.252 21.1576 100.176 20.7812C100.101 20.4047 100.025 20.1035 99.8747 19.8776C99.724 19.5765 99.4979 19.4259 99.2718 19.2C99.0457 19.0494 98.6689 18.9741 98.2921 18.9741C97.4631 18.9741 96.8602 19.2753 96.4834 19.8024C96.0312 20.4047 95.8051 21.0824 95.8051 21.9106V29.44H91.208V8.35765H95.8051V17.3176H95.8805C96.1819 16.7906 96.7095 16.2635 97.3877 15.8118C98.066 15.36 98.895 15.1341 99.8747 15.1341C100.854 15.1341 101.608 15.2847 102.286 15.6612C102.965 15.9624 103.417 16.4141 103.869 16.9412C104.246 17.4682 104.547 18.0706 104.698 18.7482C104.849 19.4259 104.999 20.1035 104.999 20.7812V29.3647H100.252V29.44Z" fill="white"/>
<path d="M123.086 22.4376C123.086 23.5671 122.86 24.6212 122.484 25.5247C122.107 26.4282 121.504 27.2565 120.826 27.8588C120.147 28.5365 119.318 28.9882 118.339 29.3647C117.434 29.7412 116.379 29.8918 115.324 29.8918C114.269 29.8918 113.289 29.7412 112.385 29.3647C111.481 28.9882 110.652 28.5365 109.898 27.8588C109.22 27.1812 108.617 26.4282 108.24 25.5247C107.863 24.6212 107.637 23.5671 107.637 22.4376C107.637 21.3082 107.863 20.2541 108.24 19.3506C108.617 18.4471 109.22 17.6941 109.898 17.0165C110.576 16.4141 111.405 15.8871 112.385 15.5859C113.289 15.2847 114.344 15.0588 115.324 15.0588C116.379 15.0588 117.359 15.2094 118.339 15.5859C119.243 15.8871 120.072 16.4141 120.826 17.0165C121.504 17.6188 122.107 18.4471 122.484 19.3506C122.86 20.2541 123.086 21.3082 123.086 22.4376ZM118.64 22.4376C118.64 21.9859 118.565 21.5341 118.414 21.1576C118.263 20.7059 118.037 20.3294 117.736 20.0282C117.434 19.7271 117.133 19.4259 116.681 19.2C116.304 18.9741 115.776 18.8988 115.249 18.8988C114.721 18.8988 114.269 18.9741 113.817 19.2C113.44 19.4259 113.063 19.6518 112.762 20.0282C112.46 20.3294 112.31 20.7059 112.159 21.1576C112.008 21.6094 111.933 21.9859 111.933 22.4376C111.933 22.8894 112.008 23.3412 112.159 23.7176C112.31 24.1694 112.536 24.5459 112.762 24.8471C113.063 25.2235 113.365 25.4494 113.817 25.6753C114.194 25.9012 114.721 25.9765 115.249 25.9765C115.776 25.9765 116.228 25.9012 116.681 25.6753C117.057 25.4494 117.434 25.2235 117.736 24.8471C118.037 24.4706 118.188 24.0941 118.339 23.7176C118.565 23.3412 118.64 22.8894 118.64 22.4376Z" fill="white"/>
<path d="M139.742 22.6635C139.742 22.8141 139.742 23.04 139.742 23.1906C139.742 23.3412 139.742 23.5671 139.742 23.7176H129.643C129.643 24.0941 129.794 24.4706 130.02 24.7718C130.246 25.0729 130.472 25.3741 130.773 25.6C131.075 25.8259 131.452 26.0518 131.829 26.1271C132.205 26.2776 132.582 26.3529 133.034 26.3529C133.788 26.3529 134.391 26.2024 134.843 25.9765C135.371 25.6753 135.747 25.3741 136.049 24.9224L139.214 26.9553C138.536 27.9341 137.707 28.6118 136.652 29.1388C135.597 29.6659 134.316 29.8918 132.959 29.8918C131.904 29.8918 130.924 29.7412 130.02 29.44C129.116 29.1388 128.287 28.6118 127.608 28.0094C126.93 27.4071 126.327 26.6541 125.95 25.6753C125.573 24.7718 125.347 23.7176 125.347 22.5882C125.347 21.4588 125.573 20.4047 125.95 19.5012C126.327 18.5976 126.855 17.7694 127.533 17.1671C128.211 16.4894 128.965 16.0376 129.869 15.6612C130.773 15.2847 131.753 15.1341 132.808 15.1341C133.863 15.1341 134.768 15.2847 135.597 15.6612C136.426 16.0376 137.179 16.4894 137.782 17.1671C138.385 17.8447 138.913 18.5976 139.214 19.5012C139.591 20.4047 139.742 21.4588 139.742 22.6635ZM135.521 20.9318C135.521 20.1788 135.295 19.5765 134.843 19.0494C134.391 18.5224 133.713 18.2965 132.808 18.2965C132.356 18.2965 131.979 18.3718 131.602 18.5224C131.226 18.6729 130.924 18.8235 130.623 19.1247C130.321 19.3506 130.095 19.6518 129.945 19.9529C129.794 20.2541 129.718 20.6306 129.643 21.0071H135.521V20.9318Z" fill="white"/>
<path d="M151.724 29.44V21.8353C151.724 21.4588 151.724 21.0824 151.649 20.7059C151.574 20.3294 151.498 20.0282 151.348 19.8024C151.197 19.5012 150.971 19.3506 150.745 19.1247C150.443 18.9741 150.142 18.8988 149.69 18.8988C149.237 18.8988 148.936 18.9741 148.635 19.1247C148.333 19.2753 148.107 19.5012 147.881 19.8024C147.655 20.1035 147.504 20.4047 147.429 20.7812C147.353 21.1576 147.278 21.5341 147.278 21.9106V29.44H142.681V15.5859H147.127V17.5435H147.203C147.353 17.2424 147.579 16.9412 147.881 16.64C148.182 16.3388 148.484 16.1129 148.861 15.8871C149.237 15.6612 149.614 15.5106 150.066 15.36C150.519 15.2094 150.971 15.1341 151.423 15.1341C152.327 15.1341 153.156 15.2847 153.759 15.6612C154.437 15.9624 154.965 16.4141 155.342 16.9412C155.719 17.4682 156.02 18.0706 156.171 18.7482C156.322 19.4259 156.472 20.1035 156.472 20.7812V29.3647H151.724V29.44Z" fill="white"/>
<path d="M164.762 11.1435C164.762 11.52 164.687 11.8212 164.536 12.1224C164.385 12.4235 164.235 12.7247 164.009 12.9506C163.782 13.1765 163.481 13.3271 163.18 13.4776C162.878 13.6282 162.501 13.7035 162.124 13.7035C161.371 13.7035 160.768 13.4776 160.24 12.9506C159.713 12.4235 159.487 11.8965 159.487 11.1435C159.487 10.8424 159.562 10.4659 159.713 10.1647C159.864 9.86353 160.014 9.56235 160.24 9.33647C160.466 9.11059 160.768 8.96 161.069 8.80941C161.371 8.65882 161.748 8.58353 162.124 8.58353C162.501 8.58353 162.803 8.65882 163.18 8.80941C163.481 8.96 163.782 9.11059 164.009 9.33647C164.235 9.56235 164.461 9.78824 164.536 10.1647C164.687 10.4659 164.762 10.7671 164.762 11.1435ZM159.864 15.5859H164.461V29.5153H159.864V15.5859Z" fill="white"/>
<path d="M177.574 29.44L174.559 25.1482L171.469 29.44H166.194L171.771 22.1365L166.722 15.5106H172.072L174.635 19.2L177.272 15.5106H182.472L177.499 22.1365L183 29.44H177.574Z" fill="white"/>
</svg>
