<svg width="136" height="48" viewBox="0 0 136 48" fill="none" xmlns="http://www.w3.org/2000/svg">
<path d="M23.8744 48C37.0599 48 47.7489 37.2548 47.7489 24C47.7489 10.7452 37.0599 0 23.8744 0C10.6889 0 0 10.7452 0 24C0 37.2548 10.6889 48 23.8744 48Z" fill="#0047AB"/>
<path fill-rule="evenodd" clip-rule="evenodd" d="M23.8744 24.5082C23.7059 24.5082 23.4812 24.5082 23.3127 24.5082H23.0318C22.7509 24.5082 22.4701 24.5082 22.1892 24.5082H22.0207C21.7398 24.5082 21.5151 24.5082 21.2904 24.4518C20.8972 24.4518 20.5601 24.3953 20.0545 24.3388C19.7175 24.2824 19.4366 24.2824 19.0995 24.2259H19.0434C18.931 24.2259 18.4816 24.1694 18.3693 24.1129C18.3131 24.1129 18.2569 24.1129 18.2569 24.1129C16.2346 23.8306 14.0438 23.3224 12.0777 22.7012C12.19 22.3624 12.4147 21.9671 12.5832 21.6282C12.6394 21.6282 12.6394 21.6282 12.6956 21.6847C12.8079 21.7412 12.9203 21.7412 13.0888 21.7976H13.145C15.5605 22.5318 18.0884 23.04 20.7848 23.2094C21.5151 23.2659 22.2454 23.3224 23.0318 23.3224C23.088 23.3224 23.2003 23.2659 23.2565 23.2094C23.3127 23.1529 23.3689 23.0965 23.3689 22.9835V14.4565C23.3689 14.2871 23.2565 14.1176 23.088 14.1176C19.886 14.0047 16.7402 13.4965 13.9314 12.5929C13.8753 12.5929 13.8753 12.5929 13.8191 12.5929C13.7067 12.5929 13.5944 12.6494 13.5382 12.8188C13.482 12.9318 13.482 13.0447 13.4259 13.1576C13.0326 13.2141 12.5832 13.2706 12.19 13.3271C12.3024 13.0447 12.4147 12.7624 12.5271 12.48C12.5832 12.4235 12.5832 12.3106 12.5271 12.2541C12.4709 12.1976 12.4147 12.1412 12.3585 12.0847C11.1789 11.6329 9.99917 11.0682 8.93185 10.4471C8.87567 10.3906 8.8195 10.3906 8.76332 10.3906C8.65097 10.3906 8.5948 10.4471 8.53862 10.5035C7.69599 11.4635 6.90954 12.5365 6.29162 13.6094C5.89839 13.7788 5.44899 13.9482 5.33664 14.0047C5.05576 14.1176 4.77489 14.2871 4.55019 14.4565C4.77489 14.0047 4.99959 13.6094 5.22429 13.2141C5.89839 12.0847 6.62867 11.0118 7.52747 9.99529L8.14539 9.31765L8.25774 9.20471C12.19 4.8 17.639 2.37176 23.5936 2.31529H23.7059C23.7621 2.31529 23.8183 2.31529 23.8744 2.31529C23.9306 2.31529 23.9868 2.31529 24.043 2.31529H24.1553C29.9975 2.37176 35.6712 4.85647 39.6596 9.14824L40.3899 9.93882C41.5696 11.2941 42.5246 12.8188 43.311 14.4C43.0302 14.2306 42.8055 14.1176 42.5246 13.9482C42.5246 13.9482 41.9628 13.6659 41.5134 13.4965C40.8955 12.4235 40.109 11.4071 39.3226 10.4471C39.2664 10.3906 39.1541 10.3341 39.0979 10.3341C39.0417 10.3341 38.9855 10.3341 38.9294 10.3906C37.862 11.0118 36.7385 11.5765 35.5027 12.0847C35.4465 12.1412 35.3342 12.1976 35.3342 12.2541C35.278 12.3106 35.278 12.4235 35.3342 12.48C35.4465 12.7624 35.5589 13.0447 35.6712 13.3271C35.278 13.2706 34.8286 13.2141 34.4354 13.1576C34.3792 13.0447 34.3792 12.9318 34.323 12.8188C34.2668 12.7059 34.1545 12.5929 34.0421 12.5929C33.986 12.5929 33.986 12.5929 33.9298 12.5929C31.121 13.4965 27.9752 14.0612 24.7732 14.1176C24.6047 14.1176 24.4924 14.2871 24.4924 14.4565V22.9835C24.4924 23.0965 24.5485 23.1529 24.6047 23.2094C24.6609 23.2659 24.7171 23.3224 24.8294 23.3224C25.6159 23.3224 26.3461 23.2659 27.0764 23.2094C29.6043 22.9835 32.076 22.5318 34.4354 21.8541C34.4915 21.8541 34.5477 21.8541 34.5477 21.7976C34.7724 21.7412 34.9971 21.6847 35.2218 21.5718C35.4465 21.9106 35.615 22.3059 35.7274 22.6447C33.7613 23.2659 31.5143 23.7741 29.5481 24.0565H29.4919L28.7617 24.1694C28.4808 24.2259 28.1437 24.2259 27.8629 24.2824H27.8067C27.3573 24.3388 26.9641 24.3388 26.627 24.3953C26.3461 24.3953 26.1214 24.4518 25.8406 24.4518H25.672C25.3912 24.4518 25.1103 24.4518 24.8294 24.4518H24.7732C24.4362 24.5082 24.1553 24.5082 23.8744 24.5082ZM24.7732 3.50118C24.7171 3.50118 24.6047 3.50118 24.5485 3.55765C24.4924 3.61412 24.4362 3.72706 24.4362 3.78353V12.6494C24.4362 12.7624 24.4924 12.8188 24.5485 12.8753C24.6047 12.9318 24.6609 12.9882 24.7732 12.9882C27.7505 12.9318 30.784 12.4235 33.4242 11.5765C33.5366 11.5765 33.5927 11.4635 33.5927 11.4071C33.6489 11.3506 33.6489 11.2376 33.5927 11.1247C31.4581 6.66353 28.2561 3.89647 24.7732 3.50118ZM23.0318 3.50118C22.9756 3.50118 22.9756 3.50118 23.0318 3.50118C19.5489 3.89647 16.347 6.72 14.2123 11.1812C14.1561 11.2376 14.1561 11.3506 14.2123 11.4635C14.2685 11.52 14.3247 11.6329 14.3808 11.6329C17.0211 12.48 19.9983 12.9882 23.0318 13.0447C23.088 13.0447 23.2003 12.9882 23.2565 12.9318C23.3127 12.8753 23.3689 12.8188 23.3689 12.7059V3.78353C23.3689 3.67059 23.3127 3.61412 23.2565 3.55765C23.1442 3.50118 23.088 3.50118 23.0318 3.50118ZM30.8963 4.68706C30.784 4.68706 30.6716 4.74353 30.6154 4.85647C30.5593 4.96941 30.5593 5.13882 30.6716 5.25177C32.2445 6.72 33.5366 8.58353 34.6601 10.8988C34.7162 11.0118 34.8286 11.0682 34.9409 11.0682C34.9971 11.0682 34.9971 11.0682 35.0533 11.0682C36.1206 10.6729 37.1318 10.1647 38.0306 9.65647C38.1429 9.6 38.1991 9.54353 38.1991 9.43059C38.1991 9.31765 38.1991 9.20471 38.0867 9.14824C37.3565 8.47059 36.57 7.79294 35.7274 7.22824C35.7274 7.22824 35.7274 7.22824 35.6712 7.17177C35.3903 6.94588 35.1095 6.77647 34.8286 6.60706L34.7724 6.55059C34.7162 6.55059 34.7162 6.49412 34.6601 6.49412C34.4354 6.38118 34.2107 6.21177 33.986 6.09882L33.7613 5.98588C33.5366 5.87294 33.3119 5.76 33.0872 5.64706C33.031 5.59059 32.9748 5.59059 32.8625 5.53412L32.8063 5.47765C32.5816 5.36471 32.3569 5.25176 32.1884 5.19529C32.076 5.13882 31.9637 5.08235 31.9075 5.08235C31.739 5.02588 31.5704 4.96941 31.4019 4.91294L31.2334 4.85647C31.1772 4.85647 31.121 4.8 31.121 4.8C31.0649 4.8 31.0648 4.74353 31.0087 4.74353C30.9525 4.68706 30.8963 4.68706 30.8963 4.68706ZM11.1789 7.84941C10.6733 8.24471 10.2239 8.64 9.7183 9.14824C9.66212 9.20471 9.60595 9.31765 9.60595 9.43059C9.60595 9.54353 9.66212 9.6 9.77447 9.65647C10.7295 10.1647 11.6844 10.6729 12.7518 11.0682C12.8079 11.0682 12.8079 11.0682 12.8641 11.0682C12.9765 11.0682 13.0888 11.0118 13.145 10.8988C14.2123 8.58353 15.5605 6.72 17.1334 5.25177C17.2458 5.13882 17.2458 4.96941 17.1896 4.85647C17.1334 4.74353 17.0211 4.68706 16.9087 4.68706C16.8525 4.68706 16.8525 4.68706 16.7964 4.68706C16.684 4.74353 16.5155 4.8 16.4031 4.85647C16.2908 4.91294 16.1223 4.96941 16.0099 5.02588L15.5043 5.25177L15.3358 5.30824C15.2235 5.36471 15.1673 5.36471 15.0549 5.42118C14.9426 5.47765 14.7741 5.53412 14.6055 5.64706C14.4932 5.70353 14.3808 5.76 14.2123 5.81647C14.0438 5.92941 13.8753 5.98588 13.7067 6.09882C13.5944 6.15529 13.482 6.21177 13.3697 6.26824C13.2012 6.38118 13.0326 6.49412 12.8641 6.60706C12.8079 6.66353 12.7518 6.66353 12.6956 6.72L12.5832 6.83294C12.4147 6.94588 12.2462 7.05882 12.0777 7.17177C12.0215 7.22824 11.9653 7.22823 11.9091 7.28471L11.7968 7.34118C11.6283 7.51059 11.4036 7.68 11.1789 7.84941Z" fill="#F7C526"/>
<path fill-rule="evenodd" clip-rule="evenodd" d="M6.17927 15.5859C3.81991 19.2 3.37051 23.5482 5.78604 27.84C1.68525 23.8306 1.51673 17.7882 6.17927 15.5859Z" fill="#F7C526"/>
<path fill-rule="evenodd" clip-rule="evenodd" d="M21.8521 45.6282C17.5828 45.2329 13.5944 43.5953 10.28 40.9412C14.9426 42.6353 17.8637 42.1271 21.8521 45.6282Z" fill="#F7C526"/>
<path fill-rule="evenodd" clip-rule="evenodd" d="M16.1223 39.1341L16.0661 39.0776C16.0661 39.0776 16.0099 39.0776 16.0099 39.0212C16.0099 39.0212 16.0099 39.0212 15.9537 39.0212C15.8414 38.9082 15.729 38.8518 15.6167 38.7953C15.5605 38.7388 15.5043 38.7388 15.4482 38.6824C15.3358 38.6259 15.2235 38.5129 15.1111 38.4565C14.9426 38.3435 14.7741 38.2871 14.6617 38.1741C14.437 38.0612 14.2123 37.8918 13.9314 37.7788C13.7067 37.6659 13.4259 37.4965 13.2012 37.3835C12.0777 36.7624 10.8418 36.1412 9.54977 35.52C8.3701 34.9553 7.30277 34.2212 6.34779 33.4306C4.49401 31.8494 3.14581 29.8729 2.58406 27.6706C2.35936 26.7106 2.24701 25.6941 2.30318 24.6212C2.92111 25.7506 3.53903 26.9365 4.43784 28.0659C4.55019 28.1788 4.66254 28.3482 4.77489 28.4612C6.62867 30.5506 9.15655 32.3576 11.853 34.1082C12.2462 34.3906 12.6956 34.6165 13.0888 34.8424C13.482 35.0682 13.8191 35.2941 14.2123 35.52C16.2908 36.8753 18.0884 38.4565 19.4928 39.9812C20.6163 41.2235 21.4027 42.4659 21.9083 43.7082C22.0768 44.0471 22.1892 44.4424 22.3577 44.7812C20.5039 43.1435 18.1446 42.1271 15.6729 41.2235C14.437 40.7718 13.145 40.3765 11.9091 39.9247C11.5721 39.8118 11.1789 39.6424 10.7295 39.4729C8.25774 38.5129 6.17926 36.7059 4.94341 34.3341C4.71871 34.1647 4.60636 33.8824 4.49401 33.6565C5.50516 34.3341 6.57249 35.0118 7.63982 35.6329C8.25774 35.9718 8.87567 36.2541 9.4936 36.5365C10.898 37.1576 12.3024 37.7788 13.6506 38.4C14.6617 38.8518 15.6729 39.36 16.5717 39.8682C17.0211 40.0941 17.4705 40.3765 17.9199 40.6024C17.4143 40.0941 16.7964 39.6424 16.1223 39.1341Z" fill="#F7C526"/>
<path fill-rule="evenodd" clip-rule="evenodd" d="M5.56134 21.2329C6.40396 18.0141 9.38125 15.1906 14.1 14.9082C10.5048 16.4894 8.76332 18.9741 7.92069 21.12C6.17927 25.8071 8.20157 29.0824 9.88682 31.3976C6.12309 28.1224 4.71871 24.5082 5.56134 21.2329Z" fill="#F7C526"/>
<path fill-rule="evenodd" clip-rule="evenodd" d="M19.0434 35.2941C20.7286 37.2141 21.9083 39.8118 22.2454 42.24C21.3466 40.0941 19.7175 38.0047 17.5266 36.3106C15.9537 35.1247 13.9876 33.8259 12.3585 32.4141C10.1677 30.4941 8.37009 28.3482 8.48244 25.4118C8.5948 23.0965 9.7183 20.6118 12.8079 19.0306C10.6171 21.5153 9.83065 24.0565 10.5048 26.3153C11.5159 29.5341 16.5155 32.4141 19.0434 35.2941Z" fill="#F7C526"/>
<path fill-rule="evenodd" clip-rule="evenodd" d="M23.8744 45.7412C23.425 39.5859 21.7398 36.0282 19.7175 34.3341C20.8971 33.7129 21.9645 33.3741 21.9645 31.2847C21.9645 29.9859 21.0657 28.4612 19.3242 28.4612C19.8298 28.1788 20.2792 28.0659 20.9533 28.0659C20.2792 27.3882 19.2681 27.2188 17.8075 27.2753C19.2681 26.7106 21.5713 26.0894 23.088 26.5412C23.6497 26.7106 24.2115 26.9365 24.8294 27.2753C25.0541 27.3882 25.2226 27.5012 25.4473 27.6706C26.9079 28.6871 28.4246 29.7035 30.0537 30.3247C29.0425 31.1718 27.5258 30.6635 25.335 29.4212C25.335 32.9788 26.5708 33.7694 28.1437 34.3906C26.3461 36.0282 24.4362 38.7953 24.1553 45.7976L23.8744 45.7412Z" fill="#F7C526"/>
<path fill-rule="evenodd" clip-rule="evenodd" d="M25.8967 45.6282C30.166 45.2329 34.1545 43.5953 37.4688 40.9412C32.8063 42.6353 29.9413 42.1271 25.8967 45.6282Z" fill="#F7C526"/>
<path fill-rule="evenodd" clip-rule="evenodd" d="M41.5696 15.5859C43.9851 19.2 44.6592 23.2659 42.2437 27.5012C46.3445 23.4918 46.2321 17.7882 41.5696 15.5859Z" fill="#F7C526"/>
<path fill-rule="evenodd" clip-rule="evenodd" d="M31.6828 39.1341L31.7389 39.0776C31.7389 39.0776 31.7951 39.0776 31.7951 39.0212C31.7951 39.0212 31.7951 39.0212 31.8513 39.0212C31.9636 38.9082 32.076 38.8518 32.1884 38.7953C32.2445 38.7388 32.3007 38.7388 32.3569 38.6824C32.4692 38.6259 32.5816 38.5129 32.6939 38.4565C32.8625 38.3435 33.031 38.2871 33.1433 38.1741C33.368 38.0612 33.5927 37.8918 33.8736 37.7788C34.0983 37.6659 34.3792 37.4965 34.6039 37.3835C35.7274 36.7624 36.9632 36.1412 38.2553 35.52C39.4349 34.9553 40.5023 34.2212 41.4572 33.4306C43.311 31.8494 44.6592 29.8729 45.221 27.6706C45.4457 26.7106 45.558 25.6941 45.5019 24.6212C44.8839 25.7506 44.266 26.9365 43.3672 28.0659C43.2548 28.1788 43.1425 28.3482 43.0302 28.4612C41.1764 30.5506 38.6485 32.3576 35.9521 34.1082C35.5589 34.3906 35.1095 34.6165 34.7162 34.8424C34.323 35.0682 33.986 35.2941 33.5927 35.52C31.5142 36.8753 29.7166 38.4565 28.3123 39.9812C27.1888 41.2235 26.4023 42.4659 25.8967 43.7082C25.7282 44.0471 25.6159 44.4424 25.4473 44.7812C27.3011 43.1435 29.6605 42.1271 32.1322 41.2235C33.368 40.7718 34.6601 40.3765 35.8959 39.9247C36.233 39.8118 36.6262 39.6424 37.0756 39.4729C39.5473 38.5129 41.6258 36.7059 42.8616 34.3341C42.974 34.1082 43.0863 33.8824 43.1987 33.6565C42.1875 34.3341 41.1202 35.0118 40.0529 35.6329C39.4349 35.9718 38.817 36.2541 38.1991 36.5365C36.7947 37.1576 35.3903 37.7788 34.0421 38.4C33.031 38.8518 32.0198 39.36 31.121 39.8682C30.6716 40.0941 30.2222 40.3765 29.7728 40.6024C30.3346 40.0941 30.9525 39.6424 31.6828 39.1341Z" fill="#F7C526"/>
<path fill-rule="evenodd" clip-rule="evenodd" d="M42.2437 21.2329C41.4011 18.0141 38.4238 15.1906 33.7051 14.9082C37.3003 16.4894 39.0417 18.9741 39.8843 21.12C41.6258 25.8071 39.6035 29.0824 37.9182 31.3976C41.6819 28.1224 43.0301 24.5082 42.2437 21.2329Z" fill="#F7C526"/>
<path fill-rule="evenodd" clip-rule="evenodd" d="M28.7055 35.2941C27.0202 37.2141 25.8406 39.8118 25.5035 42.24C26.4023 40.0941 28.0314 38.0047 30.2222 36.3106C31.7951 35.1247 33.7613 33.8259 35.3903 32.4141C37.5812 30.4941 39.3788 28.3482 39.2664 25.4118C39.1541 23.0965 38.0306 20.6118 34.9409 19.0306C37.1318 21.5153 37.9182 24.0565 37.2441 26.3153C36.2891 29.5341 31.2895 32.4141 28.7055 35.2941Z" fill="#F7C526"/>
<path d="M94.6551 43.0871H94.0933L94.4866 41.9012H95.1607L94.6551 43.0871Z" fill="#231F20"/>
<path d="M58.4783 28.2918C58.3098 28.1224 58.1413 27.9529 57.9166 27.84C57.6919 27.7271 57.4672 27.6706 57.2425 27.6706C56.9616 27.6706 56.6807 27.7271 56.456 27.84C56.2313 27.9529 56.0066 28.1224 55.8381 28.2918C55.6696 28.4612 55.5572 28.6871 55.4449 28.9694C55.3325 29.1953 55.3325 29.4776 55.3325 29.76C55.3325 30.0424 55.3887 30.2682 55.4449 30.5506C55.5572 30.7765 55.6696 31.0024 55.8381 31.1718C56.0066 31.3412 56.2313 31.5106 56.456 31.6235C56.6807 31.7365 56.9616 31.7929 57.2425 31.7929C57.5233 31.7929 57.8042 31.7365 58.0289 31.6235C58.2536 31.5106 58.4221 31.3412 58.5907 31.1153L59.2086 31.5671C59.1524 31.6235 59.0962 31.68 58.9839 31.7929C58.8715 31.9059 58.7592 32.0188 58.5907 32.0753C58.4221 32.1882 58.2536 32.2447 58.0289 32.3576C57.8042 32.4141 57.5233 32.4706 57.2425 32.4706C56.8492 32.4706 56.456 32.4141 56.119 32.2447C55.7819 32.0753 55.501 31.9059 55.2763 31.6235C55.0516 31.3976 54.8831 31.1153 54.7708 30.7765C54.6584 30.4376 54.6022 30.1553 54.6022 29.8165C54.6022 29.4212 54.6584 29.0259 54.8269 28.7435C54.9393 28.4047 55.164 28.1224 55.3887 27.8965C55.6134 27.6706 55.8943 27.4447 56.2313 27.3318C56.5684 27.2188 56.9054 27.1059 57.2986 27.1059C57.6357 27.1059 57.9727 27.1624 58.3098 27.2753C58.6468 27.3882 58.9277 27.6141 59.0962 27.8965L58.4783 28.2918Z" fill="#231F20"/>
<path d="M60.3883 30.8329C60.3883 31.0024 60.4444 31.1153 60.5006 31.2282C60.5568 31.3412 60.6691 31.4541 60.7815 31.5671C60.8938 31.68 61.0062 31.7365 61.1747 31.7929C61.3432 31.8494 61.4556 31.8494 61.6241 31.8494C61.8488 31.8494 62.0173 31.7929 62.1297 31.68C62.2982 31.5671 62.4106 31.4541 62.5229 31.2847L63.0285 31.68C62.6914 32.1318 62.1297 32.3576 61.5118 32.3576C61.2309 32.3576 61.0062 32.3012 60.7815 32.2447C60.5568 32.1318 60.3883 32.0188 60.2197 31.8494C60.0512 31.68 59.9389 31.5106 59.8827 31.2847C59.8265 31.0588 59.7703 30.8329 59.7703 30.5506C59.7703 30.2682 59.8265 30.0424 59.8827 29.8165C59.995 29.5906 60.1074 29.4212 60.2759 29.2518C60.4444 29.0824 60.613 28.9694 60.8377 28.8565C61.0624 28.7435 61.2871 28.7435 61.5679 28.7435C61.8488 28.7435 62.1297 28.8 62.3544 28.9129C62.5791 29.0259 62.7476 29.1388 62.86 29.3082C62.9723 29.4776 63.0847 29.6471 63.1409 29.8729C63.197 30.0988 63.2532 30.3247 63.2532 30.5506V30.7765H60.3883V30.8329ZM62.4667 30.3247C62.4667 30.1553 62.4106 30.0424 62.4106 29.9294C62.3544 29.8165 62.2982 29.7035 62.242 29.5906C62.1859 29.4776 62.0735 29.4212 61.905 29.3647C61.7926 29.3082 61.6241 29.3082 61.4556 29.3082C61.2871 29.3082 61.1747 29.3647 61.0062 29.4212C60.8938 29.4776 60.7815 29.5341 60.6691 29.6471C60.5568 29.76 60.5006 29.8729 60.4444 29.9859C60.3883 30.0988 60.3883 30.2118 60.3883 30.3247H62.4667Z" fill="#231F20"/>
<path d="M63.9273 28.8565H64.6014V29.3647C64.6576 29.1953 64.8261 29.0259 65.0508 28.9129C65.2755 28.8 65.5002 28.7435 65.7811 28.7435C65.9496 28.7435 66.1181 28.7435 66.2867 28.8C66.4552 28.8565 66.5675 28.9129 66.6799 29.0259C66.7922 29.1388 66.9046 29.2518 66.9608 29.4212C67.0169 29.5906 67.0731 29.76 67.0731 29.9859V32.1882H66.399V30.1553C66.399 29.9859 66.399 29.8729 66.3428 29.76C66.2867 29.6471 66.2305 29.5341 66.1743 29.4776C66.1181 29.4212 66.0058 29.3647 65.9496 29.3082C65.8373 29.2518 65.7811 29.2518 65.6687 29.2518C65.5564 29.2518 65.3879 29.2518 65.2755 29.3082C65.1632 29.3647 65.0508 29.4212 64.9946 29.5341C64.8823 29.6471 64.8261 29.76 64.7699 29.8729C64.7138 30.0424 64.7138 30.2118 64.7138 30.3812V32.1318H64.0396V28.8565H63.9273Z" fill="#231F20"/>
<path d="M68.8707 29.4776V31.0588C68.8707 31.1718 68.8707 31.2282 68.8707 31.3412C68.8707 31.4541 68.8707 31.5106 68.9269 31.5671C68.9831 31.6235 68.9831 31.68 69.0954 31.7365C69.1516 31.7929 69.2639 31.7929 69.3763 31.7929C69.4325 31.7929 69.5448 31.7929 69.601 31.7929C69.6572 31.7929 69.7695 31.7365 69.8257 31.7365V32.3576C69.7695 32.4141 69.6572 32.4141 69.5448 32.4706C69.4325 32.4706 69.3201 32.4706 69.2639 32.4706C69.0392 32.4706 68.8145 32.4141 68.7022 32.3576C68.5898 32.3012 68.4775 32.1882 68.4213 32.0753C68.3651 31.9624 68.309 31.8494 68.309 31.68C68.309 31.5671 68.309 31.3976 68.309 31.2847V29.4776H67.5225V28.9129H68.309V27.9529H68.9831V28.9129H69.938V29.4776H68.8707Z" fill="#231F20"/>
<path d="M71.3424 28.8565V29.3647C71.3986 29.2518 71.4548 29.1953 71.5109 29.1388C71.5671 29.0824 71.6795 29.0259 71.7356 28.9694C71.848 28.9129 71.9042 28.8565 72.0165 28.8565C72.1289 28.8 72.2412 28.8 72.3536 28.8C72.4659 28.8 72.5783 28.8 72.6344 28.8565L72.5783 29.5341C72.5221 29.5341 72.4659 29.5341 72.4097 29.4776C72.3536 29.4776 72.2974 29.4776 72.2412 29.4776C71.9042 29.4776 71.6795 29.5906 71.5109 29.76C71.3424 29.9294 71.2301 30.2118 71.2301 30.6071V32.3576H70.556V28.8565H71.3424Z" fill="#231F20"/>
<path d="M76.4544 32.3012H75.7803V31.7929C75.7241 31.9624 75.5556 32.1318 75.3309 32.2447C75.1062 32.3576 74.8815 32.4141 74.6006 32.4141C74.4321 32.4141 74.2635 32.4141 74.095 32.3576C73.9265 32.3012 73.8141 32.2447 73.7018 32.1318C73.5894 32.0188 73.4771 31.9059 73.4209 31.7365C73.3647 31.5671 73.3085 31.3976 73.3085 31.1718V28.9694H73.9826V31.0024C73.9826 31.1718 73.9827 31.2847 74.0388 31.3976C74.095 31.5106 74.1512 31.6235 74.2074 31.68C74.2635 31.7365 74.3759 31.7929 74.4321 31.8494C74.5444 31.9059 74.6006 31.9059 74.7129 31.9059C74.8253 31.9059 74.9938 31.9059 75.1061 31.8494C75.2185 31.7929 75.3308 31.7365 75.387 31.6235C75.4994 31.5106 75.5556 31.3976 75.6117 31.2847C75.6679 31.1153 75.6679 30.9459 75.6679 30.7765V29.0259H76.342V32.3012H76.4544Z" fill="#231F20"/>
<path d="M77.4655 26.8235H78.1396V32.3012H77.4655V26.8235Z" fill="#231F20"/>
<path d="M81.3978 27.1624H82.0719V32.3012H81.3978V27.1624Z" fill="#231F20"/>
<path d="M83.2515 28.8565H83.9257V29.3647C83.9818 29.1953 84.1503 29.0259 84.375 28.9129C84.5997 28.8 84.8245 28.7435 85.1053 28.7435C85.2739 28.7435 85.4424 28.7435 85.6109 28.8C85.7794 28.8565 85.8918 28.9129 86.0041 29.0259C86.1165 29.1388 86.2288 29.2518 86.285 29.4212C86.3412 29.5906 86.3974 29.76 86.3974 29.9859V32.1882H85.7233V30.1553C85.7233 29.9859 85.7233 29.8729 85.6671 29.76C85.6109 29.6471 85.5547 29.5341 85.4986 29.4776C85.4424 29.4212 85.33 29.3647 85.2738 29.3082C85.1615 29.2518 85.1053 29.2518 84.993 29.2518C84.8806 29.2518 84.7121 29.2518 84.5998 29.3082C84.4874 29.3647 84.3751 29.4212 84.3189 29.5341C84.2065 29.6471 84.1503 29.76 84.0942 29.8729C84.038 30.0424 84.038 30.2118 84.038 30.3812V32.1318H83.3639V28.8565H83.2515Z" fill="#231F20"/>
<path d="M88.195 29.4776V31.0588C88.195 31.1718 88.195 31.2282 88.195 31.3412C88.195 31.4541 88.195 31.5106 88.2511 31.5671C88.3073 31.6235 88.3073 31.68 88.4197 31.7365C88.4758 31.7929 88.5882 31.7929 88.7005 31.7929C88.7567 31.7929 88.8691 31.7929 88.9252 31.7929C88.9814 31.7929 89.0938 31.7365 89.1499 31.7365V32.3576C89.0938 32.4141 88.9814 32.4141 88.8691 32.4706C88.7567 32.4706 88.6444 32.4706 88.5882 32.4706C88.3635 32.4706 88.1388 32.4141 88.0264 32.3576C87.9141 32.3012 87.8017 32.1882 87.7456 32.0753C87.6894 31.9624 87.6332 31.8494 87.6332 31.68C87.6332 31.5671 87.6332 31.3976 87.6332 31.2847V29.4776H86.8468V28.9129H87.6332V27.9529H88.3073V28.9129H89.2623V29.4776H88.195Z" fill="#231F20"/>
<path d="M90.4981 30.8329C90.4981 31.0024 90.5543 31.1153 90.6105 31.2282C90.6667 31.3412 90.779 31.4541 90.8914 31.5671C91.0037 31.68 91.1161 31.7365 91.2846 31.7929C91.4531 31.8494 91.5655 31.8494 91.734 31.8494C91.9587 31.8494 92.1272 31.7929 92.2396 31.68C92.4081 31.5671 92.5204 31.4541 92.6328 31.2847L93.1384 31.68C92.8013 32.1318 92.2396 32.3576 91.6216 32.3576C91.3408 32.3576 91.1161 32.3012 90.8914 32.2447C90.6667 32.1318 90.4981 32.0188 90.3296 31.8494C90.1611 31.68 90.0487 31.5106 89.9926 31.2847C89.9364 31.0588 89.8802 30.8329 89.8802 30.5506C89.8802 30.2682 89.9364 30.0424 89.9926 29.8165C90.1049 29.5906 90.2173 29.4212 90.3858 29.2518C90.5543 29.0824 90.7228 28.9694 90.9475 28.8565C91.1722 28.7435 91.3969 28.7435 91.6778 28.7435C91.9587 28.7435 92.2396 28.8 92.4643 28.9129C92.689 29.0259 92.8575 29.1388 92.9698 29.3082C93.0822 29.4776 93.1945 29.6471 93.2507 29.8729C93.3069 30.0988 93.3631 30.3247 93.3631 30.5506V30.7765H90.4981V30.8329ZM92.5766 30.3247C92.5766 30.1553 92.5204 30.0424 92.5204 29.9294C92.4643 29.8165 92.4081 29.7035 92.3519 29.5906C92.2957 29.4776 92.1834 29.4212 92.0149 29.3647C91.9025 29.3082 91.734 29.3082 91.5655 29.3082C91.3969 29.3082 91.2846 29.3647 91.1161 29.4212C91.0037 29.4776 90.8914 29.5341 90.779 29.6471C90.6667 29.76 90.6105 29.8729 90.5543 29.9859C90.4981 30.0988 90.4981 30.2118 90.4981 30.3247H92.5766Z" fill="#231F20"/>
<path d="M94.7113 28.8565V29.3647C94.7675 29.2518 94.8236 29.1953 94.8798 29.1388C94.936 29.0824 95.0483 29.0259 95.1045 28.9694C95.2169 28.9129 95.273 28.8565 95.3854 28.8565C95.4977 28.8 95.6101 28.8 95.7224 28.8C95.8348 28.8 95.9471 28.8 96.0033 28.8565L95.9471 29.5341C95.8909 29.5341 95.8348 29.5341 95.7786 29.4776C95.7224 29.4776 95.6663 29.4776 95.6101 29.4776C95.273 29.4776 95.0483 29.5906 94.8798 29.76C94.7113 29.9294 94.5989 30.2118 94.5989 30.6071V32.3576H93.9248V28.8565H94.7113Z" fill="#231F20"/>
<path d="M96.7336 28.8565H97.4077V29.3647C97.4639 29.1953 97.6324 29.0259 97.8571 28.9129C98.0818 28.8 98.3065 28.7435 98.5874 28.7435C98.7559 28.7435 98.9244 28.7435 99.0929 28.8C99.2615 28.8565 99.3738 28.9129 99.4862 29.0259C99.5985 29.1388 99.7109 29.2518 99.767 29.4212C99.8232 29.5906 99.8794 29.76 99.8794 29.9859V32.1882H99.2053V30.1553C99.2053 29.9859 99.2053 29.8729 99.1491 29.76C99.0929 29.6471 99.0368 29.5341 98.9806 29.4776C98.9244 29.4212 98.8121 29.3647 98.7559 29.3082C98.6435 29.2518 98.5874 29.2518 98.475 29.2518C98.3627 29.2518 98.1941 29.2518 98.0818 29.3082C97.9694 29.3647 97.8571 29.4212 97.8009 29.5341C97.6886 29.6471 97.6324 29.76 97.5762 29.8729C97.52 30.0424 97.52 30.2118 97.52 30.3812V32.1318H96.8459V28.8565H96.7336Z" fill="#231F20"/>
<path d="M100.834 29.3082C101.003 29.1388 101.228 29.0259 101.452 28.9129C101.677 28.8565 101.958 28.8 102.183 28.8C102.407 28.8 102.632 28.8565 102.857 28.9129C103.025 28.9694 103.194 29.0824 103.306 29.1388C103.418 29.2518 103.531 29.3647 103.587 29.4776C103.643 29.5906 103.643 29.76 103.643 29.9294V31.68C103.643 31.7929 103.643 31.9059 103.643 32.0188C103.643 32.1318 103.643 32.2447 103.643 32.3012H103.081C103.081 32.1318 103.081 31.9624 103.081 31.7929C102.913 32.0188 102.744 32.1882 102.576 32.2447C102.407 32.3012 102.126 32.3576 101.902 32.3576C101.733 32.3576 101.565 32.3577 101.452 32.3012C101.284 32.2447 101.171 32.1882 101.059 32.1318C100.947 32.0188 100.891 31.9624 100.778 31.7929C100.722 31.68 100.666 31.5106 100.666 31.3412C100.666 31.1153 100.722 30.9459 100.834 30.7765C100.947 30.6071 101.059 30.4941 101.228 30.4376C101.396 30.3247 101.621 30.2682 101.846 30.2118C102.07 30.1553 102.351 30.1553 102.576 30.1553H103.081V29.9859C103.081 29.8729 103.081 29.8165 103.025 29.7035C102.969 29.5906 102.913 29.5341 102.857 29.4776C102.8 29.4212 102.688 29.3647 102.576 29.3082C102.463 29.2518 102.351 29.2518 102.239 29.2518C102.126 29.2518 102.014 29.2518 101.902 29.3082C101.789 29.3082 101.733 29.3647 101.621 29.4212C101.565 29.4776 101.452 29.4776 101.396 29.5341C101.34 29.5906 101.284 29.6471 101.228 29.6471L100.834 29.3082ZM102.688 30.6635C102.52 30.6635 102.351 30.6635 102.183 30.6635C102.014 30.6635 101.846 30.72 101.733 30.7765C101.621 30.8329 101.508 30.8894 101.396 31.0024C101.284 31.1153 101.284 31.2282 101.284 31.3412C101.284 31.5671 101.34 31.68 101.508 31.7929C101.621 31.9059 101.846 31.9059 102.07 31.9059C102.239 31.9059 102.407 31.8494 102.52 31.7929C102.632 31.7365 102.744 31.68 102.8 31.5671C102.857 31.4541 102.913 31.3412 102.969 31.2282C103.025 31.1153 103.025 31.0024 103.025 30.8894V30.6635H102.688Z" fill="#231F20"/>
<path d="M105.497 29.4776V31.0588C105.497 31.1718 105.497 31.2282 105.497 31.3412C105.497 31.4541 105.497 31.5106 105.553 31.5671C105.609 31.6235 105.609 31.68 105.722 31.7365C105.778 31.7929 105.89 31.7929 106.002 31.7929C106.059 31.7929 106.171 31.7929 106.227 31.7929C106.283 31.7929 106.396 31.7365 106.452 31.7365V32.3576C106.396 32.4141 106.283 32.4141 106.171 32.4706C106.059 32.4706 105.946 32.4706 105.89 32.4706C105.665 32.4706 105.441 32.4141 105.328 32.3576C105.216 32.3012 105.104 32.1882 105.048 32.0753C104.991 31.9624 104.935 31.8494 104.935 31.68C104.935 31.5671 104.935 31.3976 104.935 31.2847V29.4776H104.149V28.9129H104.935V27.9529H105.609V28.9129H106.564V29.4776H105.497ZM105.328 34.0518H104.767L105.216 32.6965H105.89L105.328 34.0518Z" fill="#231F20"/>
<path d="M107.182 27.6706C107.182 27.5576 107.238 27.4447 107.351 27.3318C107.463 27.2188 107.575 27.1624 107.688 27.1624C107.8 27.1624 107.912 27.2188 108.025 27.3318C108.137 27.4447 108.193 27.5576 108.193 27.6706C108.193 27.7835 108.137 27.8965 108.025 28.0094C107.912 28.1224 107.8 28.1788 107.688 28.1788C107.575 28.1788 107.463 28.1224 107.351 28.0094C107.238 27.8965 107.182 27.7835 107.182 27.6706ZM107.351 28.8565H108.025V32.3012H107.351V28.8565Z" fill="#231F20"/>
<path d="M108.867 30.6071C108.867 30.3812 108.924 30.0988 109.036 29.9294C109.148 29.7035 109.261 29.5341 109.429 29.3647C109.598 29.1953 109.766 29.0824 109.991 28.9694C110.216 28.8565 110.44 28.8565 110.721 28.8565C111.002 28.8565 111.227 28.9129 111.451 28.9694C111.676 29.0824 111.845 29.1953 112.013 29.3647C112.182 29.5341 112.294 29.7035 112.406 29.9294C112.519 30.1553 112.575 30.3812 112.575 30.6071C112.575 30.8329 112.519 31.1153 112.406 31.3412C112.294 31.5671 112.182 31.7365 112.013 31.9059C111.845 32.0753 111.676 32.1882 111.451 32.3012C111.227 32.4141 111.002 32.4706 110.721 32.4706C110.44 32.4706 110.216 32.4141 109.991 32.3012C109.766 32.1882 109.598 32.0753 109.429 31.9059C109.261 31.7365 109.148 31.5671 109.036 31.3412C108.924 31.1153 108.867 30.8329 108.867 30.6071ZM109.598 30.6071C109.598 30.7765 109.598 30.9459 109.654 31.1153C109.71 31.2847 109.766 31.3976 109.879 31.5106C109.991 31.6235 110.103 31.68 110.216 31.7365C110.384 31.7929 110.496 31.8494 110.665 31.8494C110.834 31.8494 111.002 31.7929 111.114 31.7365C111.283 31.68 111.395 31.5671 111.451 31.5106C111.564 31.3976 111.62 31.2847 111.676 31.1153C111.732 30.9459 111.732 30.8329 111.732 30.6071C111.732 30.4376 111.732 30.2682 111.676 30.0988C111.62 29.9294 111.564 29.8165 111.451 29.7035C111.339 29.5906 111.227 29.5341 111.114 29.4776C110.946 29.4212 110.834 29.3647 110.665 29.3647C110.496 29.3647 110.328 29.4212 110.216 29.4776C110.047 29.5341 109.935 29.6471 109.879 29.7035C109.766 29.8165 109.71 29.9294 109.654 30.0988C109.598 30.2682 109.598 30.4376 109.598 30.6071Z" fill="#231F20"/>
<path d="M113.361 28.8565H114.036V29.3647C114.092 29.1953 114.26 29.0259 114.485 28.9129C114.71 28.8 114.934 28.7435 115.215 28.7435C115.384 28.7435 115.552 28.7435 115.721 28.8C115.889 28.8565 116.002 28.9129 116.114 29.0259C116.226 29.1388 116.339 29.2518 116.395 29.4212C116.451 29.5906 116.507 29.76 116.507 29.9859V32.1882H115.833V30.1553C115.833 29.9859 115.833 29.8729 115.777 29.76C115.721 29.6471 115.665 29.5341 115.608 29.4776C115.552 29.4212 115.44 29.3647 115.384 29.3082C115.271 29.2518 115.215 29.2518 115.103 29.2518C114.99 29.2518 114.822 29.2518 114.71 29.3082C114.597 29.3647 114.485 29.4212 114.429 29.5341C114.316 29.6471 114.26 29.76 114.204 29.8729C114.148 30.0424 114.148 30.2118 114.148 30.3812V32.1318H113.474V28.8565H113.361Z" fill="#231F20"/>
<path d="M117.462 29.3082C117.631 29.1388 117.855 29.0259 118.08 28.9129C118.305 28.8565 118.586 28.8 118.81 28.8C119.035 28.8 119.26 28.8565 119.484 28.9129C119.653 28.9694 119.822 29.0824 119.934 29.1388C120.046 29.2518 120.159 29.3647 120.215 29.4776C120.271 29.5906 120.271 29.76 120.271 29.9294V31.68C120.271 31.7929 120.271 31.9059 120.271 32.0188C120.271 32.1318 120.271 32.2447 120.271 32.3012H119.709C119.709 32.1318 119.709 31.9624 119.709 31.7929C119.541 32.0188 119.372 32.1882 119.204 32.2447C119.035 32.3012 118.754 32.3576 118.53 32.3576C118.361 32.3576 118.192 32.3577 118.08 32.3012C117.912 32.2447 117.799 32.1882 117.687 32.1318C117.575 32.0188 117.518 31.9624 117.406 31.7929C117.35 31.68 117.294 31.5106 117.294 31.3412C117.294 31.1153 117.35 30.9459 117.462 30.7765C117.575 30.6071 117.687 30.4941 117.855 30.4376C118.024 30.3247 118.249 30.2682 118.473 30.2118C118.698 30.1553 118.979 30.1553 119.204 30.1553H119.709V29.9859C119.709 29.8729 119.709 29.8165 119.653 29.7035C119.597 29.5906 119.541 29.5341 119.484 29.4776C119.428 29.4212 119.316 29.3647 119.204 29.3082C119.091 29.2518 118.979 29.2518 118.867 29.2518C118.754 29.2518 118.642 29.2518 118.53 29.3082C118.417 29.3082 118.361 29.3647 118.249 29.4212C118.192 29.4776 118.08 29.4776 118.024 29.5341C117.968 29.5906 117.912 29.6471 117.855 29.6471L117.462 29.3082ZM119.316 30.6635C119.147 30.6635 118.979 30.6635 118.81 30.6635C118.642 30.6635 118.473 30.72 118.361 30.7765C118.249 30.8329 118.136 30.8894 118.024 31.0024C117.912 31.1153 117.912 31.2282 117.912 31.3412C117.912 31.5671 117.968 31.68 118.136 31.7929C118.249 31.9059 118.473 31.9059 118.698 31.9059C118.867 31.9059 119.035 31.8494 119.147 31.7929C119.26 31.7365 119.372 31.68 119.428 31.5671C119.485 31.4541 119.541 31.3412 119.597 31.2282C119.653 31.1153 119.653 31.0024 119.653 30.8894V30.6635H119.316Z" fill="#231F20"/>
<path d="M121.282 26.8235H121.956V32.3012H121.282V26.8235Z" fill="#231F20"/>
<path d="M128.473 32.3012H127.798V31.7929C127.686 31.9624 127.518 32.1318 127.293 32.2447C127.068 32.3576 126.843 32.4141 126.619 32.4141C126.338 32.4141 126.113 32.3577 125.888 32.3012C125.664 32.1882 125.495 32.0753 125.327 31.9059C125.158 31.7365 125.046 31.5671 124.99 31.3412C124.933 31.1153 124.877 30.8894 124.877 30.6071C124.877 30.3247 124.933 30.0988 124.99 29.8729C125.046 29.6471 125.214 29.4776 125.327 29.3082C125.495 29.1388 125.664 29.0259 125.888 28.9129C126.113 28.8 126.338 28.8 126.619 28.8C126.843 28.8 127.124 28.8565 127.293 28.9694C127.518 29.0824 127.686 29.1953 127.798 29.4212V26.88H128.473V32.3012ZM126.675 31.7929C126.843 31.7929 127.012 31.7365 127.124 31.68C127.293 31.6235 127.405 31.5106 127.461 31.4541C127.574 31.3412 127.63 31.2282 127.686 31.0588C127.742 30.8894 127.742 30.7765 127.742 30.5506C127.742 30.3812 127.742 30.2118 127.686 30.0424C127.63 29.8729 127.574 29.76 127.461 29.6471C127.349 29.5341 127.237 29.4776 127.124 29.4212C126.956 29.3647 126.843 29.3082 126.675 29.3082C126.506 29.3082 126.338 29.3647 126.226 29.4212C126.057 29.4776 125.945 29.5906 125.888 29.6471C125.776 29.76 125.72 29.8729 125.664 30.0424C125.608 30.2118 125.608 30.3247 125.608 30.5506C125.608 30.72 125.608 30.8894 125.664 31.0588C125.72 31.2282 125.776 31.3412 125.888 31.4541C126.001 31.5671 126.113 31.6235 126.226 31.68C126.338 31.7929 126.506 31.7929 126.675 31.7929Z" fill="#231F20"/>
<path d="M129.933 30.8329C129.933 31.0024 129.989 31.1153 130.045 31.2282C130.102 31.3412 130.214 31.4541 130.326 31.5671C130.439 31.68 130.551 31.7365 130.72 31.7929C130.888 31.8494 131 31.8494 131.169 31.8494C131.394 31.8494 131.562 31.7929 131.675 31.68C131.843 31.5671 131.955 31.4541 132.068 31.2847L132.573 31.68C132.236 32.1318 131.675 32.3576 131.057 32.3576C130.776 32.3576 130.551 32.3012 130.326 32.2447C130.102 32.1882 129.933 32.0188 129.765 31.8494C129.596 31.68 129.484 31.5106 129.428 31.2847C129.371 31.0588 129.315 30.8329 129.315 30.5506C129.315 30.2682 129.371 30.0424 129.428 29.8165C129.54 29.5906 129.652 29.4212 129.821 29.2518C129.989 29.0824 130.158 28.9694 130.382 28.8565C130.607 28.7435 130.832 28.7435 131.113 28.7435C131.394 28.7435 131.675 28.8 131.899 28.9129C132.124 29.0259 132.292 29.1388 132.405 29.3082C132.517 29.4776 132.629 29.6471 132.686 29.8729C132.742 30.0988 132.798 30.3247 132.798 30.5506V30.7765H129.933V30.8329ZM132.012 30.3247C132.012 30.1553 131.955 30.0424 131.955 29.9294C131.899 29.8165 131.843 29.7035 131.787 29.5906C131.731 29.4776 131.618 29.4212 131.45 29.3647C131.337 29.3082 131.169 29.3082 131 29.3082C130.832 29.3082 130.72 29.3647 130.551 29.4212C130.439 29.4776 130.326 29.5341 130.214 29.6471C130.102 29.76 130.045 29.8729 129.989 29.9859C129.933 30.0988 129.933 30.2118 129.933 30.3247H132.012Z" fill="#231F20"/>
<path d="M58.4783 37.5529C58.3098 37.3835 58.1413 37.2141 57.9166 37.1012C57.6919 36.9882 57.4672 36.9318 57.2425 36.9318C56.9616 36.9318 56.6807 36.9882 56.456 37.1012C56.2313 37.2141 56.0066 37.3835 55.8381 37.5529C55.6696 37.7224 55.5572 37.9482 55.4449 38.2306C55.3325 38.4565 55.3325 38.7388 55.3325 39.0212C55.3325 39.3035 55.3887 39.5294 55.4449 39.8118C55.5572 40.0376 55.6696 40.2635 55.8381 40.4329C56.0066 40.6024 56.2313 40.7718 56.456 40.8847C56.6807 40.9977 56.9616 41.0541 57.2425 41.0541C57.5233 41.0541 57.8042 40.9977 58.0289 40.8847C58.2536 40.7718 58.4221 40.6024 58.5907 40.3765L59.2086 40.8282C59.1524 40.8847 59.0962 40.9412 58.9839 41.0541C58.8715 41.1671 58.7592 41.28 58.5907 41.3365C58.4221 41.4494 58.2536 41.5059 58.0289 41.6188C57.8042 41.6753 57.5233 41.7318 57.2425 41.7318C56.8492 41.7318 56.456 41.6753 56.119 41.5059C55.7819 41.3365 55.501 41.1671 55.2763 40.8847C55.0516 40.6588 54.8831 40.3765 54.7708 40.0377C54.6584 39.6988 54.6022 39.4165 54.6022 39.0776C54.6022 38.6824 54.6584 38.2871 54.8269 38.0047C54.9393 37.6659 55.164 37.3835 55.3887 37.1576C55.6134 36.9318 55.8943 36.7059 56.2313 36.5929C56.5684 36.48 56.9054 36.3671 57.2986 36.3671C57.6357 36.3671 57.9727 36.4235 58.3098 36.5365C58.6468 36.6494 58.9277 36.8753 59.0962 37.1576L58.4783 37.5529Z" fill="#231F20"/>
<path d="M59.7142 39.8682C59.7142 39.6424 59.7703 39.36 59.8827 39.1906C59.995 38.9647 60.1074 38.7953 60.2759 38.6259C60.4444 38.4565 60.613 38.3435 60.8377 38.2306C61.0624 38.1176 61.2871 38.1176 61.5679 38.1176C61.8488 38.1176 62.0735 38.1741 62.2982 38.2306C62.5229 38.3435 62.6914 38.4565 62.86 38.6259C63.0285 38.7953 63.1409 38.9647 63.2532 39.1906C63.3656 39.4165 63.4217 39.6424 63.4217 39.8682C63.4217 40.0941 63.3656 40.3765 63.2532 40.6024C63.1409 40.8282 63.0285 40.9977 62.86 41.1671C62.6914 41.3365 62.5229 41.4494 62.2982 41.5624C62.0735 41.6753 61.8488 41.7318 61.5679 41.7318C61.2871 41.7318 61.0624 41.6753 60.8377 41.5624C60.613 41.4494 60.4444 41.3365 60.2759 41.1671C60.1074 40.9977 59.995 40.8282 59.8827 40.6024C59.7703 40.3765 59.7142 40.0941 59.7142 39.8682ZM60.3883 39.8682C60.3883 40.0376 60.3883 40.2071 60.4444 40.3765C60.5006 40.5459 60.5568 40.6588 60.6691 40.7718C60.7815 40.8847 60.8938 40.9412 61.0062 40.9976C61.1747 41.0541 61.2871 41.1106 61.4556 41.1106C61.6241 41.1106 61.7926 41.0541 61.905 40.9976C62.0735 40.9412 62.1859 40.8282 62.242 40.7718C62.3544 40.6588 62.4106 40.5459 62.4667 40.3765C62.5229 40.2071 62.5229 40.0941 62.5229 39.8682C62.5229 39.6988 62.5229 39.5294 62.4667 39.36C62.4106 39.1906 62.3544 39.0776 62.242 38.9647C62.1297 38.8518 62.0173 38.7953 61.905 38.7388C61.7365 38.6824 61.6241 38.6259 61.4556 38.6259C61.2871 38.6259 61.1185 38.6824 61.0062 38.7388C60.8377 38.7953 60.7253 38.9082 60.6691 38.9647C60.5568 39.0776 60.5006 39.1906 60.4444 39.36C60.3883 39.5294 60.3883 39.6988 60.3883 39.8682Z" fill="#231F20"/>
<path d="M64.2644 36.0847H64.9385V41.5624H64.2644V36.0847Z" fill="#231F20"/>
<path d="M65.9496 38.5694C66.1181 38.4 66.3428 38.2871 66.5675 38.1741C66.7922 38.1176 67.0731 38.0612 67.2978 38.0612C67.5225 38.0612 67.7472 38.1176 67.9719 38.1741C68.1404 38.2306 68.309 38.3435 68.4213 38.4C68.5337 38.5129 68.646 38.6259 68.7022 38.7388C68.7584 38.8518 68.7584 39.0212 68.7584 39.1906V40.9412C68.7584 41.0541 68.7584 41.1671 68.7584 41.28C68.7584 41.3929 68.7584 41.5059 68.7584 41.5624H68.1966C68.1966 41.3929 68.1966 41.2235 68.1966 41.0541C68.0281 41.28 67.8596 41.4494 67.691 41.5059C67.4663 41.6188 67.2416 41.6188 67.0169 41.6188C66.8484 41.6188 66.6799 41.6188 66.5675 41.5624C66.399 41.5059 66.2867 41.4494 66.1743 41.3929C66.062 41.28 66.0058 41.2235 65.8934 41.0541C65.8373 40.9412 65.7811 40.7718 65.7811 40.6024C65.7811 40.3765 65.8373 40.2071 65.9496 40.0377C66.062 39.8682 66.1743 39.7553 66.3428 39.6988C66.5114 39.5859 66.7361 39.5294 66.9608 39.4729C67.1855 39.4165 67.4663 39.4165 67.691 39.4165H68.1966V39.2471C68.1966 39.1341 68.1966 39.0776 68.1404 38.9647C68.0843 38.8518 68.0281 38.7953 67.9719 38.7388C67.9157 38.6824 67.8034 38.6259 67.691 38.5694C67.5787 38.5129 67.4663 38.5129 67.354 38.5129C67.2416 38.5129 67.1293 38.5129 67.0169 38.5694C66.9046 38.5694 66.8484 38.6259 66.7361 38.6824C66.6799 38.7388 66.5675 38.7388 66.5114 38.7953C66.4552 38.8518 66.399 38.9082 66.3428 38.9082L65.9496 38.5694ZM67.8034 39.9247C67.6349 39.9247 67.4663 39.9247 67.2978 39.9247C67.1293 39.9247 66.9608 39.9812 66.8484 40.0377C66.7361 40.0941 66.6237 40.1506 66.5114 40.2635C66.399 40.3765 66.399 40.4894 66.399 40.6024C66.399 40.8282 66.4552 40.9412 66.6237 41.0541C66.7361 41.1671 66.9608 41.1671 67.1855 41.1671C67.354 41.1671 67.5225 41.1106 67.6349 41.0541C67.7472 40.9976 67.8596 40.9412 67.9157 40.8282C67.9719 40.7153 68.0281 40.6024 68.0843 40.4894C68.1404 40.3765 68.1404 40.2635 68.1404 40.1506V39.9247H67.8034Z" fill="#231F20"/>
<path d="M69.7133 36.0847H70.3874V38.6259C70.4998 38.4565 70.6683 38.2871 70.893 38.1741C71.1177 38.0612 71.3424 38.0047 71.5671 38.0047C71.848 38.0047 72.0727 38.0612 72.2974 38.1176C72.5221 38.2306 72.6906 38.3435 72.8591 38.5129C73.0277 38.6824 73.14 38.8518 73.1962 39.0776C73.2524 39.3035 73.3085 39.5294 73.3085 39.8118C73.3085 40.0941 73.2524 40.32 73.1962 40.5459C73.14 40.7718 72.9715 40.9412 72.8591 41.1106C72.6906 41.28 72.5221 41.3929 72.2974 41.5059C72.0727 41.6188 71.848 41.6188 71.5671 41.6188C71.3424 41.6188 71.1177 41.5624 70.893 41.4494C70.6683 41.3365 70.4998 41.2235 70.3874 40.9976V41.5059H69.7133V36.0847ZM71.5109 41.0541C71.6795 41.0541 71.848 40.9977 71.9604 40.9412C72.1289 40.8847 72.2412 40.7718 72.2974 40.7153C72.4097 40.6024 72.4659 40.4894 72.5221 40.32C72.5783 40.1506 72.5783 40.0376 72.5783 39.8118C72.5783 39.6424 72.5783 39.4729 72.5221 39.3035C72.4659 39.1341 72.4097 39.0212 72.2974 38.9082C72.185 38.7953 72.0727 38.7388 71.9604 38.6824C71.7918 38.6259 71.6795 38.5694 71.5109 38.5694C71.3424 38.5694 71.1739 38.6259 71.0615 38.6824C70.893 38.7388 70.7807 38.8518 70.7245 38.9082C70.6121 39.0212 70.556 39.1341 70.4998 39.3035C70.4436 39.4729 70.4436 39.5859 70.4436 39.8118C70.4436 39.9812 70.4436 40.1506 70.4998 40.32C70.556 40.4894 70.6121 40.6024 70.7245 40.7153C70.8368 40.8282 70.9492 40.8847 71.0615 40.9412C71.2301 41.0541 71.3424 41.0541 71.5109 41.0541Z" fill="#231F20"/>
<path d="M74.0388 39.8682C74.0388 39.6424 74.095 39.36 74.2074 39.1906C74.3197 38.9647 74.4321 38.7953 74.6006 38.6259C74.7691 38.4565 74.9376 38.3435 75.1623 38.2306C75.387 38.1176 75.6117 38.1176 75.8926 38.1176C76.1735 38.1176 76.3982 38.1741 76.6229 38.2306C76.8476 38.3435 77.0161 38.4565 77.1846 38.6259C77.3531 38.7953 77.4655 38.9647 77.5779 39.1906C77.6902 39.4165 77.7464 39.6424 77.7464 39.8682C77.7464 40.0941 77.6902 40.3765 77.5779 40.6024C77.4655 40.8282 77.3531 40.9977 77.1846 41.1671C77.0161 41.3365 76.8476 41.4494 76.6229 41.5624C76.3982 41.6753 76.1735 41.7318 75.8926 41.7318C75.6117 41.7318 75.387 41.6753 75.1623 41.5624C74.9376 41.4494 74.7691 41.3365 74.6006 41.1671C74.4321 40.9977 74.3197 40.8282 74.2074 40.6024C74.095 40.3765 74.0388 40.0941 74.0388 39.8682ZM74.7129 39.8682C74.7129 40.0376 74.7129 40.2071 74.7691 40.3765C74.8253 40.5459 74.8814 40.6588 74.9938 40.7718C75.1061 40.8847 75.2185 40.9412 75.3309 40.9976C75.4994 41.0541 75.6117 41.1106 75.7803 41.1106C75.9488 41.1106 76.1173 41.0541 76.2297 40.9976C76.3982 40.9412 76.5105 40.8282 76.5667 40.7718C76.6791 40.6588 76.7352 40.5459 76.7914 40.3765C76.8476 40.2071 76.8476 40.0941 76.8476 39.8682C76.8476 39.6988 76.8476 39.5294 76.7914 39.36C76.7352 39.1906 76.6791 39.0776 76.5667 38.9647C76.4544 38.8518 76.342 38.7953 76.2297 38.7388C76.0611 38.6824 75.9488 38.6259 75.7803 38.6259C75.6117 38.6259 75.4432 38.6824 75.3309 38.7388C75.1623 38.7953 75.05 38.9082 74.9938 38.9647C74.8814 39.0776 74.8253 39.1906 74.7691 39.36C74.7129 39.5294 74.7129 39.6988 74.7129 39.8682Z" fill="#231F20"/>
<path d="M79.2069 38.1741V38.6824C79.2631 38.5694 79.3193 38.5129 79.3755 38.4565C79.4316 38.4 79.544 38.3435 79.6002 38.2871C79.7125 38.2306 79.7687 38.1741 79.881 38.1741C79.9934 38.1176 80.1057 38.1176 80.2181 38.1176C80.3304 38.1176 80.4428 38.1176 80.499 38.1741L80.4428 38.8518C80.3866 38.8518 80.3304 38.8518 80.2743 38.7953C80.2181 38.7953 80.1619 38.7953 80.1057 38.7953C79.7687 38.7953 79.544 38.9082 79.3755 39.0776C79.2069 39.2471 79.0946 39.5294 79.0946 39.9247V41.6753H78.4205V38.1741H79.2069Z" fill="#231F20"/>
<path d="M81.2292 38.5694C81.3978 38.4 81.6225 38.2871 81.8472 38.1741C82.0719 38.1176 82.3527 38.0612 82.5774 38.0612C82.8021 38.0612 83.0268 38.1176 83.2515 38.1741C83.4201 38.2306 83.5886 38.3435 83.701 38.4C83.8133 38.5129 83.9257 38.6259 83.9818 38.7388C84.038 38.8518 84.038 39.0212 84.038 39.1906V40.9412C84.038 41.0541 84.038 41.1671 84.038 41.28C84.038 41.3929 84.038 41.5059 84.038 41.5624H83.4762C83.4762 41.3929 83.4762 41.2235 83.4762 41.0541C83.3077 41.28 83.1392 41.4494 82.9707 41.5059C82.8021 41.5624 82.5213 41.6188 82.2966 41.6188C82.128 41.6188 81.9595 41.6188 81.8472 41.5624C81.6786 41.5059 81.5663 41.4494 81.4539 41.3929C81.3416 41.28 81.2854 41.2235 81.1731 41.0541C81.1169 40.9412 81.0607 40.7718 81.0607 40.6024C81.0607 40.3765 81.1169 40.2071 81.2292 40.0377C81.3416 39.8682 81.4539 39.7553 81.6225 39.6988C81.791 39.5859 82.0157 39.5294 82.2404 39.4729C82.4651 39.4165 82.746 39.4165 82.9707 39.4165H83.4762V39.2471C83.4762 39.1341 83.4762 39.0776 83.4201 38.9647C83.3639 38.8518 83.3077 38.7953 83.2515 38.7388C83.1954 38.6824 83.083 38.6259 82.9707 38.5694C82.8583 38.5129 82.746 38.5129 82.6336 38.5129C82.5213 38.5129 82.4089 38.5129 82.2966 38.5694C82.1842 38.5694 82.128 38.6259 82.0157 38.6824C81.9595 38.7388 81.8472 38.7388 81.791 38.7953C81.7348 38.8518 81.6786 38.9082 81.6225 38.9082L81.2292 38.5694ZM83.083 39.9247C82.9145 39.9247 82.746 39.9247 82.5774 39.9247C82.4089 39.9247 82.2404 39.9812 82.128 40.0377C82.0157 40.0941 81.9034 40.1506 81.791 40.2635C81.6786 40.3765 81.6786 40.4894 81.6786 40.6024C81.6786 40.8282 81.7348 40.9412 81.9033 41.0541C82.0157 41.1671 82.2404 41.1671 82.4651 41.1671C82.6336 41.1671 82.8022 41.1106 82.9145 41.0541C83.0268 40.9976 83.1392 40.9412 83.1954 40.8282C83.2515 40.7153 83.3077 40.6024 83.3639 40.4894C83.4201 40.3765 83.4201 40.2635 83.4201 40.1506V39.9247H83.083Z" fill="#231F20"/>
<path d="M85.6671 38.1741V38.6824C85.7233 38.5694 85.7794 38.5129 85.8356 38.4565C85.8918 38.4 86.0041 38.3435 86.0603 38.2871C86.1727 38.2306 86.2288 38.1741 86.3412 38.1741C86.4535 38.1176 86.5659 38.1176 86.6782 38.1176C86.7906 38.1176 86.9029 38.1176 86.9591 38.1741L86.9029 38.8518C86.8468 38.8518 86.7906 38.8518 86.7344 38.7953C86.6782 38.7953 86.6221 38.7953 86.5659 38.7953C86.2288 38.7953 86.0041 38.9082 85.8356 39.0776C85.6671 39.2471 85.5547 39.5294 85.5547 39.9247V41.6753H84.8806V38.1741H85.6671Z" fill="#231F20"/>
<path d="M88.0826 40.0941C88.0826 40.2635 88.1388 40.3765 88.195 40.4894C88.2511 40.6024 88.3635 40.7153 88.4758 40.8282C88.5882 40.9412 88.7005 40.9976 88.8691 41.0541C89.0376 41.1106 89.1499 41.1106 89.3185 41.1106C89.5432 41.1106 89.7117 41.0541 89.824 40.9412C89.9926 40.8282 90.1049 40.7153 90.2173 40.5459L90.7228 40.9412C90.3858 41.3929 89.824 41.6188 89.2061 41.6188C88.9252 41.6188 88.7005 41.5624 88.4758 41.5059C88.2511 41.4494 88.0826 41.28 87.9141 41.1106C87.7456 40.9412 87.6332 40.7718 87.577 40.5459C87.5209 40.32 87.4647 40.0941 87.4647 39.8118C87.4647 39.5294 87.5209 39.3035 87.577 39.0776C87.6894 38.8518 87.8017 38.6824 87.9703 38.5129C88.1388 38.3435 88.3073 38.2306 88.532 38.1176C88.7567 38.0047 88.9814 38.0047 89.2623 38.0047C89.5432 38.0047 89.824 38.0612 90.0487 38.1741C90.2734 38.2871 90.442 38.4 90.5543 38.5694C90.6667 38.7388 90.779 38.9082 90.8352 39.1341C90.8914 39.36 90.9475 39.5859 90.9475 39.8118V40.0941H88.0826ZM90.1611 39.5859C90.1611 39.4165 90.1049 39.3035 90.1049 39.1906C90.0487 39.0776 89.9926 38.9647 89.9364 38.8518C89.8802 38.7388 89.7679 38.6824 89.5993 38.6259C89.4308 38.5694 89.3185 38.5694 89.1499 38.5694C88.9814 38.5694 88.8691 38.6259 88.7005 38.6824C88.5882 38.7388 88.4758 38.7953 88.3635 38.9082C88.2511 39.0212 88.195 39.1341 88.1388 39.2471C88.0826 39.36 88.0826 39.4729 88.0826 39.5859H90.1611Z" fill="#231F20"/>
<path d="M95.4977 39.0212C95.4416 38.9082 95.3292 38.8518 95.2169 38.7953C95.1045 38.7388 94.936 38.6824 94.8236 38.6824C94.6551 38.6824 94.5428 38.7388 94.4304 38.7953C94.3181 38.8518 94.2619 38.9647 94.2619 39.0776C94.2619 39.1906 94.318 39.2471 94.3742 39.3035C94.4304 39.36 94.5427 39.4165 94.5989 39.4729C94.7113 39.5294 94.7674 39.5294 94.8798 39.5859C94.9921 39.5859 95.0483 39.6424 95.1607 39.6424C95.3292 39.6988 95.4416 39.6988 95.5539 39.7553C95.6663 39.8118 95.7786 39.8682 95.8909 39.9247C96.0033 39.9812 96.0595 40.0941 96.1157 40.2071C96.1718 40.32 96.1718 40.4329 96.1718 40.6024C96.1718 40.7718 96.1157 40.9412 96.0595 41.1106C96.0033 41.2235 95.8909 41.3365 95.7224 41.4494C95.6101 41.5624 95.4416 41.6188 95.273 41.6188C95.1045 41.6753 94.936 41.6753 94.7674 41.6753C94.4866 41.6753 94.2057 41.6188 94.0372 41.5624C93.8125 41.4494 93.6439 41.3365 93.4754 41.1106L93.981 40.7153C94.0933 40.8282 94.2057 40.9412 94.318 40.9976C94.4304 41.0541 94.5989 41.1106 94.8236 41.1106C94.8798 41.1106 94.9921 41.1106 95.0483 41.1106C95.1607 41.1106 95.2169 41.0541 95.273 41.0541C95.3292 40.9976 95.3854 40.9977 95.4416 40.9412C95.4977 40.8847 95.4977 40.8282 95.4977 40.7718C95.4977 40.6588 95.4416 40.6024 95.3854 40.5459C95.3292 40.4894 95.273 40.4329 95.1607 40.3765C95.0483 40.32 94.9921 40.32 94.8798 40.2635C94.7674 40.2635 94.7113 40.2071 94.6551 40.2071C94.4866 40.1506 94.3742 40.1506 94.2619 40.0941C94.1495 40.0376 94.0372 39.9812 93.9248 39.9247C93.8125 39.8682 93.7563 39.7553 93.7001 39.6424C93.644 39.5294 93.5878 39.4165 93.5878 39.2471C93.5878 39.0776 93.644 38.9082 93.7001 38.7953C93.7563 38.6824 93.8686 38.5694 93.981 38.4565C94.0933 38.3435 94.2619 38.2871 94.4304 38.2871C94.5989 38.2306 94.7674 38.2306 94.936 38.2306C95.1607 38.2306 95.3854 38.2871 95.6101 38.3435C95.8348 38.4565 96.0033 38.5694 96.1157 38.7953L95.4977 39.0212Z" fill="#231F20"/>
<path d="M96.7898 36.9318C96.7898 36.8188 96.8459 36.7059 96.9583 36.5929C97.0706 36.48 97.183 36.4235 97.2953 36.4235C97.4077 36.4235 97.52 36.48 97.6324 36.5929C97.7447 36.7059 97.8009 36.8188 97.8009 36.9318C97.8009 37.0447 97.7447 37.1576 97.6324 37.2706C97.52 37.3835 97.4077 37.44 97.2953 37.44C97.183 37.44 97.0706 37.3835 96.9583 37.2706C96.8459 37.1576 96.7898 37.0447 96.7898 36.9318ZM96.9583 38.1741H97.6324V41.6188H96.9583V38.1741Z" fill="#231F20"/>
<path d="M100.722 36.48H102.52C102.857 36.48 103.194 36.5365 103.475 36.5929C103.755 36.6494 103.98 36.7624 104.205 36.9318C104.43 37.0447 104.598 37.2141 104.71 37.3835C104.823 37.5529 104.935 37.7224 105.047 37.9482C105.104 38.1176 105.16 38.3435 105.216 38.5129C105.272 38.6824 105.272 38.8518 105.272 39.0212C105.272 39.36 105.216 39.6424 105.104 39.9812C104.991 40.2635 104.823 40.5459 104.542 40.8282C104.317 41.0541 103.98 41.28 103.643 41.3929C103.306 41.5624 102.857 41.6188 102.407 41.6188H100.722V36.48ZM101.452 40.9412H102.351C102.632 40.9412 102.913 40.8847 103.194 40.8282C103.475 40.7718 103.699 40.6024 103.868 40.4894C104.093 40.32 104.205 40.1506 104.317 39.8682C104.43 39.6424 104.486 39.36 104.486 39.0212C104.486 38.8518 104.486 38.6824 104.43 38.4565C104.373 38.2306 104.261 38.0047 104.149 37.8353C103.98 37.6094 103.812 37.4965 103.531 37.3271C103.25 37.2141 102.913 37.1012 102.52 37.1012H101.452V40.9412Z" fill="#231F20"/>
<path d="M106.564 40.0941C106.564 40.2635 106.62 40.3765 106.677 40.4894C106.733 40.6024 106.845 40.7153 106.957 40.8282C107.07 40.9412 107.182 40.9976 107.351 41.0541C107.519 41.1106 107.632 41.1106 107.8 41.1106C108.025 41.1106 108.193 41.0541 108.306 40.9412C108.474 40.8282 108.587 40.7153 108.699 40.5459L109.204 40.9412C108.867 41.3929 108.306 41.6188 107.688 41.6188C107.407 41.6188 107.182 41.5624 106.957 41.5059C106.733 41.4494 106.564 41.28 106.396 41.1106C106.227 40.9412 106.115 40.7718 106.059 40.5459C106.002 40.32 105.946 40.0941 105.946 39.8118C105.946 39.5294 106.002 39.3035 106.059 39.0776C106.171 38.8518 106.283 38.6824 106.452 38.5129C106.62 38.3435 106.789 38.2306 107.014 38.1176C107.238 38.0047 107.463 38.0047 107.744 38.0047C108.025 38.0047 108.306 38.0612 108.53 38.1741C108.755 38.2871 108.924 38.4 109.036 38.5694C109.148 38.7388 109.261 38.9082 109.317 39.1341C109.373 39.36 109.429 39.5859 109.429 39.8118V40.0941H106.564ZM108.643 39.5859C108.643 39.4165 108.587 39.3035 108.587 39.1906C108.53 39.0776 108.474 38.9647 108.418 38.8518C108.362 38.7388 108.249 38.6824 108.081 38.6259C107.912 38.5694 107.8 38.5694 107.632 38.5694C107.463 38.5694 107.351 38.6259 107.182 38.6824C107.07 38.7388 106.957 38.7953 106.845 38.9082C106.733 39.0212 106.677 39.1341 106.62 39.2471C106.564 39.36 106.564 39.4729 106.564 39.5859H108.643Z" fill="#231F20"/>
<path d="M109.879 40.9976L111.845 38.7388H109.935V38.1741H112.631V38.7388L110.665 41.0541H112.743V41.6188H109.879V40.9976Z" fill="#231F20"/>
<path d="M113.081 38.1741H113.867L114.878 40.8282L115.889 38.1741H116.563L115.215 41.6188H114.485L113.081 38.1741Z" fill="#231F20"/>
<path d="M117.013 39.8682C117.013 39.6424 117.069 39.36 117.181 39.1906C117.294 38.9647 117.406 38.7953 117.575 38.6259C117.743 38.4565 117.912 38.3435 118.136 38.2306C118.361 38.1176 118.586 38.1176 118.867 38.1176C119.147 38.1176 119.372 38.1741 119.597 38.2306C119.822 38.3435 119.99 38.4565 120.159 38.6259C120.327 38.7953 120.439 38.9647 120.552 39.1906C120.664 39.4165 120.72 39.6424 120.72 39.8682C120.72 40.0941 120.664 40.3765 120.552 40.6024C120.439 40.8282 120.327 40.9977 120.159 41.1671C119.99 41.3365 119.822 41.4494 119.597 41.5624C119.372 41.6753 119.147 41.7318 118.867 41.7318C118.586 41.7318 118.361 41.6753 118.136 41.5624C117.912 41.4494 117.743 41.3365 117.575 41.1671C117.406 40.9977 117.294 40.8282 117.181 40.6024C117.069 40.3765 117.013 40.0941 117.013 39.8682ZM117.687 39.8682C117.687 40.0376 117.687 40.2071 117.743 40.3765C117.799 40.5459 117.855 40.6588 117.968 40.7718C118.08 40.8847 118.192 40.9412 118.305 40.9976C118.473 41.0541 118.586 41.1106 118.754 41.1106C118.923 41.1106 119.091 41.0541 119.204 40.9976C119.372 40.9412 119.485 40.8282 119.541 40.7718C119.653 40.6588 119.709 40.5459 119.765 40.3765C119.822 40.2071 119.822 40.0941 119.822 39.8682C119.822 39.6988 119.822 39.5294 119.765 39.36C119.709 39.1906 119.653 39.0776 119.541 38.9647C119.428 38.8518 119.316 38.7953 119.204 38.7388C119.035 38.6824 118.923 38.6259 118.754 38.6259C118.586 38.6259 118.417 38.6824 118.305 38.7388C118.136 38.7953 118.024 38.9082 117.968 38.9647C117.855 39.0776 117.799 39.1906 117.743 39.36C117.687 39.5294 117.687 39.6988 117.687 39.8682Z" fill="#231F20"/>
<path d="M121.563 36.0847H122.237V41.5624H121.563V36.0847Z" fill="#231F20"/>
<path d="M124.147 38.7388V40.32C124.147 40.4329 124.147 40.4894 124.147 40.6024C124.147 40.7153 124.147 40.7718 124.203 40.8282C124.259 40.8847 124.259 40.9412 124.372 40.9976C124.428 41.0541 124.54 41.0541 124.653 41.0541C124.709 41.0541 124.821 41.0541 124.877 41.0541C124.933 41.0541 125.046 40.9976 125.102 40.9976V41.6188C125.046 41.6753 124.933 41.6753 124.821 41.7318C124.709 41.7318 124.596 41.7318 124.54 41.7318C124.316 41.7318 124.091 41.6753 123.979 41.6188C123.866 41.5624 123.754 41.4494 123.698 41.3365C123.641 41.2235 123.585 41.1106 123.585 40.9412C123.585 40.8282 123.585 40.6588 123.585 40.5459V38.7388H122.799V38.1741H123.585V37.2141H124.259V38.1741H125.214V38.7388H124.147Z" fill="#231F20"/>
<path d="M125.945 38.5694C126.113 38.4 126.338 38.2871 126.563 38.1741C126.787 38.1176 127.068 38.0612 127.293 38.0612C127.518 38.0612 127.742 38.1176 127.967 38.1741C128.135 38.2306 128.304 38.3435 128.416 38.4C128.529 38.5129 128.641 38.6259 128.697 38.7388C128.753 38.8518 128.753 39.0212 128.753 39.1906V40.9412C128.753 41.0541 128.753 41.1671 128.753 41.28C128.753 41.3929 128.753 41.5059 128.753 41.5624H128.192C128.192 41.3929 128.192 41.2235 128.192 41.0541C128.023 41.28 127.855 41.4494 127.686 41.5059C127.518 41.5624 127.237 41.6188 127.012 41.6188C126.843 41.6188 126.675 41.6188 126.563 41.5624C126.394 41.5059 126.282 41.4494 126.169 41.3929C126.057 41.28 126.001 41.2235 125.888 41.0541C125.832 40.9412 125.776 40.7718 125.776 40.6024C125.776 40.3765 125.832 40.2071 125.945 40.0377C126.057 39.8682 126.169 39.7553 126.338 39.6988C126.506 39.5859 126.731 39.5294 126.956 39.4729C127.18 39.4165 127.461 39.4165 127.686 39.4165H128.192V39.2471C128.192 39.1341 128.192 39.0776 128.135 38.9647C128.079 38.8518 128.023 38.7953 127.967 38.7388C127.911 38.6824 127.798 38.6259 127.686 38.5694C127.574 38.5129 127.461 38.5129 127.349 38.5129C127.237 38.5129 127.124 38.5129 127.012 38.5694C126.9 38.5694 126.843 38.6259 126.731 38.6824C126.675 38.7388 126.563 38.7388 126.506 38.7953C126.45 38.8518 126.394 38.9082 126.338 38.9082L125.945 38.5694ZM127.798 39.9247C127.63 39.9247 127.461 39.9247 127.293 39.9247C127.124 39.9247 126.956 39.9812 126.843 40.0377C126.731 40.0941 126.619 40.1506 126.506 40.2635C126.394 40.3765 126.394 40.4894 126.394 40.6024C126.394 40.8282 126.45 40.9412 126.619 41.0541C126.731 41.1671 126.956 41.1671 127.18 41.1671C127.349 41.1671 127.518 41.1106 127.63 41.0541C127.742 40.9976 127.855 40.9412 127.911 40.8282C127.967 40.7153 128.023 40.6024 128.079 40.4894C128.135 40.3765 128.135 40.2635 128.135 40.1506V39.9247H127.798Z" fill="#231F20"/>
<path d="M130.382 38.1741V38.6824C130.439 38.5694 130.495 38.5129 130.551 38.4565C130.607 38.4 130.72 38.3435 130.776 38.2871C130.888 38.2306 130.944 38.1741 131.057 38.1741C131.169 38.1176 131.281 38.1176 131.394 38.1176C131.506 38.1176 131.618 38.1176 131.675 38.1741L131.618 38.8518C131.562 38.8518 131.506 38.8518 131.45 38.7953C131.394 38.7953 131.337 38.7953 131.281 38.7953C130.944 38.7953 130.72 38.9082 130.551 39.0776C130.382 39.2471 130.27 39.5294 130.27 39.9247V41.6753H129.596V38.1741H130.382Z" fill="#231F20"/>
<path d="M132.798 40.0941C132.798 40.2635 132.854 40.3765 132.91 40.4894C132.967 40.6024 133.079 40.7153 133.191 40.8282C133.304 40.9412 133.416 40.9976 133.584 41.0541C133.753 41.1106 133.865 41.1106 134.034 41.1106C134.259 41.1106 134.427 41.0541 134.539 40.9412C134.708 40.8282 134.82 40.7153 134.933 40.5459L135.438 40.9412C135.101 41.3929 134.539 41.6188 133.922 41.6188C133.641 41.6188 133.416 41.5624 133.191 41.5059C132.967 41.3929 132.798 41.28 132.629 41.1106C132.461 40.9412 132.349 40.7718 132.292 40.5459C132.236 40.32 132.18 40.0941 132.18 39.8118C132.18 39.5294 132.236 39.3035 132.292 39.0776C132.405 38.8518 132.517 38.6824 132.686 38.5129C132.854 38.3435 133.023 38.2306 133.247 38.1176C133.472 38.0047 133.697 38.0047 133.978 38.0047C134.259 38.0047 134.539 38.0612 134.764 38.1741C134.989 38.2871 135.157 38.4 135.27 38.5694C135.382 38.7388 135.494 38.9082 135.551 39.1341C135.607 39.36 135.663 39.5859 135.663 39.8118V40.0941H132.798ZM134.876 39.5859C134.876 39.4165 134.82 39.3035 134.82 39.1906C134.764 39.0776 134.708 38.9647 134.652 38.8518C134.596 38.7388 134.483 38.6824 134.315 38.6259C134.146 38.5694 134.034 38.5694 133.865 38.5694C133.697 38.5694 133.584 38.6259 133.416 38.6824C133.304 38.7388 133.191 38.7953 133.079 38.9082C132.967 39.0212 132.91 39.1341 132.854 39.2471C132.798 39.36 132.798 39.4729 132.798 39.5859H134.876Z" fill="#231F20"/>
<path d="M65.7249 11.8588C65.7249 12.7059 65.5564 13.44 65.2755 14.0612C64.9385 14.6259 64.5452 15.1341 63.9835 15.4729C63.4217 15.8118 62.8038 16.0941 62.1297 16.2635C61.3994 16.4329 60.6691 16.4894 59.9389 16.4894H58.1974V22.08H54.6584V7.28471H60.0512C60.8377 7.28471 61.6241 7.34118 62.2982 7.51059C62.9723 7.68 63.5902 7.90588 64.152 8.30118C64.6576 8.64 65.107 9.14824 65.3879 9.71294C65.6126 10.2776 65.7249 11.0118 65.7249 11.8588ZM62.1859 11.8588C62.1859 11.52 62.1297 11.2376 61.9612 11.0118C61.8488 10.7859 61.6241 10.6165 61.3994 10.5035C61.1747 10.3906 60.8938 10.2776 60.613 10.2776C60.3321 10.2212 59.995 10.2212 59.7142 10.2212H58.1413V13.7224H59.658C59.995 13.7224 60.3321 13.7224 60.613 13.6659C60.8938 13.6094 61.1747 13.4965 61.4556 13.3835C61.6803 13.2706 61.905 13.0447 62.0173 12.8188C62.1297 12.5365 62.1859 12.1976 62.1859 11.8588Z" fill="#0047AB"/>
<path d="M74.4882 22.08V16.4329C74.4882 16.1506 74.4882 15.8682 74.4321 15.5859C74.3759 15.3035 74.3197 15.0776 74.2074 14.9082C74.095 14.6824 73.9265 14.5694 73.7579 14.4C73.5894 14.2871 73.3085 14.2306 73.0277 14.2306C72.4097 14.2306 71.9603 14.4565 71.6795 14.8518C71.3424 15.3035 71.2301 15.8118 71.2301 16.4329V22.0235H67.8034V6.32471H71.2301V12.9882H71.2862C71.5109 12.5929 71.9042 12.1976 72.4097 11.8588C72.9153 11.52 73.5332 11.3506 74.2635 11.3506C74.9938 11.3506 75.5555 11.4635 76.0611 11.7459C76.5105 11.9718 76.9038 12.3106 77.2408 12.7059C77.5217 13.1012 77.7464 13.5529 77.8587 14.0612C77.9711 14.5694 78.0834 15.0776 78.0834 15.5859V22.0235H74.4882V22.08Z" fill="#0047AB"/>
<path d="M91.4531 16.8282C91.4531 17.6753 91.2846 18.4659 91.0037 19.1435C90.7228 19.8212 90.2734 20.4424 89.7679 20.8941C89.2623 21.4024 88.6444 21.7412 87.9141 22.0235C87.24 22.3059 86.4535 22.4188 85.6671 22.4188C84.8806 22.4188 84.1504 22.3059 83.4763 22.0235C82.8022 21.7412 82.1842 21.4024 81.6225 20.8941C81.1169 20.4424 80.6675 19.8212 80.3866 19.1435C80.1057 18.4659 79.9372 17.6753 79.9372 16.8282C79.9372 15.9812 80.1057 15.1906 80.3866 14.5129C80.6675 13.8353 81.1169 13.2706 81.6225 12.7624C82.128 12.3106 82.746 11.9153 83.4763 11.6894C84.2065 11.4635 84.9368 11.2941 85.6671 11.2941C86.4535 11.2941 87.1838 11.4071 87.9141 11.6894C88.5882 11.9153 89.2061 12.3106 89.7679 12.7624C90.2734 13.2141 90.7228 13.8353 91.0037 14.5129C91.3408 15.2471 91.4531 15.9812 91.4531 16.8282ZM88.195 16.8282C88.195 16.4894 88.1388 16.1506 88.0264 15.8682C87.9141 15.5294 87.7456 15.2471 87.5209 15.0212C87.2962 14.7953 87.0715 14.5694 86.7344 14.4C86.4535 14.2306 86.0603 14.1741 85.6671 14.1741C85.2739 14.1741 84.9368 14.2306 84.5998 14.4C84.3189 14.5694 84.038 14.7388 83.8695 15.0212C83.6448 15.2471 83.5324 15.5294 83.4201 15.8682C83.3077 16.2071 83.2515 16.4894 83.2515 16.8282C83.2515 17.1671 83.3077 17.5059 83.4201 17.7882C83.5324 18.1271 83.701 18.4094 83.8695 18.6353C84.0942 18.9176 84.3189 19.0871 84.6559 19.2565C84.9368 19.4259 85.33 19.4824 85.7233 19.4824C86.1165 19.4824 86.4535 19.4259 86.7906 19.2565C87.0715 19.0871 87.3523 18.9176 87.577 18.6353C87.8017 18.3529 87.9141 18.0706 88.0264 17.7882C88.1388 17.5059 88.195 17.1671 88.195 16.8282Z" fill="#0047AB"/>
<path d="M103.868 16.9976C103.868 17.1106 103.868 17.28 103.868 17.3929C103.868 17.5059 103.868 17.6753 103.868 17.7882H96.3965C96.3965 18.0706 96.5089 18.3529 96.6774 18.5788C96.8459 18.8047 97.0145 19.0306 97.2392 19.2C97.4639 19.3694 97.7447 19.4824 98.0256 19.5953C98.3065 19.7082 98.5874 19.7647 98.9244 19.7647C99.4862 19.7647 99.9356 19.6518 100.273 19.4824C100.666 19.2565 100.947 19.0306 101.171 18.6918L103.531 20.2165C103.025 20.9506 102.407 21.4588 101.621 21.8541C100.834 22.2494 99.8794 22.4188 98.8682 22.4188C98.0818 22.4188 97.3515 22.3059 96.6774 22.08C96.0033 21.8541 95.3854 21.4588 94.8798 21.0071C94.3742 20.5553 93.9248 19.9906 93.644 19.3129C93.3631 18.6353 93.1945 17.8447 93.1945 16.9976C93.1945 16.1506 93.3631 15.36 93.644 14.6824C93.9248 14.0047 94.3181 13.3835 94.8236 12.9318C95.3292 12.4235 95.891 12.0847 96.5651 11.8024C97.2392 11.52 97.9694 11.4071 98.7559 11.4071C99.5423 11.4071 100.216 11.52 100.834 11.8024C101.452 12.0847 102.014 12.4235 102.463 12.9318C102.913 13.44 103.25 14.0047 103.531 14.6824C103.755 15.3035 103.868 16.1506 103.868 16.9976ZM100.722 15.6988C100.722 15.1341 100.553 14.6824 100.216 14.2871C99.8794 13.8918 99.3738 13.7224 98.6997 13.7224C98.3627 13.7224 98.0818 13.7788 97.8009 13.8918C97.52 14.0047 97.2953 14.1176 97.0706 14.3435C96.8459 14.5129 96.6774 14.7388 96.5651 14.9647C96.4527 15.1906 96.3965 15.4729 96.3403 15.6988H100.722Z" fill="#0047AB"/>
<path d="M112.8 22.08V16.4329C112.8 16.1506 112.8 15.8682 112.743 15.5859C112.687 15.3035 112.631 15.0776 112.519 14.9082C112.406 14.6824 112.238 14.5694 112.069 14.4565C111.845 14.3435 111.62 14.2871 111.339 14.2871C111.058 14.2871 110.777 14.3435 110.553 14.4565C110.328 14.5694 110.159 14.7388 109.991 14.9647C109.822 15.1906 109.71 15.4165 109.654 15.6988C109.598 15.9812 109.542 16.2635 109.542 16.5459V22.1929H106.115V11.6894H109.429V13.1576H109.485C109.598 12.9318 109.766 12.7059 109.991 12.48C110.216 12.2541 110.44 12.0847 110.721 11.9153C111.002 11.7459 111.283 11.6329 111.62 11.52C111.957 11.4071 112.294 11.3506 112.631 11.3506C113.305 11.3506 113.923 11.4635 114.373 11.7459C114.878 11.9718 115.271 12.3106 115.552 12.7059C115.833 13.1012 116.058 13.5529 116.17 14.0612C116.283 14.5694 116.395 15.0776 116.395 15.5859V22.0235H112.8V22.08Z" fill="#0047AB"/>
<path d="M122.518 8.35765C122.518 8.64 122.462 8.86588 122.349 9.09177C122.237 9.31765 122.125 9.54353 121.956 9.71294C121.788 9.88235 121.563 9.99529 121.338 10.1082C121.114 10.2212 120.833 10.2776 120.608 10.2776C120.046 10.2776 119.597 10.1082 119.204 9.71294C118.81 9.31765 118.642 8.92235 118.642 8.41412C118.642 8.18824 118.698 7.90588 118.81 7.68C118.923 7.45412 119.035 7.22824 119.204 7.05882C119.372 6.88941 119.597 6.77647 119.822 6.66353C120.046 6.55059 120.327 6.49412 120.608 6.49412C120.889 6.49412 121.114 6.55059 121.338 6.66353C121.563 6.77647 121.788 6.88941 121.956 7.05882C122.125 7.22824 122.293 7.39765 122.349 7.68C122.462 7.84941 122.518 8.13177 122.518 8.35765ZM118.81 22.08V11.6894H122.237V22.08H118.81Z" fill="#0047AB"/>
<path d="M132.012 22.08L129.765 18.8612L127.461 22.08H123.529L127.686 16.6588L123.922 11.6894H127.911L129.821 14.4565L131.787 11.6894H135.607L131.899 16.6588L136 22.08H132.012Z" fill="#0047AB"/>
</svg>
