<svg width="24" height="25" viewBox="0 0 24 25" fill="none" xmlns="http://www.w3.org/2000/svg">
<path d="M7.4629 14.7562C7.37809 14.5866 7.29329 14.417 7.20848 14.2474H8.65018C9.07421 14.2474 9.32862 13.9081 9.32862 13.5689V10.6007C9.32862 10.1767 8.9894 9.92227 8.65018 9.92227H7.20848C7.29329 9.75266 7.37809 9.58305 7.4629 9.41344C7.63251 9.15902 7.5477 8.8198 7.37809 8.56538L4.91873 6.02121C4.74912 5.8516 4.57951 5.76679 4.32509 5.8516C4.15548 5.8516 3.98587 5.9364 3.81625 6.10602C3.053 7.20849 2.45936 8.48057 2.20495 9.75266C1.01767 9.75266 0 10.7703 0 12.0424C0 13.3145 0.932862 14.2474 2.20495 14.3322C2.54417 15.6042 3.053 16.8763 3.81625 17.9788C3.90106 18.1484 4.15548 18.2332 4.32509 18.2332C4.32509 18.2332 4.32509 18.2332 4.40989 18.2332C4.57951 18.2332 4.74912 18.1484 4.91873 18.0636L7.37809 15.6042C7.5477 15.3498 7.63251 15.0106 7.4629 14.7562ZM1.4417 12.0424C1.4417 11.6184 1.78092 11.1944 2.28975 11.1944C2.79859 11.1944 3.13781 11.5336 3.13781 12.0424C3.13781 12.4664 2.79859 12.8905 2.28975 12.8905C1.78092 12.8905 1.4417 12.4664 1.4417 12.0424ZM5.51237 13.7385C5.59717 14.1626 5.76678 14.5866 5.9364 15.0106L4.4947 16.4523C4.07067 15.6891 3.73145 14.841 3.47703 13.9081C4.07067 13.4841 4.40989 12.8057 4.40989 12.0424C4.40989 11.2792 4.15548 10.6007 3.56184 10.1767C3.73145 9.32863 4.07067 8.39577 4.57951 7.63252L5.9364 9.07421C5.76678 9.49824 5.59717 9.92227 5.51237 10.3463C5.42756 10.5159 5.51237 10.7703 5.59717 10.9399C5.76678 11.1095 5.9364 11.1944 6.19081 11.1944H7.88693V12.8057H6.19081C5.9364 12.8057 5.76678 12.8905 5.59717 13.0601C5.51237 13.2297 5.42756 13.4841 5.51237 13.7385Z" fill="#0047AB"/>
<path d="M8.48054 7.37809C8.73495 7.63251 9.07418 7.63251 9.32859 7.4629C9.49821 7.37809 9.66782 7.29329 9.83743 7.20848V8.65018C9.83743 9.07421 10.1767 9.32862 10.5159 9.32862H13.4841C13.9081 9.32862 14.1625 8.9894 14.1625 8.65018V7.20848C14.3321 7.29329 14.5017 7.37809 14.6714 7.4629C14.9258 7.63251 15.265 7.5477 15.5194 7.37809L17.9788 4.91873C18.1484 4.74912 18.2332 4.57951 18.1484 4.32509C18.1484 4.15548 18.0636 3.90106 17.894 3.81625C16.7915 3.053 15.5194 2.45936 14.2473 2.20495C14.2473 1.01767 13.2297 0 11.9576 0C10.6855 0 9.75262 0.932862 9.66782 2.20495C8.39573 2.54417 7.12365 3.053 6.02117 3.81625C5.93637 3.98587 5.85156 4.15548 5.85156 4.32509C5.85156 4.4947 5.93637 4.74912 6.02117 4.91873L8.48054 7.37809ZM12.0424 1.4417C12.4664 1.4417 12.8904 1.78092 12.8904 2.28975C12.8904 2.79859 12.5512 3.13781 12.0424 3.13781C11.5335 3.13781 11.1943 2.79859 11.1943 2.28975C11.1943 1.78092 11.5335 1.4417 12.0424 1.4417ZM10.1767 3.56184C10.6007 4.15548 11.2791 4.4947 12.0424 4.4947C12.8056 4.4947 13.4841 4.07067 13.9081 3.56184C14.7562 3.73145 15.689 4.07067 16.4523 4.57951L14.9258 5.9364C14.5017 5.76678 14.0777 5.59717 13.6537 5.51237C13.4841 5.42756 13.2297 5.51237 13.06 5.59717C12.8904 5.76678 12.8056 5.9364 12.8056 6.19081V7.88693H11.1943V6.19081C11.1943 5.9364 11.1095 5.76678 10.9399 5.59717C10.7703 5.42756 10.5159 5.42756 10.3463 5.51237C9.92223 5.59717 9.49821 5.76678 9.07418 5.9364L7.63248 4.4947C8.39573 4.07067 9.24379 3.73145 10.1767 3.56184Z" fill="#0047AB"/>
<path d="M15.6042 16.7067C15.3498 16.4523 15.0106 16.4523 14.7561 16.6219C14.5865 16.7067 14.4169 16.7915 14.2473 16.8763V15.4346C14.2473 15.0106 13.9081 14.7562 13.5689 14.7562H10.6007C10.1766 14.7562 9.92221 15.0954 9.92221 15.4346V16.8763C9.7526 16.7915 9.58299 16.7067 9.41338 16.6219C9.15896 16.4523 8.81974 16.5371 8.56532 16.7067L6.10596 19.1661C5.93635 19.3357 5.85154 19.5053 5.93635 19.7597C5.93635 19.9293 6.02115 20.1838 6.19076 20.2686C7.29324 21.0318 8.56532 21.6255 9.83741 21.8799C9.83741 23.0671 10.8551 24.0848 12.1272 24.0848C13.3992 24.0848 14.3321 23.152 14.4169 21.8799C15.689 21.5406 16.9611 21.0318 18.0636 20.2686C18.2332 20.1838 18.318 19.9293 18.318 19.7597C18.318 19.5901 18.2332 19.3357 18.1484 19.1661L15.6042 16.7067ZM12.0424 22.6431C11.6183 22.6431 11.1943 22.3039 11.1943 21.7951C11.1943 21.2862 11.5335 20.947 12.0424 20.947C12.4664 20.947 12.8904 21.2862 12.8904 21.7951C12.8904 22.3039 12.4664 22.6431 12.0424 22.6431ZM13.9081 20.523C13.484 19.9293 12.8056 19.5901 12.0424 19.5901C11.2791 19.5901 10.6007 20.0141 10.1766 20.523C9.32857 20.3534 8.39571 20.0141 7.63246 19.5053L9.07416 18.0636C9.49818 18.2332 9.92221 18.4028 10.3462 18.4876C10.5159 18.5724 10.7703 18.4876 10.9399 18.4028C11.1095 18.2332 11.1943 18.0636 11.1943 17.8092V16.1131H12.8056V17.8092C12.8056 18.0636 12.8904 18.2332 13.06 18.4028C13.2296 18.5725 13.484 18.5724 13.6537 18.4876C14.0777 18.4028 14.5017 18.2332 14.9257 18.0636L16.3674 19.5053C15.6042 20.0141 14.7561 20.3534 13.9081 20.523Z" fill="#0047AB"/>
<path d="M23.9999 12.0424C23.9999 10.8551 23.0671 9.83746 21.795 9.75265C21.4558 8.48057 20.9469 7.20848 20.1837 6.10601C20.0989 5.9364 19.8444 5.85159 19.6748 5.85159C19.5052 5.85159 19.2508 5.9364 19.0812 6.0212L16.7066 8.48057C16.4522 8.73499 16.4522 9.07421 16.6218 9.32862C16.7066 9.49824 16.7914 9.66785 16.8762 9.83746H15.4345C15.0105 9.83746 14.7561 10.1767 14.7561 10.5159V13.4841C14.7561 13.9081 15.0953 14.1625 15.4345 14.1625H16.8762C16.7914 14.3322 16.7066 14.5018 16.6218 14.6714C16.4522 14.9258 16.537 15.265 16.7066 15.5194L19.166 17.9788C19.3356 18.1484 19.5052 18.1484 19.6748 18.1484C19.6748 18.1484 19.6748 18.1484 19.7596 18.1484C19.9292 18.1484 20.1837 18.0636 20.2685 17.894C21.0317 16.7915 21.6254 15.5194 21.8798 14.2474C23.0671 14.2474 23.9999 13.2297 23.9999 12.0424ZM19.5052 16.3675L18.0635 14.9258C18.2331 14.5018 18.4027 14.0777 18.4876 13.6537C18.5724 13.4841 18.4876 13.2297 18.4027 13.0601C18.2331 12.8905 18.0635 12.8057 17.8091 12.8057H16.113V11.1943H17.8091C18.0635 11.1943 18.2331 11.1095 18.4027 10.9399C18.5724 10.7703 18.5724 10.5159 18.4876 10.3463C18.4027 9.92226 18.2331 9.49824 18.0635 9.07421L19.5052 7.63251C19.9292 8.39576 20.2685 9.24382 20.5229 10.1767C19.9292 10.6007 19.59 11.2792 19.59 12.0424C19.59 12.8057 20.0141 13.4841 20.5229 13.9081C20.3533 14.7562 20.0141 15.6042 19.5052 16.3675ZM21.795 12.8905C21.3709 12.8905 20.9469 12.5512 20.9469 12.0424C20.9469 11.5336 21.2861 11.1943 21.795 11.1943C22.3038 11.1943 22.643 11.5336 22.643 12.0424C22.643 12.4664 22.219 12.8905 21.795 12.8905Z" fill="#0047AB"/>
</svg>
