<svg width="27" height="24" viewBox="0 0 27 24" fill="none" xmlns="http://www.w3.org/2000/svg">
<path d="M5.09371 18.1478V12.4138L0 15.3695L5.09371 18.1478Z" fill="currentColor"/>
<path d="M26.7869 6.91626C26.5472 6.2069 26.3075 5.7931 26.0678 5.08374C25.5884 4.37438 25.3487 3.96059 24.9292 3.48768C23.2513 1.35961 20.7344 0 17.9179 0C17.4385 0 17.1988 0.236453 16.7793 0.236453C16.5396 0.236453 16.0602 0.236453 15.8205 0.236453C15.1014 0.472906 14.4422 0.70936 13.9628 0.945813C13.7231 1.18227 13.4834 1.18227 13.4834 1.18227C12.7642 1.65517 12.1051 2.12808 11.3859 2.54187C10.9665 2.95567 10.4871 3.66502 10.2473 4.13793C10.0076 4.37438 10.0076 4.37438 10.0076 4.37438V4.61084C9.76794 4.61084 9.76794 4.84729 9.52824 5.08374C9.04883 6.02956 8.80912 6.91626 8.56942 7.86207C8.56942 8.33498 8.56942 8.80788 8.56942 9.22167V24H14.3822V9.28079C14.3822 8.80788 14.3822 8.33498 14.6219 8.15764C15.1014 6.79803 16.24 5.85222 17.858 5.85222C17.858 5.85222 18.0977 5.85222 18.3374 6.08867C19.476 6.08867 20.6745 7.03448 20.9142 8.15764C21.1539 8.63054 21.1539 8.86699 21.1539 9.28079C21.1539 9.75369 21.1539 10.2266 20.9142 10.6404C20.4348 11.3498 19.9554 11.7635 19.5359 12C19.0565 12.4138 18.637 12.4138 18.1576 12.4138V18.1478C20.255 18.1478 22.3524 17.202 23.9704 15.8424C25.3487 14.7192 26.5472 12.6502 26.9667 10.5813C26.9667 10.3448 26.9667 10.3448 26.9667 10.1084C26.9667 9.87192 26.9667 9.39901 26.9667 9.16256C27.0266 8.27586 27.0266 7.5665 26.7869 6.91626Z" fill="black"/>
</svg>
