<svg width="46" height="41" viewBox="0 0 46 41" fill="none" xmlns="http://www.w3.org/2000/svg">
<path d="M8.5 30.7V21L0 26L8.5 30.7Z" fill="white"/>
<path d="M44.7 11.7C44.3 10.5 43.9 9.8 43.5 8.6C42.7 7.4 42.3 6.7 41.6 5.9C38.8 2.3 34.6 0 29.9 0C29.1 0 28.7 0.4 28 0.4C27.6 0.4 26.8 0.4 26.4 0.4C25.2 0.8 24.1 1.2 23.3 1.6C22.9 2 22.5 2 22.5 2C21.3 2.8 20.2 3.6 19 4.3C18.3 5 17.5 6.2 17.1 7C16.7 7.4 16.7 7.4 16.7 7.4V7.8C16.3 7.8 16.3 8.2 15.9 8.6C15.1 10.2 14.7 11.7 14.3 13.3C14.3 14.1 14.3 14.9 14.3 15.6V40.6H24V15.7C24 14.9 24 14.1 24.4 13.8C25.2 11.5 27.1 9.9 29.8 9.9C29.8 9.9 30.2 9.9 30.6 10.3C32.5 10.3 34.5 11.9 34.9 13.8C35.3 14.6 35.3 15 35.3 15.7C35.3 16.5 35.3 17.3 34.9 18C34.1 19.2 33.3 19.9 32.6 20.3C31.8 21 31.1 21 30.3 21V30.7C33.8 30.7 37.3 29.1 40 26.8C42.3 24.9 44.3 21.4 45 17.9C45 17.5 45 17.5 45 17.1C45 16.7 45 15.9 45 15.5C45.1 14 45.1 12.8 44.7 11.7Z" fill="white"/>
</svg>
