<svg width="81" height="22" viewBox="0 0 81 22" fill="none" xmlns="http://www.w3.org/2000/svg">
<path d="M10.4643 0.000946568H4.30552C4.10163 0.000817968 3.9044 0.0735106 3.74936 0.205927C3.59433 0.338343 3.49168 0.521776 3.45992 0.723174L0.969045 16.5158C0.957593 16.5891 0.962161 16.664 0.982432 16.7353C1.0027 16.8067 1.03819 16.8728 1.08647 16.9291C1.13474 16.9854 1.19464 17.0306 1.26205 17.0616C1.32946 17.0925 1.40277 17.1085 1.47694 17.1084H4.41718C4.6212 17.1085 4.81854 17.0356 4.97359 16.903C5.12865 16.7704 5.23122 16.5868 5.26278 16.3852L5.93458 12.1257C5.96613 11.9243 6.06856 11.7408 6.22343 11.6082C6.3783 11.4756 6.57542 11.4027 6.77928 11.4026H8.72893C12.7858 11.4026 15.1272 9.43943 15.7387 5.54913C16.0142 3.84712 15.7504 2.50983 14.9534 1.57328C14.0781 0.544868 12.5256 0.000946568 10.4643 0.000946568ZM11.1748 5.76886C10.838 7.97876 9.14948 7.97876 7.51682 7.97876H6.58747L7.23945 3.85162C7.25854 3.73088 7.32009 3.62091 7.41303 3.5415C7.50598 3.4621 7.62421 3.41847 7.74645 3.41847H8.17241C9.28456 3.41847 10.3337 3.41847 10.8758 4.05244C11.1991 4.43067 11.2982 4.9926 11.1748 5.76886ZM28.8738 5.69772H25.9246C25.8024 5.69772 25.6841 5.74135 25.5912 5.82075C25.4982 5.90016 25.4367 6.01013 25.4176 6.13087L25.287 6.95576L25.0808 6.65678C24.4423 5.73013 23.0186 5.42035 21.5975 5.42035C18.3385 5.42035 15.555 7.88871 15.0129 11.3513C14.731 13.0785 15.1317 14.7301 16.1115 15.8818C17.0102 16.9409 18.2962 17.3821 19.8262 17.3821C22.4521 17.3821 23.9083 15.6936 23.9083 15.6936L23.7768 16.5131C23.7651 16.5864 23.7694 16.6613 23.7895 16.7328C23.8095 16.8042 23.8448 16.8705 23.8929 16.9269C23.941 16.9834 24.0008 17.0288 24.0681 17.06C24.1354 17.0912 24.2087 17.1074 24.2829 17.1075H26.9395C27.1435 17.1076 27.3409 17.0347 27.4959 16.9021C27.651 16.7695 27.7535 16.5859 27.7851 16.3843L29.379 6.29027C29.3908 6.21716 29.3865 6.14238 29.3665 6.07109C29.3465 5.9998 29.3113 5.9337 29.2632 5.87736C29.2152 5.82102 29.1555 5.77578 29.0883 5.74476C29.0211 5.71374 28.9479 5.69769 28.8738 5.69772ZM24.7629 11.4377C24.4783 13.1226 23.1411 14.2537 21.4354 14.2537C20.579 14.2537 19.8946 13.979 19.4552 13.4585C19.0193 12.9416 18.8536 12.2059 18.9923 11.3864C19.258 9.71589 20.6178 8.5479 22.2973 8.5479C23.1348 8.5479 23.8156 8.82617 24.264 9.35118C24.7134 9.88159 24.8917 10.6218 24.7629 11.4377ZM44.5809 5.69772H41.6173C41.4775 5.69794 41.3399 5.73225 41.2164 5.79769C41.0929 5.86313 40.9872 5.95772 40.9086 6.07324L36.821 12.0942L35.0884 6.30828C35.0352 6.13181 34.9267 5.97715 34.7787 5.86719C34.6308 5.75723 34.4514 5.6978 34.2671 5.69772H31.3548C31.2731 5.6975 31.1924 5.71681 31.1197 5.75404C31.0469 5.79128 30.9841 5.84535 30.9364 5.91178C30.8887 5.9782 30.8576 6.05504 30.8457 6.13591C30.8337 6.21678 30.8412 6.29934 30.8676 6.37672L34.132 15.9566L31.063 20.289C31.0085 20.3659 30.9761 20.4562 30.9695 20.5502C30.9629 20.6442 30.9823 20.7381 31.0255 20.8218C31.0688 20.9055 31.1342 20.9757 31.2147 21.0247C31.2952 21.0737 31.3876 21.0996 31.4818 21.0995H34.4418C34.58 21.0997 34.7162 21.0664 34.8387 21.0024C34.9612 20.9384 35.0664 20.8457 35.1452 20.7321L45.0024 6.50369C45.0558 6.42671 45.0871 6.33658 45.093 6.24306C45.0988 6.14954 45.079 6.0562 45.0356 5.97317C44.9921 5.89013 44.9268 5.82056 44.8467 5.77201C44.7665 5.72345 44.6746 5.69776 44.5809 5.69772Z" fill="#F4F3F3"/>
<path d="M54.3931 0.000900467H48.2335C48.0298 0.000986417 47.8327 0.0737761 47.6779 0.206173C47.5231 0.33857 47.4205 0.521882 47.3888 0.723127L44.8979 16.5158C44.8863 16.5889 44.8908 16.6637 44.9109 16.735C44.931 16.8063 44.9663 16.8724 45.0144 16.9287C45.0625 16.985 45.1222 17.0302 45.1895 17.0613C45.2568 17.0923 45.33 17.1083 45.404 17.1083H48.5649C48.7075 17.1081 48.8453 17.057 48.9536 16.9642C49.0619 16.8715 49.1336 16.7431 49.1556 16.6022L49.8626 12.1257C49.8941 11.9243 49.9965 11.7407 50.1514 11.6082C50.3063 11.4756 50.5034 11.4027 50.7073 11.4025H52.656C56.7138 11.4025 59.0543 9.43938 59.6667 5.54908C59.9431 3.84707 59.6775 2.50978 58.8805 1.57323C58.0061 0.544822 56.4545 0.000900467 54.3931 0.000900467ZM55.1037 5.76881C54.7678 7.97872 53.0793 7.97872 51.4457 7.97872H50.5173L51.1701 3.85158C51.1889 3.73083 51.2502 3.62077 51.343 3.54132C51.4358 3.46186 51.554 3.41827 51.6762 3.41842H52.1022C53.2134 3.41842 54.2635 3.41842 54.8056 4.0524C55.1289 4.43062 55.227 4.99255 55.1037 5.76881ZM72.8018 5.69767H69.8544C69.7321 5.69733 69.6138 5.74086 69.521 5.82035C69.4281 5.89983 69.3668 6.01 69.3483 6.13082L69.2177 6.95571L69.0106 6.65674C68.3721 5.73009 66.9493 5.4203 65.5282 5.4203C62.2692 5.4203 59.4865 7.88866 58.9444 11.3512C58.6635 13.0784 59.0624 14.73 60.0422 15.8818C60.9427 16.9408 62.2269 17.3821 63.7569 17.3821C66.3828 17.3821 67.839 15.6936 67.839 15.6936L67.7075 16.5131C67.6958 16.5865 67.7001 16.6616 67.7203 16.7331C67.7404 16.8047 67.7758 16.8711 67.8242 16.9276C67.8725 16.9841 67.9325 17.0295 68 17.0605C68.0676 17.0916 68.1411 17.1076 68.2154 17.1074H70.8711C71.075 17.1073 71.2721 17.0344 71.4269 16.9018C71.5818 16.7692 71.6842 16.5857 71.7158 16.3843L73.3106 6.29022C73.3219 6.21688 73.3172 6.14197 73.2969 6.07062C73.2765 5.99928 73.2409 5.93319 73.1926 5.87689C73.1442 5.8206 73.0843 5.77543 73.0168 5.74449C72.9494 5.71355 72.876 5.69758 72.8018 5.69767ZM68.6909 11.4377C68.4081 13.1226 67.069 14.2536 65.3634 14.2536C64.5088 14.2536 63.8226 13.979 63.3832 13.4585C62.9473 12.9416 62.7834 12.2058 62.9203 11.3863C63.1877 9.71585 64.5457 8.54785 66.2252 8.54785C67.0627 8.54785 67.7435 8.82612 68.192 9.35113C68.6432 9.88154 68.8215 10.6218 68.6909 11.4377ZM76.2788 0.434057L73.751 16.5158C73.7394 16.5889 73.7438 16.6637 73.7639 16.735C73.784 16.8063 73.8194 16.8724 73.8675 16.9287C73.9156 16.985 73.9753 17.0302 74.0426 17.0613C74.1098 17.0923 74.183 17.1083 74.2571 17.1083H76.7984C77.2207 17.1083 77.5792 16.8021 77.644 16.3852L80.1367 0.593451C80.1482 0.52025 80.1438 0.445412 80.1237 0.37408C80.1036 0.302748 80.0683 0.236615 80.0202 0.180226C79.9721 0.123837 79.9124 0.0785301 79.8451 0.047419C79.7779 0.016308 79.7047 0.000131153 79.6306 0H76.7849C76.6627 0.000432596 76.5447 0.0443502 76.452 0.123886C76.3592 0.203421 76.2978 0.313378 76.2788 0.434057Z" fill="#F4F3F3"/>
</svg>
