<svg width="19" height="24" viewBox="0 0 19 24" fill="none" xmlns="http://www.w3.org/2000/svg">
<path d="M6.9228 13.32C7.04739 13.32 9.9378 13.4533 11.6571 13H11.6696C13.6505 12.48 16.4038 10.9867 17.114 6.10667C17.114 6.10667 18.6962 0 10.8473 0H4.10715C3.49667 0 2.97341 0.48 2.87374 1.12L0.00824887 20.5333C-0.0540444 20.9333 0.244963 21.3067 0.618723 21.3067H4.89204L5.93857 14.2133C6.01332 13.7067 6.42446 13.32 6.9228 13.32Z" fill="black"/>
<path d="M18.2103 7.05333C17.2012 12.0267 14.0242 14.6533 8.96602 14.6533H7.1346L5.85136 23.3467C5.80152 23.6933 6.0507 24 6.37462 24H8.74177C9.16536 24 9.53912 23.6667 9.60141 23.2133C9.70108 22.68 10.2493 18.7867 10.3614 18.12C10.4237 17.6667 10.7974 17.3333 11.221 17.3333H11.7692C15.2826 17.3333 18.0359 15.8 18.8457 11.3867C19.1697 9.6 18.9952 8.13333 18.2103 7.05333Z" fill="currentColor"/>
</svg>
