<svg width="16" height="16" viewBox="0 0 16 16" fill="none" xmlns="http://www.w3.org/2000/svg">
<path d="M12.554 15.5H12.354C10.254 15.3 8.25404 14.5 6.45404 13.4C4.85404 12.4 3.35404 10.9 2.35404 9.3C1.25404 7.5 0.454045 5.5 0.254045 3.4C0.154045 2.3 0.954045 1.3 2.05404 1.2H4.25404C5.25404 1.2 6.15404 1.9 6.25404 2.9C6.35404 3.5 6.45404 4 6.65404 4.6C6.95404 5.3 6.75404 6.2 6.15404 6.7L5.75404 7.1C6.45404 8.2 7.45404 9.2 8.65404 10L9.05404 9.5C9.65405 8.9 10.454 8.8 11.154 9C11.754 9.3 12.254 9.4 12.854 9.5C13.854 9.6 14.654 10.5 14.554 11.5V13.5C14.554 14 14.354 14.5 13.954 14.9C13.654 15.3 13.154 15.5 12.554 15.5ZM4.25404 2.6H2.25404C2.05404 2.6 1.95404 2.7 1.85404 2.8C1.75404 2.9 1.75404 3.1 1.75404 3.2C1.95404 5.1 2.55404 6.9 3.55404 8.5C4.45404 10 5.75404 11.2 7.25404 12.2C8.85404 13.2 10.654 13.9 12.554 14.1C12.754 14.1 12.854 14 12.954 13.9C13.054 13.8 13.154 13.7 13.154 13.5V11.5C13.154 11.2 12.954 11 12.654 10.9C11.954 10.8 11.354 10.6 10.654 10.4C10.454 10.3 10.254 10.4 10.054 10.5L9.25404 11.4C9.05404 11.6 8.65405 11.7 8.35404 11.5C6.65405 10.5 5.25404 9.1 4.25404 7.4C4.05404 7.1 4.15404 6.7 4.35404 6.5L5.15404 5.7C5.35404 5.5 5.35404 5.3 5.25404 5.1C5.05404 4.5 4.85404 3.8 4.75404 3.1C4.75404 2.8 4.55404 2.6 4.25404 2.6ZM11.954 7.1C11.554 7.1 11.254 6.9 11.254 6.5C11.054 5.5 10.254 4.7 9.25404 4.5C8.85404 4.5 8.55404 4.1 8.65404 3.7C8.75404 3.3 9.15405 3 9.55404 3.1C11.154 3.4 12.354 4.6 12.654 6.2C12.754 6.6 12.454 7 12.054 7.1H11.954ZM14.554 7.1C14.154 7.1 13.854 6.8 13.854 6.5C13.554 4.1 11.654 2.2 9.25404 2C8.85404 1.9 8.55404 1.5 8.65404 1.1C8.65404 0.7 9.05404 0.5 9.45404 0.5C12.554 0.8 14.854 3.2 15.254 6.3C15.254 6.7 14.954 7 14.554 7.1Z" fill="#F4F3F3"/>
</svg>
