<svg width="63" height="34" viewBox="0 0 63 34" fill="none" xmlns="http://www.w3.org/2000/svg">
<path d="M0.359442 25.163L12.1844 14.542C12.7864 13.9973 13.3884 13.381 13.9904 12.693C14.5924 12.005 14.8934 11.2023 14.8934 10.285C14.8934 9.253 14.5208 8.45033 13.7754 7.877C13.0301 7.275 12.1558 6.974 11.1524 6.974C9.94844 6.974 9.00244 7.34667 8.31444 8.092C7.65511 8.83733 7.28244 9.75467 7.19644 10.844L0.746441 10.371C0.832442 8.79433 1.16211 7.43267 1.73544 6.286C2.30877 5.11066 3.06844 4.136 4.01444 3.362C4.96044 2.588 6.06411 2.01467 7.32544 1.642C8.61544 1.24067 10.0058 1.04 11.4964 1.04C12.8724 1.04 14.1624 1.24067 15.3664 1.642C16.5704 2.01467 17.6168 2.588 18.5054 3.362C19.3941 4.10733 20.0821 5.05333 20.5694 6.2C21.0854 7.34667 21.3434 8.67967 21.3434 10.199C21.3434 11.1737 21.2431 12.0623 21.0424 12.865C20.8418 13.639 20.5551 14.3557 20.1824 15.015C19.8384 15.6457 19.4228 16.2333 18.9354 16.778C18.4481 17.3227 17.9178 17.853 17.3444 18.369L8.09944 26.324H21.6014V32H0.359442V25.163ZM45.5437 23.959C45.5437 22.7837 45.7587 21.68 46.1887 20.648C46.6474 19.616 47.2494 18.713 47.9947 17.939C48.7687 17.165 49.6717 16.563 50.7037 16.133C51.7357 15.6743 52.8394 15.445 54.0147 15.445C55.19 15.445 56.2937 15.6743 57.3257 16.133C58.3577 16.563 59.2464 17.165 59.9917 17.939C60.7657 18.713 61.3677 19.616 61.7977 20.648C62.2564 21.68 62.4857 22.7837 62.4857 23.959C62.4857 25.1343 62.2564 26.2523 61.7977 27.313C61.3677 28.345 60.7657 29.248 59.9917 30.022C59.2464 30.796 58.3577 31.4123 57.3257 31.871C56.2937 32.301 55.19 32.516 54.0147 32.516C52.8394 32.516 51.7357 32.301 50.7037 31.871C49.6717 31.4123 48.7687 30.796 47.9947 30.022C47.2494 29.248 46.6474 28.345 46.1887 27.313C45.7587 26.2523 45.5437 25.1343 45.5437 23.959ZM58.0997 23.959C58.0997 22.8123 57.6984 21.8377 56.8957 21.035C56.1217 20.2323 55.1614 19.831 54.0147 19.831C52.868 19.831 51.8934 20.2323 51.0907 21.035C50.3167 21.8377 49.9297 22.8123 49.9297 23.959C49.9297 25.1343 50.3167 26.1233 51.0907 26.926C51.8934 27.7287 52.868 28.13 54.0147 28.13C55.1614 28.13 56.1217 27.7287 56.8957 26.926C57.6984 26.1233 58.0997 25.1343 58.0997 23.959ZM23.9147 9.554C23.9147 8.37867 24.1297 7.275 24.5597 6.243C25.0184 5.211 25.6204 4.308 26.3657 3.534C27.1397 2.76 28.0427 2.158 29.0747 1.728C30.1067 1.26933 31.2104 1.04 32.3857 1.04C33.561 1.04 34.6647 1.26933 35.6967 1.728C36.7287 2.158 37.6174 2.76 38.3627 3.534C39.1367 4.308 39.7387 5.211 40.1687 6.243C40.6274 7.275 40.8567 8.37867 40.8567 9.554C40.8567 10.7293 40.6274 11.833 40.1687 12.865C39.7387 13.897 39.1367 14.8 38.3627 15.574C37.6174 16.348 36.7287 16.9643 35.6967 17.423C34.6647 17.853 33.561 18.068 32.3857 18.068C31.2104 18.068 30.1067 17.853 29.0747 17.423C28.0427 16.9643 27.1397 16.348 26.3657 15.574C25.6204 14.8 25.0184 13.897 24.5597 12.865C24.1297 11.833 23.9147 10.7293 23.9147 9.554ZM36.4707 9.554C36.4707 8.40733 36.0694 7.43267 35.2667 6.63C34.4927 5.82733 33.5324 5.426 32.3857 5.426C31.239 5.426 30.2644 5.82733 29.4617 6.63C28.6877 7.43267 28.3007 8.40733 28.3007 9.554C28.3007 10.7007 28.6877 11.6753 29.4617 12.478C30.2644 13.2807 31.239 13.682 32.3857 13.682C33.5324 13.682 34.4927 13.2807 35.2667 12.478C36.0694 11.6753 36.4707 10.7007 36.4707 9.554ZM50.1447 0.18L53.7567 2.201L35.9977 33.376L32.7297 31.527L50.1447 0.18Z" fill="white"/>
</svg>
